{"glyphs":{"\u0000":{"ha":1361,"x_min":0,"x_max":0,"o":""},"\r":{"ha":1361,"x_min":0,"x_max":0,"o":""}," ":{"ha":1361,"x_min":0,"x_max":0,"o":""},"䈈":{"ha":1361,"x_min":347,"x_max":1014,"o":"m 360 949 q 365 900 360 932 q 369 885 367 894 q 371 873 371 875 q 369 860 371 871 q 362 794 358 831 q 377 730 365 758 q 401 684 389 701 q 440 635 414 667 q 463 616 456 618 q 476 625 469 614 q 478 644 482 636 q 436 708 469 668 q 415 775 417 731 l 415 781 l 435 768 q 442 763 436 767 q 451 757 447 760 q 463 751 456 754 q 474 746 469 747 q 484 744 479 744 q 492 748 489 744 q 493 758 494 751 q 481 785 493 771 q 422 842 469 796 q 411 857 413 850 q 414 868 410 864 q 428 878 418 872 q 461 883 436 882 l 481 885 q 483 885 482 885 q 490 894 492 889 q 483 910 489 906 q 463 913 476 914 q 444 910 456 911 q 426 908 432 908 q 415 910 421 907 q 404 919 408 913 q 403 1036 386 958 q 407 1067 407 1057 q 394 1083 406 1085 q 366 1036 374 1083 q 360 949 358 989 m 972 1003 q 954 954 957 982 q 952 940 953 946 q 949 928 951 933 q 947 920 947 924 q 942 913 946 917 q 938 908 939 910 q 931 905 936 907 q 922 901 925 903 q 910 897 919 900 q 897 893 901 894 q 869 884 883 889 q 851 878 854 879 q 842 874 849 878 q 835 869 836 871 q 828 858 833 867 q 853 849 839 849 q 876 851 867 849 q 907 864 886 854 q 935 868 925 874 q 940 842 946 863 q 912 811 935 825 q 885 792 889 797 q 828 764 864 771 q 825 763 826 763 q 818 753 817 760 q 833 742 819 742 q 876 758 846 742 q 903 772 901 772 q 907 773 903 772 q 915 774 911 774 q 919 774 918 775 l 881 726 q 871 715 879 724 q 856 697 863 706 q 842 681 849 689 q 833 672 835 674 q 846 651 826 656 q 866 654 857 650 q 879 663 875 658 q 893 679 883 667 q 960 768 958 764 q 981 814 972 789 q 989 889 985 829 q 999 982 994 965 q 1007 999 1000 986 q 1014 1015 1014 1013 q 1010 1028 1013 1025 q 972 1003 999 1039 m 758 790 q 747 774 749 783 q 742 707 743 740 q 730 667 742 676 q 690 667 718 658 q 574 667 683 668 q 546 667 547 667 q 533 699 535 671 q 524 729 532 726 q 501 682 501 733 q 500 666 501 676 q 498 647 499 656 q 497 628 497 638 q 499 614 497 619 q 507 536 506 590 l 510 482 q 508 453 510 471 q 510 327 507 432 q 514 222 514 222 q 517 204 514 208 q 535 193 522 190 q 550 211 549 196 q 550 288 551 229 q 551 335 549 328 q 589 344 558 350 q 635 344 597 343 q 703 347 675 346 q 735 349 732 349 q 743 340 740 346 q 746 283 744 336 q 754 181 749 215 q 756 170 756 176 q 757 161 757 164 q 757 158 757 158 l 765 161 q 781 188 776 167 q 807 194 786 225 q 836 144 831 160 q 829 108 843 125 q 792 76 815 90 q 765 57 769 61 q 761 44 763 51 q 764 31 760 36 q 783 31 771 25 q 799 40 794 36 q 840 69 810 53 l 844 67 l 846 38 q 857 -32 847 -3 q 900 -147 886 -117 q 930 -200 921 -192 q 944 -207 939 -208 q 951 -197 947 -207 q 954 -181 954 -187 q 928 -97 954 -167 q 895 1 901 -26 q 892 49 889 29 q 892 89 896 76 q 891 131 888 119 q 910 167 894 143 q 935 236 936 206 q 926 272 935 247 q 915 304 918 296 q 900 343 910 329 q 869 368 890 357 q 833 374 847 379 q 831 342 814 364 q 881 253 863 300 q 876 194 893 221 q 873 189 875 192 q 869 185 871 186 q 868 185 868 183 q 806 238 836 229 q 787 247 790 242 q 785 272 783 253 q 785 368 788 299 l 783 433 l 785 453 q 786 492 786 472 q 783 527 785 513 q 779 597 782 542 q 777 701 776 656 q 778 769 778 746 q 769 790 776 782 q 763 794 764 796 q 758 790 760 792 m 696 635 q 719 633 715 635 q 733 623 729 632 q 738 594 736 614 q 739 533 739 575 q 733 510 739 513 q 696 507 731 508 q 571 510 622 506 q 547 524 553 511 q 544 589 546 531 l 543 625 q 557 635 550 633 q 696 635 557 635 m 726 476 q 737 462 732 472 q 744 439 742 451 q 747 413 746 426 q 744 390 747 400 q 729 378 742 379 q 606 379 714 375 q 563 383 569 382 q 547 460 543 390 q 549 469 549 465 q 553 474 550 472 q 561 478 557 476 q 572 479 565 479 q 726 476 700 489 m 433 189 l 432 196 q 438 229 432 213 q 467 324 451 276 q 472 343 472 339 q 458 350 472 354 q 448 344 453 349 q 439 331 443 339 q 432 318 435 324 q 425 302 429 313 q 419 288 421 292 q 415 274 418 283 q 408 256 411 264 q 403 244 406 249 q 378 194 385 215 q 376 142 371 174 q 381 121 378 131 q 385 108 383 111 q 386 97 386 104 q 383 79 386 90 q 375 47 381 68 q 356 -36 363 3 q 352 -62 356 -42 q 348 -88 349 -82 q 348 -110 347 -94 q 350 -142 349 -125 q 353 -206 357 -185 q 355 -215 351 -211 q 363 -219 358 -219 q 379 -211 376 -219 q 386 -137 388 -186 q 388 -96 386 -111 q 392 -62 389 -81 q 397 -35 396 -44 q 422 43 403 11 q 443 24 426 40 q 472 -1 460 7 q 496 -12 483 -8 q 506 -15 504 -15 q 513 -15 508 -15 q 515 -11 517 -15 q 515 0 514 -7 q 500 28 514 14 q 444 93 456 74 q 443 146 432 115 q 450 156 444 150 q 461 168 456 163 q 472 179 467 174 q 479 185 478 185 q 494 215 494 203 q 488 222 494 219 q 476 218 485 222 q 460 208 465 211 q 450 198 456 204 q 438 186 444 192 q 433 189 433 189 "},"一":{"ha":1361,"x_min":94,"x_max":1268,"o":"m 1106 507 q 900 494 1057 501 q 604 471 699 486 q 544 454 564 464 q 515 444 533 447 q 479 442 496 442 q 439 444 463 443 q 401 444 415 444 q 322 426 339 442 q 297 416 313 418 q 240 415 282 414 q 136 413 157 418 q 110 401 118 408 q 99 378 101 393 q 120 346 96 351 q 176 347 144 340 q 343 376 250 357 q 513 396 464 401 q 541 394 528 394 q 570 396 554 394 q 594 399 586 397 q 624 403 603 400 q 654 408 646 407 q 826 428 746 425 q 905 433 860 429 q 980 438 950 436 q 1053 442 1010 440 q 1128 442 1097 443 q 1242 451 1204 439 q 1261 474 1268 461 q 1229 492 1256 483 q 1168 506 1203 501 q 1106 507 1133 511 "},"丁":{"ha":1361,"x_min":6,"x_max":1356,"o":"m 513 793 q 483 789 500 792 q 136 700 283 754 q 94 683 104 688 q 68 669 83 679 q 43 646 53 660 q 22 589 42 643 q 7 489 11 560 q 9 421 6 463 q 18 361 13 379 q 57 280 29 325 q 114 214 85 235 q 171 187 136 197 q 278 163 206 176 q 589 132 426 136 q 821 140 681 131 q 986 164 844 143 q 1072 183 1029 169 q 1151 215 1115 196 q 1210 253 1188 233 q 1307 389 1279 310 q 1342 532 1338 472 q 1349 582 1343 544 q 1354 639 1354 619 q 1289 761 1354 729 q 1192 789 1261 775 q 1104 813 1138 800 l 1079 814 q 513 793 844 836 "},"七":{"ha":1361,"x_min":69,"x_max":1290,"o":"m 135 269 q 183 274 149 269 q 226 278 217 278 q 475 292 390 283 q 538 294 524 297 q 595 258 575 290 q 607 182 615 226 q 599 132 604 174 q 590 74 597 119 q 576 -9 582 28 q 571 -51 571 -46 q 582 -94 569 -61 q 676 -239 633 -232 q 687 -237 682 -240 q 694 -225 692 -233 q 699 -208 697 -217 q 703 -187 701 -200 q 705 -166 704 -175 q 706 -144 706 -157 q 708 -125 707 -131 q 733 165 721 38 q 746 269 744 265 q 818 300 760 296 q 891 308 844 303 q 981 317 938 313 q 1244 328 1194 332 q 1278 337 1267 325 q 1289 369 1290 349 q 1239 428 1289 404 q 1043 461 1157 465 l 1011 461 l 957 454 q 896 449 897 449 q 862 449 889 447 q 825 454 835 451 q 803 460 813 457 q 786 470 793 464 q 775 486 779 476 q 772 508 771 496 q 783 788 775 606 q 792 993 790 969 q 789 1033 792 1022 q 783 1058 786 1049 q 776 1078 781 1067 q 767 1096 771 1089 q 756 1108 763 1103 q 739 1117 749 1114 q 713 1115 724 1122 q 690 1092 703 1108 q 669 1028 682 1079 q 647 881 656 975 q 635 713 644 846 q 618 506 626 579 q 602 462 614 475 q 542 439 590 449 q 481 431 514 433 q 357 426 457 429 q 240 419 257 422 q 124 381 178 411 q 72 307 71 350 q 88 276 72 283 q 135 269 103 268 "},"万":{"ha":1361,"x_min":379,"x_max":983,"o":"m 892 -157 q 878 -168 892 -168 q 846 -159 864 -168 q 810 -136 828 -150 q 779 -109 793 -122 q 758 -86 765 -96 q 732 -22 746 -71 q 711 99 714 42 q 713 138 710 124 q 746 201 718 158 q 778 257 768 235 q 829 425 815 342 q 844 503 839 485 q 858 538 849 521 q 906 603 865 550 q 949 660 946 656 q 981 788 983 718 q 953 928 979 846 q 917 1038 919 1029 q 900 1079 904 1065 q 879 1129 888 1119 q 863 1132 872 1136 q 854 1118 854 1128 q 860 1101 854 1113 q 865 1089 865 1089 q 885 1032 883 1043 q 884 1028 885 1032 q 883 1021 883 1025 q 901 958 886 1001 q 924 861 924 897 q 921 833 924 840 q 914 829 918 829 q 856 889 903 831 q 824 922 831 919 q 818 925 821 925 q 826 872 803 924 q 881 790 851 819 q 913 747 908 761 q 897 661 921 721 q 842 581 871 596 q 825 601 833 585 q 785 689 813 621 q 763 735 776 708 q 738 786 749 763 q 721 829 726 810 q 697 882 707 869 q 685 888 688 889 q 675 881 682 888 q 663 872 668 874 q 611 832 632 864 q 574 758 600 817 q 543 696 553 710 q 539 689 542 693 q 534 681 536 685 q 528 674 532 678 q 522 667 525 669 q 516 661 519 664 q 508 657 513 658 q 499 656 504 656 q 489 658 494 656 q 439 734 451 672 q 457 832 426 796 q 461 838 460 836 q 463 840 463 839 q 464 844 463 842 q 468 853 465 847 q 539 932 496 894 q 546 944 546 938 q 517 944 543 968 q 450 868 478 911 q 431 858 442 856 q 414 893 415 863 q 413 899 414 896 q 429 954 407 908 q 472 1024 440 976 q 488 1050 486 1047 q 487 1064 492 1057 q 474 1071 482 1071 q 464 1066 469 1071 q 452 1051 458 1061 q 441 1034 446 1040 q 429 1015 436 1028 q 421 1000 422 1003 q 382 911 394 958 q 385 850 379 904 q 390 732 388 815 q 413 674 392 701 q 443 640 418 667 q 478 601 472 611 q 485 550 489 581 q 467 493 482 535 q 449 432 451 450 q 453 374 446 414 q 525 219 471 286 q 535 209 531 214 q 543 201 540 204 q 552 194 546 199 q 561 188 558 190 q 573 181 564 186 q 586 172 582 176 q 635 140 624 150 q 653 113 650 126 q 663 56 657 99 q 671 4 669 14 q 763 -182 696 -132 q 858 -218 801 -211 q 905 -214 886 -221 q 929 -189 924 -207 q 937 -153 935 -171 q 932 -108 939 -136 q 920 -65 925 -81 q 907 -25 915 -50 q 904 -18 906 -21 q 863 47 882 49 q 847 28 849 47 q 852 -18 846 10 q 867 -74 858 -46 q 884 -126 876 -101 q 892 -157 892 -150 m 651 740 q 640 589 647 615 q 638 582 639 585 q 635 577 636 579 q 631 573 633 575 q 626 570 629 571 q 620 569 624 569 q 613 568 617 568 q 558 603 578 567 q 560 665 538 639 q 566 674 563 669 q 572 681 569 678 q 576 687 574 683 q 579 692 578 690 q 583 699 581 694 q 587 706 586 704 q 590 715 588 708 q 594 724 593 721 q 599 735 596 726 q 604 747 603 743 q 646 826 631 810 q 658 836 656 836 l 651 740 m 717 742 q 754 668 732 717 q 783 596 776 619 q 778 557 789 571 q 745 544 767 544 q 704 554 724 543 q 686 578 689 564 q 681 663 679 603 q 690 751 682 724 q 694 763 692 760 q 717 742 700 768 m 639 465 q 633 363 642 372 q 618 358 631 360 q 565 366 599 358 q 511 383 532 374 q 492 438 486 396 q 531 535 500 494 q 556 550 540 547 q 616 535 594 560 q 639 465 638 510 m 775 513 q 785 508 782 510 q 792 505 789 507 q 796 501 794 503 q 799 493 797 499 q 796 419 807 471 q 771 351 785 368 q 753 342 767 346 q 685 381 706 329 q 678 451 678 400 q 689 517 678 503 q 775 513 707 532 m 635 186 q 619 204 629 186 q 607 224 613 218 q 576 251 601 229 q 539 288 550 274 q 522 319 522 308 q 533 337 521 333 q 560 336 544 340 q 633 314 606 331 q 644 299 640 308 q 648 283 647 290 q 650 257 649 276 q 635 186 651 186 m 736 294 q 729 261 738 281 q 711 238 721 242 q 699 237 706 233 q 692 249 693 240 q 696 293 686 268 q 714 311 701 306 q 736 294 736 319 "},"三":{"ha":1361,"x_min":104,"x_max":1265,"o":"m 107 767 q 111 756 107 760 q 254 746 129 739 q 611 761 549 761 q 741 768 686 760 q 897 801 796 776 q 1042 832 997 826 q 1084 839 1067 836 q 1124 847 1101 842 q 1156 863 1146 853 q 1164 883 1167 872 q 1128 903 1161 897 q 1069 906 1096 908 q 1004 897 1049 904 q 421 825 661 840 q 293 810 363 821 q 181 800 229 799 q 125 794 144 801 q 107 767 106 788 m 1051 529 q 933 517 1010 525 q 795 503 856 510 q 676 491 735 497 q 596 482 618 485 q 221 410 385 456 q 190 403 213 408 q 155 394 167 397 q 128 384 143 390 q 110 369 114 378 q 110 351 106 361 q 154 339 117 336 q 191 346 167 339 q 244 360 215 353 q 290 371 272 368 q 653 415 403 390 q 889 435 786 429 q 1053 449 1004 442 q 1174 507 1179 467 q 1051 529 1168 543 m 1092 172 q 644 117 924 156 q 243 57 365 79 q 153 38 174 44 q 121 8 118 25 q 251 0 126 -26 q 297 8 275 6 q 635 33 383 18 q 1079 72 922 50 q 1207 100 1175 85 q 1244 131 1225 108 q 1247 163 1264 153 q 1178 174 1232 171 q 1092 172 1125 176 "},"上":{"ha":1361,"x_min":-8,"x_max":1374,"o":"m 433 542 q 475 479 433 508 q 508 475 483 474 q 625 467 538 476 q 829 461 754 450 q 982 500 964 481 q 976 518 988 506 q 945 544 960 538 q 901 554 931 551 q 782 547 865 557 q 660 544 724 540 q 574 542 606 547 q 533 535 544 535 q 497 549 515 535 q 475 565 482 563 q 447 564 460 571 q 433 542 433 557 m -7 371 q -6 360 -6 360 q -1 358 -4 360 q 6 356 1 357 q 309 248 132 297 q 644 175 486 199 q 774 169 688 168 q 911 179 860 171 q 1121 240 1001 192 q 1294 315 1250 293 q 1361 361 1346 340 q 1364 388 1372 379 q 1336 397 1356 397 q 1229 372 1301 397 q 1172 343 1201 363 q 1135 321 1146 326 q 1096 307 1125 315 q 797 260 963 265 q 550 271 682 256 q 311 328 457 281 q 257 344 276 339 q 10 383 119 388 l -7 382 l -7 371 "},"下":{"ha":1361,"x_min":11,"x_max":1346,"o":"m 428 622 q 218 561 307 603 q 202 553 207 556 q 190 546 197 551 q 178 535 183 540 q 163 517 174 529 q 138 492 147 499 q 107 472 129 486 q 47 435 63 449 q 18 390 25 417 q 32 368 13 368 q 153 428 63 369 q 258 479 199 457 q 394 517 318 501 q 551 542 469 533 q 719 549 633 550 q 876 535 804 547 q 909 531 886 533 q 953 526 932 528 q 995 520 975 524 q 1024 515 1015 517 q 1157 454 1067 501 q 1263 406 1226 418 q 1324 393 1301 392 q 1344 411 1346 397 q 1325 443 1343 425 q 1252 494 1310 456 q 1158 553 1194 533 q 976 624 1083 596 q 758 657 868 651 q 723 657 729 656 q 687 656 717 658 q 650 653 657 653 q 613 649 643 653 q 575 645 582 646 q 538 640 568 644 q 501 633 507 635 q 464 627 494 632 q 428 622 433 622 m 457 307 q 429 296 442 303 q 382 235 357 249 q 442 240 394 228 q 460 244 453 243 q 478 245 467 244 q 495 245 489 246 q 524 244 501 244 q 563 242 547 243 q 711 240 654 238 q 850 254 806 243 q 893 289 894 265 q 881 307 893 300 q 804 321 861 317 q 630 324 743 326 q 457 307 517 321 "},"不":{"ha":1361,"x_min":363,"x_max":1003,"o":"m 668 592 q 661 573 668 586 q 652 551 654 560 q 657 528 650 542 q 667 428 653 475 q 699 344 675 401 q 713 307 711 315 q 719 228 719 278 q 710 136 718 178 q 707 112 707 114 q 703 94 707 110 q 661 -26 688 28 q 656 -40 656 -37 q 664 -51 656 -49 q 678 -47 672 -54 q 700 4 685 -36 q 725 82 714 39 q 733 107 732 106 q 750 140 742 108 q 759 217 760 172 q 749 299 758 263 q 734 338 746 308 q 711 396 722 368 q 700 425 700 424 q 686 506 685 469 q 689 528 686 517 q 693 561 692 540 q 716 659 694 601 q 749 732 738 717 q 758 738 754 739 q 769 722 761 736 q 776 710 774 714 q 782 703 778 707 q 789 699 786 700 q 801 691 792 697 q 819 679 811 685 q 860 651 846 663 q 887 617 875 639 q 900 567 899 594 q 889 503 901 532 q 855 412 865 449 q 849 331 844 375 q 881 253 853 288 q 889 236 888 243 q 893 224 889 228 q 907 219 897 221 q 951 131 947 153 q 953 120 953 125 q 953 106 953 115 q 951 8 958 64 q 935 -63 947 -15 q 918 -126 924 -111 q 892 -189 903 -164 q 882 -212 882 -210 q 883 -221 881 -217 q 891 -226 886 -225 q 901 -226 896 -228 q 919 -199 907 -225 q 933 -169 924 -190 q 949 -131 942 -147 q 957 -112 956 -115 q 992 -15 982 -72 q 992 104 1003 42 q 975 161 982 144 q 947 213 968 178 q 933 239 935 233 q 915 264 929 254 q 888 302 899 275 q 879 357 878 329 q 913 478 881 403 q 928 508 925 507 q 938 525 931 511 q 947 547 944 539 q 950 579 951 563 q 949 597 950 592 q 915 656 940 628 q 846 715 889 683 q 792 758 803 747 q 763 797 768 781 q 763 824 761 806 q 765 863 764 842 q 767 888 767 885 q 760 921 765 901 q 745 964 754 940 q 735 996 736 988 q 732 1003 733 999 q 729 1012 731 1008 q 726 1020 728 1015 q 724 1028 725 1025 q 722 1037 722 1032 q 720 1044 721 1042 q 720 1051 719 1047 q 722 1057 721 1054 q 724 1062 722 1060 q 728 1065 725 1064 q 793 1078 736 1069 q 822 1085 811 1079 q 825 1108 851 1096 q 735 1111 790 1118 q 658 1094 679 1104 q 646 1089 653 1090 q 582 1074 628 1086 q 504 1058 529 1058 q 490 1057 494 1058 q 482 1053 485 1056 q 478 1046 479 1051 q 483 1029 475 1033 q 508 1026 490 1025 q 593 1043 542 1026 q 664 1060 638 1056 q 690 1024 679 1049 q 713 944 703 996 q 725 853 724 893 q 694 701 728 774 q 678 674 686 683 q 661 659 671 665 q 629 642 651 653 q 529 550 578 619 q 482 433 492 497 q 483 282 472 368 q 490 230 485 271 q 499 164 496 189 q 504 103 501 139 q 504 40 507 68 q 493 -10 501 11 q 492 -17 492 -14 q 469 -58 492 -21 q 385 -183 446 -94 q 377 -194 382 -189 q 371 -203 372 -200 q 367 -210 369 -207 q 365 -217 365 -214 q 364 -222 364 -219 q 369 -233 364 -229 q 381 -235 374 -236 q 392 -229 388 -235 q 503 -61 447 -151 q 521 -37 510 -51 q 540 -6 532 -22 q 551 65 553 25 q 538 147 550 93 q 519 250 524 206 q 558 504 507 389 q 592 564 575 543 q 640 599 610 585 q 668 592 667 611 "},"丑":{"ha":1361,"x_min":400,"x_max":960,"o":"m 436 418 q 449 421 444 418 q 456 427 454 424 q 463 439 458 431 q 482 515 471 457 q 501 593 493 574 q 526 615 510 611 q 710 606 574 626 q 796 560 779 594 q 796 511 804 540 q 725 396 783 471 q 709 375 721 392 q 683 339 697 358 q 655 300 668 319 q 632 268 642 281 q 622 256 622 256 q 564 192 576 193 q 563 225 556 192 q 599 357 571 261 q 603 406 606 386 q 585 424 601 425 q 557 399 571 424 q 539 351 551 388 q 502 238 528 319 q 465 128 476 157 q 440 -1 435 39 q 465 -17 444 -28 q 497 15 479 -10 q 525 54 501 19 q 544 81 539 74 q 558 99 550 89 q 571 114 567 110 q 591 135 575 118 q 622 168 607 151 q 645 192 628 174 q 667 217 663 211 q 687 238 672 222 q 707 260 701 253 q 724 279 713 267 q 741 300 735 292 q 756 319 747 308 q 773 341 765 331 q 788 363 781 351 q 801 392 796 374 q 818 427 808 413 q 839 436 828 442 q 857 382 843 435 q 867 319 865 349 q 864 243 868 293 q 861 192 864 229 q 858 145 858 156 q 858 110 857 135 q 861 60 858 86 q 885 -71 863 40 q 908 -182 908 -182 q 919 -219 913 -204 q 936 -221 926 -235 q 955 -130 951 -200 q 951 -10 958 -60 q 943 210 944 58 q 943 248 943 224 q 943 279 943 272 q 942 303 943 286 q 941 324 942 319 q 939 342 940 329 q 936 362 938 356 q 932 382 935 368 q 926 408 929 396 q 918 438 922 419 q 894 550 896 514 q 894 565 894 560 q 895 576 894 569 q 896 583 896 582 q 897 591 896 585 q 899 599 899 597 q 903 608 900 600 q 908 619 907 615 q 918 667 918 644 q 871 874 922 779 q 821 944 850 911 q 756 1005 792 978 q 679 1053 721 1032 q 592 1088 638 1074 q 476 1104 518 1108 q 463 1103 468 1104 q 453 1101 457 1101 q 447 1096 450 1100 q 442 1090 443 1092 q 438 1082 440 1089 q 435 1072 436 1075 q 433 1058 435 1068 q 429 1042 431 1047 q 408 897 417 979 q 410 764 400 814 q 417 736 413 746 q 431 729 422 728 q 456 782 446 739 q 467 856 460 800 q 488 976 478 946 q 512 1015 497 1006 q 558 1021 526 1024 q 724 935 639 1013 q 838 781 808 858 q 847 703 849 753 q 826 642 846 653 q 819 638 822 639 q 813 637 815 638 q 806 637 810 636 q 799 638 801 638 q 793 640 797 638 q 788 644 789 643 q 781 647 786 644 q 774 651 775 650 q 663 679 731 675 q 557 675 642 681 q 419 650 431 667 q 419 632 417 644 q 419 586 424 613 q 406 469 404 503 q 413 430 407 443 q 436 418 418 417 "},"且":{"ha":1361,"x_min":304,"x_max":1056,"o":"m 636 1053 q 562 954 592 1010 q 501 813 532 899 q 481 658 476 743 q 496 506 482 603 q 504 439 503 464 q 463 210 510 344 q 410 -4 418 85 q 396 -85 406 -54 q 353 -119 386 -115 q 324 -125 338 -121 q 308 -142 304 -132 q 328 -164 311 -153 q 363 -178 349 -175 q 417 -179 376 -181 q 557 -167 451 -179 q 719 -152 676 -154 q 882 -154 763 -150 l 936 -156 l 983 -154 q 1039 -150 1031 -151 q 1053 -144 1051 -149 q 1051 -124 1056 -140 q 1007 -31 1042 -85 q 983 12 992 -7 q 935 121 974 31 q 896 210 914 171 q 868 293 874 258 q 863 393 863 328 q 864 441 864 413 q 864 481 864 469 q 865 510 864 492 q 867 540 865 528 q 871 568 868 551 q 876 606 874 585 q 881 722 889 671 q 839 854 872 781 q 798 938 814 910 q 753 999 782 965 q 692 1061 710 1049 q 674 1069 683 1065 q 664 1070 665 1068 q 656 1069 663 1072 q 649 1065 650 1065 q 643 1058 649 1064 q 636 1053 638 1053 m 688 1007 q 782 843 739 922 q 818 750 810 794 q 826 694 826 711 q 817 569 828 678 q 799 460 808 486 q 787 441 793 446 q 764 438 781 436 q 628 440 657 442 l 582 439 q 563 450 567 444 q 535 583 551 463 l 529 622 l 528 642 q 528 671 526 663 q 586 868 533 757 q 649 997 638 979 q 665 1022 661 1019 q 671 1025 669 1024 q 676 1023 672 1026 q 681 1018 679 1019 q 685 1012 682 1017 q 688 1007 688 1007 m 792 385 q 803 353 800 376 q 794 324 807 329 q 736 317 786 322 q 574 308 607 304 q 551 319 554 311 q 560 382 543 343 q 575 386 563 388 q 710 393 593 383 q 792 385 778 399 m 808 267 q 833 215 819 256 q 899 65 858 142 q 934 7 910 46 q 969 -54 958 -32 q 973 -60 971 -56 q 977 -69 975 -65 q 982 -77 979 -72 q 985 -84 985 -82 q 985 -87 986 -86 q 950 -89 982 -90 q 722 -90 874 -85 q 579 -92 613 -93 q 506 -99 563 -90 q 444 -108 450 -108 q 429 -99 432 -108 q 429 -81 426 -90 q 436 -64 432 -71 q 456 -19 449 -44 q 469 44 460 -6 q 499 163 483 113 q 524 229 514 214 q 553 256 536 250 q 601 261 561 260 q 704 271 658 264 q 722 272 708 271 q 740 274 735 274 q 756 276 744 275 q 772 276 767 276 q 785 276 778 276 q 799 272 793 275 q 808 267 804 269 "},"丘":{"ha":1361,"x_min":260,"x_max":1104,"o":"m 1024 690 q 1019 670 1022 681 q 1015 653 1017 660 q 1008 636 1013 646 q 1001 621 1004 626 q 992 605 999 615 q 984 590 986 594 q 974 573 982 586 q 963 556 965 560 q 893 433 910 471 q 861 342 881 404 q 819 219 832 247 q 782 172 800 181 q 667 154 740 157 q 618 154 633 153 q 591 164 603 156 q 569 189 579 172 q 531 267 551 222 q 497 335 511 313 q 450 401 483 358 q 350 553 378 493 q 328 631 328 596 q 326 647 328 644 q 308 672 325 651 q 286 699 292 693 q 270 695 275 707 q 265 668 265 683 q 271 632 265 656 q 274 579 276 607 q 260 343 264 475 q 260 327 260 332 q 260 321 260 322 q 260 318 260 319 q 261 310 261 317 q 263 292 261 303 q 285 156 265 203 q 326 106 299 121 q 394 92 354 90 q 492 99 435 93 q 503 99 499 99 q 714 108 543 103 q 1004 122 976 118 q 1063 148 1047 129 q 1083 213 1079 167 q 1083 247 1083 213 q 1081 318 1082 281 q 1081 363 1081 356 q 1091 441 1082 376 q 1100 518 1100 506 q 1096 628 1103 558 q 1081 728 1089 699 q 1067 758 1074 750 q 1040 747 1053 775 q 1024 690 1028 719 m 1044 507 l 1042 476 q 1033 386 1038 426 q 1025 301 1032 372 q 1014 204 1018 229 q 1011 191 1013 199 q 1010 182 1010 183 q 1008 178 1010 181 q 1003 174 1006 175 q 996 172 1001 174 q 955 164 976 167 q 909 161 933 161 q 872 170 885 161 q 864 197 858 179 q 908 315 868 215 q 938 394 932 378 q 946 419 942 408 q 957 443 950 431 q 967 461 964 456 q 982 483 971 467 q 996 504 993 500 q 1025 547 1021 543 q 1031 549 1028 549 q 1044 508 1039 549 l 1044 507 m 338 450 q 446 290 351 431 q 499 213 492 222 q 514 179 513 192 q 501 153 514 160 q 428 141 474 140 q 354 151 382 142 q 314 250 311 167 q 322 329 314 253 q 329 410 329 406 q 328 427 329 414 q 326 451 326 440 q 325 463 325 463 q 333 456 328 464 q 338 450 336 451 "},"丙":{"ha":1361,"x_min":68,"x_max":1297,"o":"m 1000 1119 q 631 1093 867 1104 q 439 1081 608 1092 q 219 1067 269 1069 q 160 1067 215 1067 q 138 1068 154 1067 q 112 1069 121 1069 q 91 1066 103 1068 q 74 1058 79 1064 q 69 1040 68 1051 q 72 1031 69 1035 q 97 1006 75 1024 q 121 976 119 988 q 114 910 124 965 q 110 828 108 876 q 108 754 110 808 q 106 685 106 700 q 101 508 106 624 q 97 368 97 393 q 94 200 93 243 q 94 14 96 171 q 93 -42 94 -4 q 92 -109 92 -81 q 94 -164 92 -137 q 108 -242 99 -219 q 115 -255 113 -250 q 124 -263 118 -260 q 136 -267 129 -267 q 160 -251 153 -265 q 185 -112 182 -204 q 187 -90 185 -100 q 193 -65 189 -79 q 199 -43 197 -50 q 210 -11 203 -26 q 226 13 218 4 q 249 40 233 22 q 256 47 253 44 q 339 182 314 111 q 375 271 351 213 q 461 478 390 306 q 581 751 544 676 q 624 835 621 832 q 653 822 638 850 q 694 774 663 807 q 828 629 736 731 q 1046 396 1011 428 q 1114 351 1076 368 q 1142 338 1133 343 q 1160 322 1151 332 q 1172 296 1168 311 q 1178 196 1174 290 q 1182 97 1181 101 q 1224 -50 1193 17 q 1260 -101 1243 -92 q 1268 -104 1264 -104 q 1292 32 1296 -104 q 1278 201 1289 86 q 1257 506 1267 317 q 1235 788 1250 622 q 1215 1010 1219 954 q 1213 1031 1214 1019 q 1210 1049 1211 1043 q 1212 1060 1210 1054 q 1219 1072 1214 1067 q 1232 1090 1229 1083 q 1231 1101 1233 1096 q 1222 1110 1229 1107 q 1208 1115 1214 1113 q 1190 1119 1201 1117 q 1000 1119 1118 1133 m 1096 1043 q 1108 1015 1104 1039 q 1119 865 1117 960 q 1122 814 1122 814 q 1125 763 1122 814 q 1131 676 1128 713 q 1136 618 1133 639 q 1144 559 1139 597 q 1154 489 1150 521 q 1156 463 1157 474 q 1151 446 1156 451 q 1138 441 1147 440 q 1114 451 1128 442 q 1085 476 1097 461 q 1057 507 1075 488 q 1032 535 1039 526 q 843 744 931 649 q 797 797 826 763 q 742 858 767 831 q 694 906 717 886 q 675 925 678 922 q 650 985 647 961 q 651 995 650 992 q 656 1001 653 999 q 663 1003 660 1003 q 675 1006 667 1004 q 690 1008 683 1007 q 832 1029 783 1025 q 925 1039 861 1032 q 1014 1047 989 1046 q 1096 1043 1076 1051 m 547 899 q 535 865 542 882 q 522 835 528 847 q 508 801 517 822 q 492 756 500 781 q 363 429 465 682 q 269 206 271 207 q 243 166 265 196 q 217 132 221 136 q 203 129 206 125 q 199 150 200 133 q 198 183 197 158 q 197 226 199 207 q 196 521 197 239 q 197 694 196 533 q 196 865 197 854 q 197 938 193 922 q 201 949 200 944 q 208 958 203 954 q 214 964 213 963 q 224 967 215 965 q 235 969 232 969 q 250 971 238 969 q 268 972 263 972 q 362 981 300 975 q 443 989 424 988 q 465 992 451 990 q 490 995 479 994 q 508 996 501 996 q 561 969 554 996 q 547 899 568 942 "},"丞":{"ha":1361,"x_min":260,"x_max":1103,"o":"m 800 1053 q 817 935 801 1021 q 831 835 832 853 q 806 772 826 774 q 785 790 794 772 q 763 846 776 806 q 724 926 742 911 q 697 936 711 939 q 692 933 694 935 q 688 928 689 932 q 685 923 686 925 q 685 916 685 921 q 686 908 686 911 q 688 901 686 906 q 690 893 689 896 q 692 885 690 890 q 693 882 693 883 q 728 789 700 858 q 758 700 757 715 q 749 660 761 671 q 742 658 744 660 q 734 662 739 657 q 726 669 729 667 q 717 680 724 672 q 708 692 711 688 q 699 706 704 697 q 690 721 693 715 q 682 735 688 726 q 674 747 676 743 q 667 760 672 751 q 658 776 661 769 q 648 791 654 782 q 638 804 642 800 q 628 814 635 808 q 619 817 622 819 q 611 814 617 815 q 606 785 604 799 q 612 748 607 772 q 617 711 617 724 q 603 649 614 668 q 565 644 593 629 q 524 699 539 658 q 521 722 519 713 q 543 779 524 735 q 560 824 558 810 q 549 852 561 839 q 525 864 536 865 q 490 822 511 861 q 472 799 478 799 q 444 839 464 799 q 415 940 429 868 q 400 1014 404 999 q 372 1068 389 1061 q 343 1053 356 1075 q 332 1004 331 1031 q 350 935 333 981 q 394 833 361 903 q 447 710 438 743 q 456 667 454 685 q 450 626 456 651 q 449 415 429 524 q 458 378 453 392 q 470 359 464 364 q 485 360 476 354 q 503 404 499 367 q 503 449 503 411 q 501 488 503 488 q 499 550 497 490 q 517 622 500 622 q 537 610 518 622 q 576 583 556 599 q 601 557 596 567 q 609 536 607 549 q 612 506 611 524 q 612 477 613 489 q 610 443 611 465 q 608 414 608 421 q 606 355 606 374 q 618 313 607 336 q 628 285 628 292 q 624 263 628 275 q 600 226 618 253 q 578 178 583 201 q 576 107 574 156 q 594 15 578 46 q 617 -8 603 -1 q 651 -4 632 -15 q 700 59 667 7 q 749 128 733 111 q 786 153 769 151 q 793 151 790 153 q 798 148 796 150 q 802 142 800 146 q 805 135 804 138 q 808 128 806 133 q 821 75 814 113 q 834 18 831 29 q 860 -35 838 7 q 866 -48 861 -39 q 872 -60 871 -57 q 877 -72 874 -64 q 881 -84 881 -79 q 881 -95 881 -89 q 878 -107 881 -101 q 871 -118 875 -112 q 819 -154 856 -137 q 743 -178 783 -171 q 676 -175 700 -186 q 625 -126 653 -164 q 558 -10 604 -96 q 501 92 518 68 q 466 128 486 114 q 428 169 446 142 q 325 546 304 346 q 321 724 340 692 q 303 733 314 735 q 267 626 269 731 q 283 331 260 456 q 367 121 306 207 q 417 65 383 97 q 467 13 451 33 q 483 -14 474 1 q 510 -60 492 -29 q 593 -179 560 -147 q 768 -226 660 -243 q 919 -168 850 -214 q 1026 -62 989 -122 q 1057 8 1044 -32 q 1090 200 1081 94 q 1092 449 1103 331 q 1068 586 1082 558 q 1038 610 1053 613 q 1014 536 1011 606 q 1019 475 1015 507 q 1029 279 1033 378 q 985 0 1021 97 q 944 -60 963 -60 q 921 -40 932 -61 q 885 71 907 -14 q 856 164 867 139 q 838 201 844 189 q 820 222 831 213 q 797 226 810 231 q 768 204 785 221 q 759 192 765 200 q 745 176 753 185 q 729 156 738 167 q 712 134 721 144 q 694 114 703 124 q 676 97 685 104 q 660 86 668 90 q 647 83 653 82 q 636 88 640 83 q 633 172 622 107 q 710 286 646 243 q 772 336 751 314 q 788 361 785 350 q 790 393 792 372 q 764 492 788 421 q 746 572 747 542 q 769 622 744 610 q 781 624 775 628 q 788 617 786 621 q 793 606 789 614 q 822 522 801 588 q 853 436 843 456 q 872 413 863 417 q 883 411 879 410 q 890 419 888 413 q 893 432 892 425 q 893 447 894 439 q 885 501 893 469 q 868 560 878 532 q 850 608 858 588 q 831 663 833 643 q 833 690 829 678 q 840 708 836 701 q 854 728 843 714 q 886 782 881 763 q 890 829 890 797 q 874 971 890 888 q 863 1016 869 994 q 849 1062 857 1038 q 830 1097 840 1086 q 810 1101 819 1108 q 802 1091 804 1097 q 800 1076 800 1085 q 800 1053 800 1067 m 663 358 q 665 401 661 369 q 668 444 669 428 q 657 513 667 461 q 656 521 657 515 q 660 635 636 633 q 681 603 667 635 q 717 496 699 561 q 736 401 735 431 q 711 344 738 372 q 690 331 701 335 q 671 334 679 328 q 663 358 663 340 "},"並":{"ha":1361,"x_min":279,"x_max":1082,"o":"m 474 608 q 476 599 476 608 q 476 571 476 583 q 475 551 475 558 q 472 532 475 543 q 467 515 468 521 q 460 492 465 510 q 451 465 454 475 q 438 419 449 456 q 415 342 426 382 q 392 266 403 303 q 378 219 381 229 q 299 -42 301 -31 q 279 -100 281 -92 q 285 -111 279 -106 q 330 -122 297 -122 q 396 -118 363 -122 q 503 -117 429 -115 q 614 -112 578 -118 q 628 -104 625 -111 q 628 -47 631 -99 q 624 -1 626 -8 q 618 40 621 14 q 613 83 615 67 q 568 350 594 189 q 546 507 547 476 q 551 574 543 550 q 588 581 560 597 q 660 582 658 540 q 611 663 660 615 q 575 711 583 690 q 571 754 571 724 q 564 925 569 814 q 561 978 563 974 q 547 996 557 988 q 526 1000 538 1004 q 508 985 514 994 q 503 960 503 975 q 504 926 503 946 q 506 871 508 910 q 503 817 503 832 q 499 764 503 785 q 488 726 496 743 q 463 692 479 710 q 430 651 456 683 q 399 613 404 619 q 386 586 385 597 q 396 569 388 568 q 436 589 400 569 q 474 608 472 608 m 494 304 q 550 36 507 247 q 558 -18 558 -8 q 553 -40 557 -36 q 488 -47 549 -43 q 408 -51 424 -50 q 379 -50 383 -53 q 379 -10 371 -44 q 450 226 383 7 q 475 310 474 306 q 492 319 481 321 l 494 304 m 708 622 q 725 628 715 624 q 793 657 788 657 q 798 656 796 657 q 801 653 800 656 q 803 648 803 651 q 805 640 804 644 q 806 629 806 635 q 806 615 806 624 q 806 599 806 607 q 807 578 807 590 q 808 554 807 565 q 814 456 810 513 q 819 357 818 399 q 813 296 821 325 l 801 265 q 774 188 790 235 q 740 94 757 142 q 707 6 722 46 q 686 -49 692 -35 q 683 -72 679 -65 q 725 -106 690 -85 q 740 -111 732 -110 q 752 -112 747 -112 q 774 -112 757 -112 q 800 -112 790 -112 q 943 -115 894 -111 q 992 -121 960 -117 q 1040 -125 1024 -125 q 1082 -111 1082 -124 q 1076 -92 1081 -106 q 1042 -42 1067 -68 q 1032 -29 1035 -35 q 956 206 1026 -18 q 942 246 950 222 q 930 281 933 269 q 922 313 926 293 q 914 354 917 332 q 899 455 908 390 q 883 558 889 519 q 878 629 875 622 q 897 625 882 639 q 903 619 901 621 q 988 558 925 603 q 1006 549 994 553 q 1028 542 1017 544 q 1048 544 1040 539 q 1056 565 1056 550 q 1024 622 1053 592 q 918 706 1017 629 q 881 735 883 733 q 871 754 874 743 q 870 810 871 760 q 870 862 869 861 q 869 914 871 863 q 861 993 867 985 q 844 1006 857 1000 q 821 1008 832 1011 q 810 1002 813 1006 q 808 985 808 999 q 808 979 808 981 q 810 839 806 878 q 806 794 811 813 q 776 749 799 778 q 731 690 754 719 q 700 646 707 661 q 708 622 689 622 m 929 -35 l 908 -35 q 844 -36 886 -36 q 792 -33 797 -37 q 781 -14 782 -28 q 782 -6 781 -8 l 803 51 q 847 165 825 108 q 872 222 869 222 q 882 191 872 222 q 907 111 892 160 q 926 47 922 63 q 944 -11 943 -6 q 929 -35 944 -26 "},"中":{"ha":1361,"x_min":203,"x_max":1149,"o":"m 808 1115 q 835 1026 808 1094 q 858 961 854 979 q 851 936 863 940 q 817 935 842 935 q 761 936 793 935 q 728 938 729 938 q 697 933 710 936 q 669 924 685 931 q 621 903 653 918 q 603 894 618 901 q 583 884 588 886 q 566 876 579 882 q 546 869 553 871 q 528 866 539 868 q 508 865 517 864 q 490 869 499 867 l 468 878 q 353 886 351 925 q 361 871 353 879 q 426 840 382 853 q 511 825 469 828 q 551 828 532 822 q 618 858 572 833 q 656 878 647 874 q 754 902 693 894 q 857 893 815 910 q 881 848 874 883 q 885 779 889 813 q 878 756 881 756 q 864 758 878 756 q 776 767 821 768 q 610 715 688 764 q 583 706 596 706 q 439 729 540 704 q 369 739 390 740 q 347 734 356 739 q 346 719 339 729 q 425 684 357 704 q 532 661 493 664 q 578 663 554 658 q 611 675 601 667 q 643 696 617 682 q 849 728 742 750 q 881 717 872 722 q 899 696 890 711 q 911 653 911 672 q 894 621 911 633 q 810 603 875 610 q 721 583 740 594 q 706 563 710 578 q 701 490 701 542 q 704 407 701 438 q 718 353 710 368 q 754 340 726 339 q 811 354 772 340 q 871 372 853 369 q 911 363 896 375 q 926 302 926 342 q 915 226 925 263 q 900 203 911 207 q 774 193 844 189 q 701 190 722 196 q 658 175 671 182 q 615 143 646 168 q 556 106 576 111 q 463 97 506 94 q 383 104 451 97 q 301 113 314 111 q 221 104 240 114 q 213 86 210 99 q 228 74 217 74 q 259 76 236 74 q 293 79 282 79 q 382 72 300 79 q 476 64 464 64 q 503 60 488 63 q 529 58 518 58 q 553 63 543 60 q 567 68 563 65 q 580 76 572 71 q 593 85 588 81 q 607 93 597 86 q 626 108 617 100 q 646 124 635 115 q 663 136 657 132 q 667 139 663 136 q 672 142 671 142 q 676 145 672 143 q 681 147 679 147 q 685 149 682 147 q 690 151 688 150 q 695 151 692 151 q 701 151 699 151 q 708 151 704 151 q 806 154 731 147 q 914 142 890 163 q 933 69 932 126 q 929 24 935 38 q 920 11 925 14 q 908 10 915 8 q 885 15 901 11 q 786 4 844 26 q 663 -60 713 -24 q 610 -92 626 -85 q 565 -101 594 -99 q 436 -89 525 -106 q 333 -72 347 -72 q 268 -74 296 -68 l 249 -79 q 222 -106 204 -94 q 410 -132 244 -119 q 474 -139 433 -133 q 492 -142 478 -140 q 508 -144 506 -143 q 522 -146 511 -144 q 535 -147 532 -147 q 547 -147 539 -146 q 559 -146 556 -147 q 570 -143 563 -144 q 583 -140 578 -142 q 596 -135 589 -137 q 616 -128 601 -133 q 639 -118 631 -122 q 648 -112 640 -118 q 665 -101 656 -107 q 685 -87 675 -94 q 704 -75 696 -81 q 715 -68 713 -69 q 736 -61 726 -62 q 854 -26 751 -58 q 888 -24 874 -22 q 916 -37 907 -26 q 926 -60 925 -47 q 928 -104 928 -74 q 928 -112 928 -110 q 935 -193 929 -171 q 946 -215 940 -208 q 965 -221 951 -222 q 978 -219 975 -221 q 1000 -183 982 -217 q 1010 -159 1011 -164 q 994 -139 1010 -154 q 979 -120 982 -128 q 972 -89 976 -112 q 968 -22 969 -64 q 967 108 967 18 q 967 243 968 199 q 966 331 964 299 q 986 373 968 363 q 1049 378 1004 383 l 1074 374 l 1088 375 q 1136 403 1125 376 q 1145 444 1142 414 q 1149 505 1149 474 q 1146 563 1149 536 q 1140 594 1143 582 q 1131 615 1138 606 q 1115 628 1125 624 q 1089 636 1106 633 q 1042 634 1076 638 q 1003 631 1007 631 q 960 640 974 631 q 942 672 947 649 q 925 786 933 701 q 901 965 914 910 q 838 1132 872 1111 q 826 1135 832 1135 q 817 1133 821 1135 q 811 1126 814 1131 q 808 1115 808 1121 m 1099 578 q 1108 481 1114 564 q 1101 438 1106 450 q 1081 422 1097 426 q 1039 415 1061 418 q 994 415 1017 413 q 965 428 971 418 q 957 501 958 444 q 961 578 954 557 q 981 590 964 586 q 1023 593 999 594 q 1070 588 1047 592 q 1099 578 1093 583 m 915 568 q 922 483 919 544 q 921 418 924 422 q 859 398 917 411 q 778 383 801 385 q 762 385 764 383 q 756 399 760 386 q 744 461 747 425 q 750 519 743 497 q 775 553 757 540 q 826 574 793 567 q 856 578 836 575 q 885 582 875 581 q 908 584 901 586 q 915 568 914 582 "},"丸":{"ha":1361,"x_min":440,"x_max":919,"o":"m 763 1024 q 744 965 756 1008 q 742 952 744 963 q 738 939 739 942 q 735 928 738 936 q 731 916 732 919 q 726 906 729 913 q 721 897 724 900 q 715 889 718 893 q 706 882 711 885 q 697 878 701 879 q 550 731 613 844 q 537 713 539 713 q 525 703 535 713 q 457 575 472 644 q 479 414 442 496 l 481 386 q 525 133 483 264 q 584 -18 549 58 q 650 -137 619 -94 q 701 -187 683 -183 q 718 -174 718 -192 q 686 -121 717 -156 q 658 -58 667 -97 q 661 0 653 -25 q 689 54 669 25 q 771 143 708 81 q 832 208 815 186 q 860 247 850 231 q 875 285 869 264 q 879 333 881 306 q 869 358 879 342 q 817 421 857 383 q 781 460 790 447 q 786 531 765 479 q 809 572 792 546 q 840 619 826 599 q 862 668 854 640 q 861 721 869 696 q 858 729 860 725 q 856 736 857 733 q 853 743 856 739 q 850 749 851 747 q 846 755 849 751 q 842 760 843 758 q 838 765 842 761 q 833 771 833 769 q 827 778 832 772 q 819 785 822 783 q 779 833 792 815 q 768 875 763 861 q 781 885 774 885 q 811 867 785 885 q 869 835 853 840 q 904 836 893 825 q 886 871 918 850 q 828 914 851 892 q 806 942 811 929 q 792 1036 796 965 l 790 1058 q 763 1024 775 1049 m 717 846 q 742 799 721 824 q 783 756 764 774 q 815 713 803 739 q 814 660 828 686 q 798 633 810 649 q 774 604 786 618 q 749 574 763 590 q 729 542 736 557 q 721 508 722 526 q 729 472 719 489 q 756 438 736 460 q 797 394 775 417 q 824 368 818 372 q 844 329 844 342 q 840 303 846 321 q 785 215 828 263 q 717 149 764 193 q 663 99 678 114 l 651 86 l 642 68 q 619 32 625 36 q 592 50 606 24 q 567 118 579 76 q 553 164 556 160 q 528 274 546 179 q 515 393 515 340 q 522 429 515 415 q 558 492 524 431 q 581 556 579 526 q 571 625 583 586 q 559 676 560 664 q 572 721 558 689 q 708 856 632 829 q 715 857 714 857 q 717 846 715 857 m 536 574 q 521 530 532 553 q 499 515 510 507 q 488 567 482 528 q 513 617 494 607 q 534 611 528 626 q 536 574 540 596 "},"丹":{"ha":1361,"x_min":372,"x_max":989,"o":"m 843 886 q 869 675 844 860 q 874 622 875 631 q 785 556 869 564 l 721 554 q 592 553 656 553 q 496 554 528 553 q 464 575 474 556 q 446 650 451 597 q 438 814 443 669 q 421 857 436 847 q 402 860 414 863 q 386 851 390 858 q 376 822 382 846 q 374 753 372 806 q 390 482 375 701 q 398 294 393 440 q 403 113 403 147 q 404 -40 400 -18 q 439 -90 413 -90 q 451 -83 446 -89 q 458 -69 457 -76 q 463 -50 460 -62 q 464 -44 464 -46 q 475 118 482 38 q 471 189 471 178 q 479 225 472 211 q 500 236 482 229 l 518 238 q 628 233 531 238 q 832 233 768 228 q 893 236 885 238 q 909 230 903 235 q 917 212 915 225 q 920 191 919 199 q 922 163 921 183 q 931 -8 926 18 q 947 -50 935 -44 q 972 -32 964 -57 q 982 28 979 -7 q 988 92 988 82 q 964 431 989 115 q 943 711 944 672 q 936 826 938 814 q 917 888 931 872 q 888 907 906 899 q 857 911 871 915 q 843 886 843 907 m 872 504 q 892 454 882 492 q 902 417 899 432 q 909 379 906 403 q 910 341 913 356 q 900 313 908 326 q 875 294 892 299 q 810 288 865 293 q 728 289 792 286 q 549 307 667 292 q 493 317 508 311 q 478 324 481 319 q 467 411 463 351 q 493 472 469 457 q 578 493 517 488 q 648 500 601 496 q 733 508 694 504 q 789 513 771 511 q 872 504 863 518 m 618 386 q 624 386 621 386 q 757 388 689 372 q 796 426 811 400 q 747 451 786 444 q 684 456 721 456 q 610 448 647 457 q 575 418 574 439 q 618 386 576 397 "},"乃":{"ha":1361,"x_min":489,"x_max":878,"o":"m 661 1043 q 574 974 628 1024 q 497 894 519 924 q 491 874 490 885 q 504 865 492 864 q 518 872 510 865 q 606 935 539 893 q 701 981 672 976 q 724 978 714 982 q 742 965 733 975 q 754 946 750 954 q 767 919 758 938 q 814 804 808 826 q 806 700 828 749 q 749 615 796 681 q 722 578 728 588 q 708 433 683 515 q 739 360 718 406 q 760 107 785 256 q 708 -183 742 -1 q 702 -217 701 -204 q 718 -229 703 -231 q 726 -228 724 -229 q 731 -224 729 -228 q 734 -218 733 -221 q 736 -208 735 -215 q 739 -197 738 -201 q 771 -64 750 -156 q 785 -8 776 -44 q 800 51 794 28 q 813 108 806 74 q 822 168 819 142 q 825 226 825 194 q 821 286 825 257 q 796 379 817 308 q 775 451 781 426 q 771 508 769 476 q 786 571 772 539 q 821 635 793 589 q 860 706 853 686 q 864 806 876 751 q 832 910 861 817 q 793 1021 804 999 q 661 1043 753 1097 "},"之":{"ha":1361,"x_min":382,"x_max":981,"o":"m 601 1024 q 626 929 603 997 q 658 813 653 857 q 667 656 674 725 q 621 554 661 588 q 536 494 561 507 q 478 535 496 474 q 465 601 474 550 q 451 686 456 672 q 421 718 440 718 q 400 661 400 717 q 424 503 400 603 q 465 369 447 404 q 497 256 485 332 q 535 140 506 204 q 562 63 546 115 q 588 -33 578 10 q 599 -81 599 -75 q 585 -96 597 -89 q 490 -128 567 -107 q 401 -157 415 -149 q 382 -175 382 -167 q 422 -189 383 -182 q 499 -194 482 -196 q 554 -176 515 -193 q 572 -169 563 -174 q 585 -162 582 -164 q 593 -159 589 -161 q 603 -157 597 -157 q 614 -156 610 -157 q 632 -153 618 -154 q 657 -149 646 -151 q 801 -126 776 -132 q 958 -64 911 -106 q 969 -54 964 -60 q 976 -45 974 -49 q 978 -42 979 -42 q 943 -40 975 -39 q 851 -53 914 -40 q 749 -68 783 -67 q 716 -68 729 -68 q 694 -66 703 -68 q 680 -59 685 -64 q 674 -44 675 -54 q 685 17 672 -25 q 722 203 703 74 q 740 414 738 311 q 738 506 742 461 q 735 593 731 565 q 763 650 739 621 q 865 779 857 767 q 949 993 943 892 q 949 1014 950 1001 q 949 1026 949 1026 q 939 1018 947 1028 q 931 1010 935 1014 q 925 1003 928 1007 q 921 996 922 999 q 917 990 919 993 q 914 983 915 986 q 910 974 913 979 q 907 965 908 969 q 903 953 906 961 q 899 940 900 946 q 867 868 882 894 q 769 731 811 774 q 742 713 751 711 q 731 781 728 714 q 729 828 732 817 q 713 878 728 838 l 700 911 q 701 939 700 925 q 696 975 704 961 q 643 1057 671 1029 q 610 1064 621 1075 q 601 1024 599 1053 m 658 399 q 648 258 660 342 q 619 151 636 174 q 614 147 617 147 q 609 148 611 147 q 606 150 607 149 q 603 153 604 151 q 601 158 601 154 q 599 163 600 161 q 597 169 599 165 q 596 176 596 174 q 594 184 596 179 q 593 192 593 189 q 565 261 588 222 q 535 324 542 303 q 531 382 524 357 q 555 418 535 394 q 596 457 575 442 q 633 470 619 476 q 651 447 646 464 q 658 399 657 431 "},"乎":{"ha":1361,"x_min":451,"x_max":911,"o":"m 796 1021 q 800 997 796 1018 q 810 951 801 992 q 826 871 818 910 q 833 832 833 832 q 846 825 838 824 q 857 827 853 825 q 861 835 861 829 q 860 847 861 842 q 857 864 860 851 q 829 1007 832 994 q 818 1033 824 1031 q 803 1033 810 1038 q 796 1021 796 1028 m 621 908 q 628 876 621 906 q 667 690 639 824 q 674 654 672 657 q 689 644 678 644 q 704 654 700 644 q 697 706 707 658 q 653 914 658 897 q 635 925 649 928 q 621 908 621 922 m 453 771 q 458 750 453 769 q 482 663 465 726 q 513 561 507 571 q 524 556 515 556 q 531 558 528 556 q 535 565 535 561 q 534 575 535 569 q 532 586 533 581 q 528 597 531 592 q 524 607 526 601 q 521 615 522 613 q 475 779 475 778 q 464 785 472 785 q 453 771 451 783 m 753 486 q 790 185 794 358 q 763 -117 788 71 q 761 -153 758 -147 q 776 -160 765 -161 q 789 -150 788 -158 q 806 -17 793 -133 q 818 125 815 61 q 783 493 831 338 q 779 515 781 500 q 857 572 806 538 q 901 603 894 597 q 908 611 907 608 l 908 613 q 903 628 911 622 q 886 629 896 633 q 828 591 871 621 q 767 544 786 561 q 754 535 763 540 q 738 524 746 529 q 729 518 731 519 q 725 511 725 514 l 725 508 l 710 497 q 625 431 650 453 q 579 386 582 393 q 579 372 576 379 q 608 378 588 357 q 690 449 643 411 q 742 483 735 483 q 753 486 746 483 "},"乗":{"ha":1361,"x_min":510,"x_max":854,"o":"m 746 75 q 763 57 750 75 q 794 26 783 26 q 800 64 818 25 q 767 117 792 81 q 736 167 743 151 q 724 217 729 183 q 722 247 724 238 q 724 274 719 257 q 729 299 728 292 q 738 323 731 307 q 750 346 746 339 q 763 368 754 353 q 826 492 804 443 q 847 549 842 525 q 817 578 854 590 q 809 578 813 576 q 803 584 806 579 q 800 592 801 589 q 797 604 799 596 q 796 608 797 607 q 792 632 794 619 q 789 646 789 644 q 785 654 789 647 q 781 663 782 661 q 771 676 781 664 q 733 721 761 690 q 693 772 704 754 q 681 815 686 786 q 681 850 675 844 q 697 845 685 854 q 722 825 708 836 q 742 814 736 814 q 760 822 753 814 q 764 840 768 829 q 717 889 760 851 q 683 925 688 915 q 683 1004 676 943 q 682 1049 686 1035 q 660 1056 678 1063 q 645 1044 650 1053 q 640 1027 640 1036 q 638 999 639 1018 q 638 993 638 994 q 632 932 636 943 q 611 906 629 926 q 554 813 578 865 q 546 789 549 800 q 564 774 542 763 q 601 811 576 779 q 617 831 617 831 q 628 844 625 840 q 635 849 631 847 q 640 846 639 851 q 642 829 642 840 q 638 759 644 785 q 610 693 632 733 q 579 635 583 644 q 574 612 575 625 q 568 597 572 599 q 542 602 561 594 q 521 610 522 610 q 515 590 511 610 q 542 526 519 564 q 597 443 565 488 q 638 383 629 399 q 678 260 675 319 q 675 222 679 236 q 650 158 671 208 q 617 76 622 93 q 609 56 611 63 q 606 40 607 49 q 606 25 604 31 q 614 18 608 19 q 620 17 617 15 q 626 19 624 18 q 633 25 629 21 q 638 32 636 29 q 644 40 640 35 q 649 49 647 46 q 654 58 651 53 q 658 67 657 64 q 670 85 665 79 q 678 86 675 92 q 700 -97 689 49 q 708 -161 704 -143 q 726 -183 715 -183 q 738 -171 733 -183 q 747 -90 744 -149 q 748 -47 749 -50 q 740 3 747 -43 q 746 75 729 74 m 685 708 q 717 674 699 700 q 772 571 751 625 q 782 517 786 532 q 751 439 776 492 q 713 371 726 386 q 700 361 704 361 q 653 457 694 363 q 648 470 651 463 q 643 481 644 478 q 640 488 642 483 q 637 494 638 493 q 634 499 636 496 q 630 503 632 501 q 626 506 628 504 q 621 511 624 508 q 599 560 594 533 q 627 639 601 585 q 667 706 653 693 q 676 711 672 711 q 685 708 681 711 "},"乙":{"ha":1361,"x_min":521,"x_max":840,"o":"m 522 1046 q 524 1024 524 1033 q 528 1003 525 1014 q 534 986 532 992 q 543 965 536 981 q 553 942 550 950 q 596 799 572 893 q 644 642 624 685 q 669 539 671 588 q 647 453 668 501 q 603 315 624 394 q 579 182 583 235 q 578 122 578 154 q 627 -56 582 17 q 754 -194 672 -129 q 824 -229 801 -232 q 838 -217 836 -228 q 833 -194 840 -207 q 819 -169 826 -181 q 803 -151 811 -158 q 771 -112 793 -139 q 735 -72 749 -86 q 654 242 614 57 q 688 343 669 317 q 703 360 690 347 q 724 383 719 376 q 732 403 728 389 q 747 569 760 492 q 707 732 736 653 q 662 863 701 747 q 617 993 622 978 q 581 1068 594 1050 q 543 1089 565 1090 q 522 1046 521 1088 "},"九":{"ha":1361,"x_min":465,"x_max":892,"o":"m 682 1093 q 692 1038 683 1079 q 707 961 701 996 q 709 892 713 926 q 688 849 706 858 q 666 843 676 840 q 651 851 656 846 q 636 871 646 857 q 568 936 622 893 q 485 985 507 985 q 472 976 474 986 q 476 957 471 965 q 521 908 486 940 q 596 832 569 864 q 622 783 622 799 q 594 744 621 767 q 550 711 583 733 q 491 668 506 681 q 472 644 476 656 q 477 623 465 629 q 508 617 489 617 q 569 638 544 618 q 610 689 583 647 q 633 721 625 713 q 648 732 642 729 q 661 733 654 735 q 674 728 668 732 q 688 718 679 725 q 758 633 722 690 q 798 556 790 585 q 794 497 806 528 q 688 349 772 449 q 615 261 636 289 q 579 206 592 231 q 565 181 574 196 q 553 159 557 167 q 542 138 549 151 q 533 117 535 125 q 528 93 532 108 q 526 65 525 78 q 528 31 528 53 q 552 -67 533 -14 q 594 -147 571 -121 q 653 -195 611 -165 q 714 -231 694 -225 q 758 -215 739 -237 q 787 -149 776 -192 q 803 -68 797 -107 q 811 8 808 -29 q 805 99 814 56 q 774 143 796 143 q 747 111 758 142 q 736 7 742 92 q 710 -114 729 -96 q 656 -81 692 -132 q 613 18 622 -33 q 611 64 608 42 q 636 157 615 110 q 706 274 657 204 q 753 329 725 303 q 822 396 764 342 q 856 428 850 422 q 881 474 871 444 q 892 529 892 504 q 887 560 892 550 q 863 590 882 571 q 853 599 860 593 q 846 607 847 606 q 840 613 844 608 q 835 620 836 618 q 830 629 833 622 q 823 643 826 636 q 814 661 819 650 q 785 714 797 699 q 756 742 783 715 q 729 768 729 768 q 719 804 717 792 q 739 838 722 817 q 758 879 754 857 q 763 983 767 922 q 746 1079 758 1044 q 713 1124 732 1114 q 688 1124 694 1133 q 682 1093 681 1115 "},"乞":{"ha":1361,"x_min":82,"x_max":1278,"o":"m 933 801 l 799 797 q 515 785 665 792 q 331 774 364 778 q 302 772 322 774 q 258 770 282 771 q 210 768 233 769 q 169 766 188 767 q 147 765 151 765 q 100 756 114 761 q 93 742 83 747 q 163 724 96 740 q 223 707 213 710 q 270 697 233 704 q 326 689 307 689 q 381 689 346 689 q 456 693 417 689 q 851 729 718 721 q 931 735 861 731 q 1035 742 1000 739 q 1067 747 1044 743 q 1112 756 1089 751 q 1143 761 1135 760 q 1207 786 1207 769 q 1150 807 1207 797 q 933 801 1115 814 m 628 742 q 622 744 625 742 q 617 751 619 747 q 618 757 615 754 l 624 758 l 628 742 m 379 433 q 389 425 379 429 q 522 400 421 410 q 647 393 563 396 q 694 392 665 393 q 737 390 722 390 q 774 391 751 390 q 818 393 796 392 q 872 406 854 397 q 874 431 890 414 q 781 456 856 447 q 610 468 681 468 q 465 461 551 469 q 379 433 378 453 m 199 99 q 253 71 200 76 q 388 68 279 68 q 967 69 858 72 q 1104 75 1039 68 q 1257 108 1222 89 q 1271 131 1276 119 q 1239 149 1265 142 q 1164 158 1204 157 q 1067 156 1124 158 q 951 158 1031 156 q 814 163 871 161 q 696 163 757 165 q 492 143 621 158 q 328 122 364 128 q 290 119 317 119 q 269 119 285 119 q 244 119 254 119 q 222 117 233 119 q 205 110 211 115 q 199 99 199 106 "},"乳":{"ha":1361,"x_min":257,"x_max":1108,"o":"m 681 731 q 626 715 660 729 q 538 672 596 701 q 432 601 464 638 q 426 506 385 553 q 454 481 443 488 q 497 465 465 475 q 508 463 501 464 q 519 460 515 461 q 530 456 524 458 q 540 453 536 454 q 547 448 543 451 q 553 442 551 444 q 558 434 556 439 q 560 424 560 429 q 542 399 560 403 q 510 401 531 397 q 471 410 489 406 q 437 415 453 414 q 414 405 421 415 q 414 369 407 394 q 428 347 417 354 q 453 336 440 339 q 492 332 467 333 q 546 322 533 328 q 565 305 557 317 q 577 277 574 293 q 578 244 581 261 q 486 154 564 165 q 409 137 439 147 q 382 106 379 126 q 417 78 385 78 q 481 92 432 76 q 542 107 525 107 q 563 102 554 107 q 575 92 571 97 q 582 72 579 86 q 585 48 585 57 q 586 18 586 39 q 586 8 586 14 q 588 -22 588 -11 q 592 -46 589 -32 q 601 -66 594 -60 q 619 -72 608 -72 q 638 -66 631 -72 q 649 -48 646 -60 q 655 -25 653 -36 q 656 5 657 -14 q 653 35 654 24 q 650 67 653 46 q 650 74 650 72 q 649 143 643 124 q 683 178 654 163 q 728 194 685 178 q 775 213 772 211 q 833 278 796 225 q 864 321 843 293 q 924 397 914 388 q 938 407 933 407 q 957 369 951 410 q 956 326 961 339 q 933 293 951 313 q 865 242 917 276 q 849 230 863 239 q 831 218 835 221 q 817 208 828 215 q 803 197 806 200 q 791 187 800 194 q 778 175 782 179 q 768 164 775 171 q 757 151 761 157 q 748 137 753 144 q 739 121 743 129 q 722 75 732 106 q 705 7 713 44 q 706 -58 697 -31 q 743 -83 715 -85 q 821 -51 772 -83 q 885 -5 822 -50 q 953 44 947 40 q 1004 74 990 69 q 1011 72 1008 75 q 1015 65 1014 68 q 1018 54 1017 61 q 1020 6 1021 32 q 1017 -58 1019 -19 q 1015 -104 1015 -96 q 1042 -212 1017 -201 q 1055 -214 1050 -219 q 1062 -204 1060 -208 q 1067 -187 1064 -200 q 1069 -181 1068 -183 q 1093 -81 1090 -108 q 1083 156 1108 29 q 1071 193 1079 181 q 939 138 1043 242 q 872 79 917 114 q 807 36 828 44 q 792 38 794 31 q 797 63 790 44 q 842 131 811 104 q 928 194 872 158 q 1006 250 979 225 q 1040 313 1032 275 q 1043 371 1046 349 q 1025 431 1040 393 q 1004 494 1007 476 q 1015 596 997 526 q 1035 674 1033 665 q 1026 743 1039 710 q 992 792 1014 776 q 938 813 976 801 q 874 838 888 828 q 853 865 858 850 q 851 919 850 882 q 856 1003 853 956 q 858 1054 858 1050 q 857 1074 858 1065 q 853 1090 856 1082 q 844 1102 850 1099 q 829 1103 838 1106 q 807 1092 815 1100 q 795 1066 799 1083 q 791 1035 792 1049 q 790 994 790 1022 q 790 983 790 988 q 782 915 790 935 q 743 881 774 894 q 688 863 735 876 q 626 839 651 851 q 426 722 501 781 q 326 618 369 678 q 268 494 283 558 q 268 399 257 443 q 307 331 279 354 q 324 320 314 325 q 347 311 335 315 q 372 304 360 307 q 393 301 385 301 q 407 306 403 303 q 410 317 411 308 q 371 382 406 331 q 339 465 342 428 q 361 554 336 501 q 470 680 392 615 q 633 775 549 744 q 662 788 639 776 q 686 800 685 800 q 726 815 711 811 q 752 815 740 818 q 774 801 764 813 q 808 717 821 750 q 767 686 804 708 q 741 669 751 676 q 719 649 731 661 q 708 624 707 636 q 724 603 710 613 q 760 594 742 590 q 791 610 779 599 q 822 628 803 622 q 857 626 840 635 q 888 573 871 619 q 899 493 906 526 q 857 415 893 464 q 786 333 821 367 q 757 307 774 321 q 715 272 740 293 q 669 242 689 250 q 644 242 650 233 q 631 308 632 265 q 643 369 629 351 q 667 385 649 375 q 698 406 686 394 q 707 433 710 418 q 697 448 704 443 q 678 453 690 453 q 649 453 665 453 q 626 453 626 453 q 690 489 625 463 q 758 535 749 511 q 762 551 761 544 q 758 564 763 557 q 749 576 753 571 q 736 586 744 581 q 722 595 728 592 q 708 603 717 599 q 697 610 700 607 q 681 622 686 615 q 678 634 676 628 q 684 645 681 640 q 696 660 688 650 q 713 680 708 674 q 715 699 717 686 q 681 731 714 732 m 964 647 q 958 631 963 638 q 946 626 953 625 q 922 659 933 628 q 910 717 911 690 q 911 735 908 731 q 943 721 925 749 q 964 647 969 681 m 626 564 q 604 538 626 549 q 521 528 571 522 q 489 561 476 533 q 553 599 499 588 q 587 599 571 601 q 615 588 603 597 q 626 564 626 579 "},"亀":{"ha":1361,"x_min":417,"x_max":939,"o":"m 632 358 q 631 324 621 331 q 626 297 626 315 q 628 263 626 279 q 633 222 631 247 q 638 188 636 197 q 586 158 615 151 q 521 208 561 164 q 489 240 496 236 q 474 241 479 244 q 469 229 468 238 q 486 190 469 219 q 504 151 504 161 q 497 138 504 142 q 464 126 489 133 q 431 117 436 121 q 422 108 422 113 q 463 97 422 97 q 499 92 494 97 q 497 68 510 83 q 490 47 485 53 q 449 10 478 31 q 431 -2 433 0 q 429 -10 429 -4 q 436 -22 429 -19 q 453 -17 443 -24 q 501 22 482 1 q 511 29 508 29 q 538 53 521 29 q 553 81 539 56 q 580 117 568 107 q 610 129 592 126 q 640 126 631 132 q 646 114 643 125 q 657 53 653 93 q 660 33 658 46 q 664 9 663 19 q 665 -8 665 -1 q 671 -90 664 -44 q 686 -157 678 -136 q 692 -166 689 -162 q 696 -174 694 -169 q 729 -218 711 -204 q 736 -225 733 -222 q 756 -239 743 -236 q 782 -233 768 -242 q 826 -168 813 -212 q 822 -133 835 -140 q 789 -160 811 -128 q 757 -194 768 -192 q 751 -196 754 -197 q 747 -194 749 -194 q 742 -190 744 -193 q 737 -184 739 -186 q 733 -178 735 -182 q 729 -172 731 -174 q 726 -165 728 -169 q 724 -160 724 -161 q 714 -111 721 -136 q 702 -64 703 -72 q 708 -28 701 -56 q 710 -19 710 -21 q 713 -15 710 -17 q 813 79 757 17 q 827 93 825 93 q 832 96 829 93 q 842 108 833 97 q 858 126 851 118 q 865 138 864 135 q 871 147 865 140 q 901 199 892 172 q 906 207 903 204 q 924 246 918 219 q 926 269 926 258 q 928 289 925 281 q 935 349 935 318 l 935 367 q 939 381 939 375 q 933 400 939 389 q 931 464 932 404 l 928 524 q 922 539 924 531 q 917 578 922 550 q 916 603 914 593 q 913 629 918 614 q 894 655 907 647 q 865 657 881 663 q 858 652 860 654 q 855 649 856 650 q 851 647 854 649 q 843 642 849 644 q 804 621 831 636 l 788 611 q 775 616 779 613 q 769 624 771 619 q 763 636 767 628 q 761 638 763 638 q 758 644 761 640 q 754 649 756 647 q 749 708 750 665 q 743 754 746 749 q 731 758 739 758 q 717 747 718 757 q 718 693 714 736 q 725 643 722 650 q 726 633 726 636 q 728 615 726 632 q 728 597 731 599 q 695 551 722 571 q 643 551 668 531 l 642 567 q 640 586 642 568 q 637 626 639 604 q 633 669 635 647 q 633 705 632 690 q 638 719 633 719 q 657 724 643 721 q 688 740 675 729 q 707 759 700 750 q 726 790 714 768 q 758 835 749 828 q 782 863 776 850 q 788 883 786 872 q 786 903 789 893 q 778 921 783 913 q 764 935 772 929 q 760 940 760 939 q 740 965 760 942 q 679 1046 693 1021 q 671 1073 676 1051 q 663 1100 665 1094 q 658 1103 661 1101 q 651 1106 654 1106 q 643 1107 647 1107 q 638 1106 639 1107 q 629 1079 629 1101 q 633 1049 631 1067 q 633 1026 635 1031 q 626 1010 632 1021 q 604 988 619 1000 q 579 967 586 974 q 569 949 569 956 q 564 940 569 946 q 533 870 536 911 q 556 785 529 829 q 606 736 574 756 q 610 732 610 733 q 608 715 610 728 q 606 696 606 703 q 610 620 604 682 q 614 547 615 558 q 612 542 614 544 q 608 533 610 539 q 606 524 607 528 q 588 506 599 503 q 533 574 572 510 q 517 599 522 590 q 508 613 513 607 q 501 619 504 618 q 497 621 499 621 q 492 606 489 621 q 510 561 493 596 q 517 543 514 550 q 521 527 519 536 q 519 512 522 518 q 507 501 515 506 l 490 501 q 447 501 463 503 q 426 479 417 497 q 474 468 432 469 q 513 465 503 468 q 524 444 522 461 q 471 388 503 410 q 456 371 457 378 q 459 358 454 364 q 471 354 464 353 q 486 361 476 354 q 554 439 536 397 q 585 464 563 457 q 626 458 607 471 q 626 436 625 451 q 627 410 626 421 q 630 383 628 399 q 632 358 632 367 m 638 957 q 675 983 657 990 q 708 896 701 971 q 682 792 715 811 q 669 786 674 786 q 656 819 665 786 q 645 878 654 826 q 635 935 636 929 q 633 939 635 936 q 633 950 632 947 q 638 957 636 953 m 629 826 q 642 786 635 804 q 640 761 650 768 q 614 765 629 754 q 566 836 578 792 q 583 918 554 881 q 594 925 590 926 l 608 933 l 610 933 q 616 908 611 935 q 625 854 621 882 q 629 826 629 826 m 761 892 q 756 869 761 879 q 744 858 749 858 q 738 869 740 858 q 742 906 732 888 q 751 911 746 914 q 761 892 761 910 m 872 615 q 878 601 875 613 q 882 589 882 590 q 894 533 889 581 q 889 526 892 531 q 883 520 886 522 q 875 517 881 518 q 838 504 863 514 q 801 494 817 494 q 779 514 786 494 q 778 540 776 526 q 783 563 779 553 q 792 579 788 574 q 796 585 796 585 q 824 606 794 589 q 863 624 854 622 q 872 615 868 624 m 732 481 q 660 479 692 476 q 669 504 658 493 q 694 519 679 515 q 728 514 718 525 q 732 481 738 503 m 899 444 q 899 412 900 413 q 893 410 899 411 q 851 394 882 410 q 844 392 849 393 q 822 382 829 385 q 805 381 814 379 q 790 393 796 383 q 790 438 781 414 q 818 465 800 461 q 850 477 824 467 q 888 489 876 488 l 892 489 q 897 479 896 482 q 899 460 899 476 q 899 444 899 444 m 718 454 l 732 454 q 753 413 749 435 q 736 358 758 381 l 728 357 q 710 353 721 356 q 689 350 700 351 q 671 348 678 349 q 663 349 664 347 q 658 354 663 354 q 658 355 658 354 q 657 363 657 356 q 656 378 657 367 q 653 402 654 390 q 651 426 651 414 q 651 447 650 439 q 654 454 651 454 q 718 454 661 454 m 904 317 q 899 293 901 296 q 865 274 890 281 q 824 274 840 268 q 801 290 810 278 q 799 318 792 303 q 833 352 807 336 q 881 369 858 368 q 906 356 903 369 q 904 317 910 343 m 746 329 q 799 125 786 269 q 799 106 800 108 q 776 81 799 103 q 726 31 749 50 q 697 7 700 7 q 692 8 694 7 q 690 14 690 10 q 688 22 689 18 q 687 33 688 25 q 686 47 686 42 q 668 135 679 106 q 666 142 667 140 q 665 146 665 144 q 666 151 665 147 q 665 161 667 156 l 665 175 q 663 178 664 176 q 657 215 661 182 q 651 268 653 247 q 654 313 650 289 q 660 319 654 315 q 668 324 667 322 q 703 329 678 325 q 742 333 729 333 q 746 329 743 333 m 871 215 q 851 171 876 203 q 844 165 847 165 q 831 169 836 165 q 826 204 818 182 q 846 232 835 226 q 871 215 863 240 "},"事":{"ha":1361,"x_min":472,"x_max":885,"o":"m 740 1050 q 704 1033 718 1071 q 658 879 696 1011 q 628 975 651 889 q 615 1014 617 1011 q 596 1025 610 1025 q 590 1023 590 1024 q 589 1019 589 1022 q 590 1013 589 1015 q 618 847 601 907 q 633 782 629 813 q 638 747 636 767 q 638 701 639 726 q 631 658 638 675 q 611 642 624 642 q 539 644 592 640 q 517 654 521 644 q 515 724 514 658 q 515 781 515 775 q 510 793 515 786 q 499 800 504 800 q 495 794 499 800 q 490 786 492 789 q 478 585 472 726 q 485 532 479 553 q 506 489 493 501 q 550 474 519 476 q 628 465 619 467 q 632 464 631 464 q 635 461 633 464 q 637 456 636 458 q 638 444 638 453 q 642 348 639 421 q 647 254 646 275 l 647 233 q 663 192 660 210 q 664 186 664 189 q 678 172 669 169 q 686 203 690 176 q 681 289 681 235 q 699 263 688 281 q 753 144 724 224 q 760 122 760 128 q 738 89 760 110 q 715 64 717 68 q 713 44 713 56 q 719 27 713 33 q 735 26 726 21 q 753 42 742 31 q 774 63 765 54 q 783 69 782 71 q 807 11 789 63 q 842 -90 826 -39 q 847 -107 843 -93 q 854 -131 851 -121 q 861 -154 857 -142 q 869 -174 865 -167 q 876 -181 874 -181 q 883 -169 876 -181 q 883 -139 885 -154 q 881 -111 882 -124 q 877 -83 881 -99 q 872 -58 874 -67 q 866 -31 871 -49 q 860 -8 861 -14 q 851 16 858 -3 q 843 38 844 35 q 834 63 842 42 q 826 85 826 83 q 821 114 819 106 q 832 138 822 122 q 855 192 849 165 q 860 274 861 219 q 849 341 860 303 q 828 399 839 379 q 824 405 826 401 q 817 412 821 408 q 810 417 814 415 q 801 419 806 418 q 794 417 797 419 q 789 412 790 414 q 788 406 788 410 q 790 399 789 401 q 792 390 790 397 q 796 378 794 383 q 818 288 818 303 q 817 258 819 275 q 812 226 815 242 q 804 198 808 211 q 796 178 800 185 q 785 196 793 181 q 689 325 740 275 q 679 336 682 332 q 675 345 676 340 q 674 356 674 350 q 674 374 674 363 q 672 400 674 385 q 675 456 671 454 q 697 460 678 458 q 763 472 743 463 q 792 508 783 481 q 822 707 808 567 q 801 774 825 750 q 785 785 786 788 q 782 757 785 785 q 775 678 778 706 q 768 656 772 661 q 710 647 761 649 l 682 646 l 678 649 q 675 749 665 654 q 701 885 681 793 q 735 1014 721 978 q 740 1039 742 1028 l 740 1050 m 631 590 q 635 524 635 564 q 634 502 635 506 q 625 497 633 499 q 607 501 622 497 q 584 506 600 503 q 561 510 568 508 q 543 517 554 513 q 527 527 532 521 q 518 543 522 533 q 514 568 514 553 q 515 596 513 586 q 524 605 517 601 q 542 609 531 608 q 563 610 553 610 q 583 611 572 611 q 596 611 594 611 l 614 611 q 631 590 628 606 m 672 613 q 705 610 679 611 q 744 607 731 608 q 759 606 756 607 q 765 601 763 606 q 767 589 767 597 q 765 563 765 572 q 760 546 764 554 q 747 531 756 538 q 692 508 731 515 q 674 504 675 504 q 665 543 667 503 q 672 613 664 564 "},"二":{"ha":1361,"x_min":99,"x_max":1267,"o":"m 594 611 q 454 575 532 600 q 285 536 342 538 q 242 538 254 535 q 185 563 231 542 q 138 575 154 578 q 109 559 118 574 q 108 524 100 544 q 161 463 121 490 q 199 451 183 450 q 244 461 214 451 q 294 471 269 469 q 458 490 358 476 q 692 517 619 511 q 858 525 765 524 q 1140 550 1047 529 q 1207 568 1190 561 q 1225 581 1217 572 q 1233 594 1233 589 q 1181 618 1233 610 q 963 635 1118 629 q 844 632 921 636 q 697 622 767 628 q 594 611 628 615 m 1082 451 q 1040 447 1057 450 q 778 406 896 429 q 413 324 660 383 q 238 283 304 299 q 143 249 156 265 q 142 221 133 236 q 226 190 161 182 q 353 224 261 194 q 432 240 399 236 q 554 251 465 244 q 667 264 624 256 q 858 307 711 272 q 1026 344 979 335 q 1107 357 1068 353 q 1167 365 1149 363 q 1209 376 1185 368 q 1246 396 1233 383 q 1251 432 1267 415 q 1192 451 1239 446 q 1082 451 1144 456 "},"云":{"ha":1361,"x_min":407,"x_max":940,"o":"m 783 992 q 813 897 790 961 q 831 838 818 881 q 853 772 844 796 q 873 719 861 747 q 894 676 885 690 q 919 660 908 658 q 936 694 939 660 q 897 826 931 742 q 888 849 893 835 q 881 866 882 863 q 876 878 879 869 q 872 890 872 888 q 869 901 871 893 q 866 915 867 908 q 864 932 865 921 q 853 994 857 974 q 839 1041 849 1014 q 815 1079 829 1068 q 799 1086 808 1086 q 773 1060 775 1086 q 783 992 771 1033 m 636 1008 q 640 971 636 992 q 660 910 644 953 q 681 833 679 854 q 671 794 681 814 q 625 725 661 774 q 549 612 579 664 q 472 467 519 560 q 432 186 408 333 q 509 -15 450 78 q 646 -151 568 -107 q 706 -168 678 -169 q 790 -125 751 -167 q 857 25 838 -75 q 856 224 876 125 q 831 292 850 247 q 771 399 797 375 q 724 418 747 419 q 700 413 711 418 q 631 229 647 382 q 633 88 621 139 q 668 71 649 18 q 690 200 689 129 q 708 344 693 313 q 733 364 719 371 q 765 319 744 358 q 801 215 785 285 q 821 107 818 146 q 817 58 824 81 q 790 -12 811 33 q 760 -71 769 -58 q 715 -92 743 -90 q 660 -87 686 -94 q 610 -64 633 -79 q 557 -15 579 -46 q 488 261 482 90 q 564 561 493 421 q 681 713 610 654 q 700 725 696 725 q 707 719 703 726 q 722 673 713 710 q 744 614 732 636 q 778 599 757 592 q 792 635 797 606 q 775 688 789 649 q 767 708 769 701 q 760 726 764 715 q 756 740 757 738 q 753 756 756 743 q 749 775 750 769 q 744 801 747 781 q 738 836 740 822 q 694 1013 713 965 q 677 1044 690 1025 q 657 1065 664 1063 q 646 1056 651 1067 q 638 1031 640 1044 q 636 1008 636 1018 "},"五":{"ha":1361,"x_min":143,"x_max":1217,"o":"m 225 1100 q 165 1090 201 1097 q 149 1078 151 1088 q 151 1053 143 1063 q 177 1040 158 1044 q 213 1035 196 1036 q 256 1033 229 1033 q 294 1032 283 1032 q 323 1024 315 1029 q 339 1000 331 1018 q 390 897 363 946 q 529 671 460 778 q 607 544 581 592 q 624 510 618 522 q 631 489 629 499 q 633 464 633 479 q 614 344 635 419 q 554 172 601 297 q 525 88 532 113 q 507 3 518 63 q 483 -97 493 -71 q 450 -129 474 -121 q 393 -133 439 -132 q 336 -140 349 -135 q 304 -179 310 -149 q 302 -191 303 -186 q 303 -199 301 -196 q 305 -206 304 -203 q 309 -210 306 -208 q 315 -214 313 -212 q 322 -216 317 -215 q 331 -217 328 -217 q 342 -218 335 -218 q 354 -217 350 -218 q 367 -217 358 -217 q 389 -217 382 -217 q 402 -217 396 -217 q 410 -219 408 -218 q 419 -224 411 -219 q 432 -231 426 -228 q 464 -242 458 -240 q 490 -225 474 -242 q 528 -204 504 -211 q 574 -195 546 -199 q 627 -190 601 -192 q 692 -186 653 -187 q 753 -185 732 -185 q 816 -185 775 -185 q 865 -185 857 -185 q 940 -185 894 -185 q 1014 -185 985 -185 q 1081 -185 1043 -186 q 1147 -179 1118 -183 q 1207 -164 1200 -174 q 1215 -139 1215 -156 q 1192 -114 1214 -119 q 1125 -110 1176 -110 q 1081 -104 1092 -108 q 1013 -25 1056 -92 q 901 165 935 94 q 889 193 899 172 q 870 234 879 214 q 853 272 861 254 q 844 290 846 289 q 815 335 832 313 q 756 414 764 401 q 735 463 740 440 q 733 513 729 485 q 750 582 736 540 q 788 679 758 607 q 839 847 828 779 q 843 872 840 853 q 847 901 846 892 q 853 928 849 911 q 861 956 857 946 q 872 977 865 965 q 886 995 878 989 q 904 1004 894 1001 q 974 1002 917 1007 q 1046 999 1032 997 q 1071 1002 1065 1000 q 1076 1014 1076 1004 q 1052 1044 1076 1032 q 996 1061 1028 1056 q 940 1067 981 1064 q 675 1074 840 1072 q 563 1076 583 1075 q 440 1089 543 1078 q 225 1100 288 1104 m 483 1022 q 539 1013 494 1021 q 617 1011 556 1010 q 715 1013 683 1014 q 794 993 775 1010 q 801 980 801 988 q 792 953 801 972 q 776 899 785 936 q 696 626 736 740 q 681 590 683 594 q 676 588 679 588 q 653 619 672 588 q 613 681 640 640 q 517 828 582 722 q 447 947 463 914 q 431 1004 432 982 q 432 1011 431 1010 q 435 1013 433 1013 q 438 1015 436 1014 q 483 1022 444 1026 m 719 331 q 743 297 728 322 q 822 149 769 256 q 907 -10 876 38 q 944 -56 922 -35 q 967 -79 963 -72 q 972 -95 971 -87 q 967 -107 972 -103 q 957 -115 963 -111 q 939 -120 951 -118 q 919 -123 926 -122 q 899 -125 913 -124 q 767 -131 874 -126 q 674 -135 750 -131 q 588 -139 599 -139 q 567 -138 574 -139 q 552 -136 561 -137 q 540 -132 543 -135 q 533 -125 536 -129 q 529 -113 529 -121 q 532 -96 529 -106 q 575 -28 539 -72 q 599 7 599 0 q 594 22 599 10 q 590 44 592 35 q 588 58 589 53 q 589 71 588 64 q 592 81 590 78 q 597 97 593 85 q 604 115 601 108 q 654 267 650 244 q 657 289 656 275 q 665 333 660 324 q 683 346 672 344 q 702 342 693 347 q 719 331 711 338 "},"井":{"ha":1361,"x_min":239,"x_max":1128,"o":"m 947 -211 q 960 -201 953 -210 q 976 -111 978 -175 q 981 16 976 -90 q 985 143 985 122 q 986 178 985 172 q 995 206 988 201 q 1033 210 1003 211 q 1119 225 1110 206 q 1099 251 1128 239 q 1013 254 1075 263 q 972 285 982 251 q 969 401 963 319 q 972 416 969 403 q 976 444 974 429 q 979 480 978 460 q 981 515 981 500 q 979 543 981 529 q 978 560 978 554 q 979 572 978 567 q 984 577 981 576 q 994 579 988 578 q 1009 579 1000 581 q 1031 579 1018 578 q 1083 583 1072 581 q 1104 607 1106 590 q 1088 626 1104 621 q 1038 634 1071 632 q 1001 636 1006 636 q 967 653 974 642 q 956 703 960 665 q 957 839 953 733 q 958 875 958 861 q 965 954 960 890 q 969 1029 969 1018 q 950 1088 968 1079 q 921 1074 929 1097 q 899 889 907 1033 q 901 794 896 832 q 914 696 914 719 q 901 641 915 654 q 842 631 886 628 q 742 644 813 632 q 679 654 690 653 q 619 651 663 656 q 548 649 576 646 q 513 674 519 653 q 510 688 511 679 q 508 705 508 696 q 508 724 508 714 q 508 744 508 735 q 508 765 508 754 q 508 785 508 775 q 513 909 508 790 q 511 1040 518 1028 q 481 1086 503 1086 q 450 997 461 1085 q 453 686 433 881 q 452 660 453 661 q 433 657 451 660 q 332 638 424 656 q 311 633 328 636 q 285 628 294 631 q 263 623 275 626 q 246 614 251 619 q 240 603 240 608 q 243 593 240 599 q 285 567 256 568 q 358 578 314 565 q 417 592 401 590 q 456 578 446 594 q 469 524 465 563 q 472 488 471 508 q 475 443 474 467 q 478 394 476 419 q 480 347 479 369 q 480 306 481 325 q 479 276 479 288 q 464 244 476 256 q 422 229 454 238 q 397 224 403 225 q 364 201 364 211 q 380 194 364 194 q 418 194 396 193 q 435 194 425 194 q 449 195 444 194 q 461 195 454 196 q 470 194 468 194 q 477 192 472 193 q 482 188 482 190 q 485 183 482 186 q 488 174 489 179 q 488 163 486 169 q 488 149 490 157 q 493 75 488 139 q 513 -60 501 -21 q 519 -88 515 -68 q 526 -129 522 -108 q 531 -169 529 -150 q 533 -194 533 -187 q 535 -219 535 -210 q 542 -237 533 -232 q 560 -235 551 -243 q 565 -194 567 -229 q 556 -121 565 -167 q 549 -61 546 -65 q 553 4 560 -43 q 535 92 550 26 q 525 138 526 126 q 528 179 524 149 q 548 198 531 192 q 587 203 565 204 q 631 203 608 203 q 640 203 638 203 q 758 206 657 201 q 874 211 858 211 q 922 201 913 210 q 931 151 932 193 q 928 122 931 150 q 924 61 926 94 q 919 15 921 28 q 923 -75 918 -11 q 929 -147 928 -139 q 947 -211 931 -211 m 619 610 q 735 595 639 608 q 850 581 831 582 q 885 576 875 579 q 907 563 899 572 q 918 540 915 554 q 922 507 921 526 q 922 465 922 488 q 921 446 921 453 q 922 390 921 432 q 924 314 924 349 q 921 265 924 279 q 915 253 918 256 q 901 249 911 250 q 867 248 893 246 q 822 249 842 250 q 758 246 804 249 q 689 243 713 243 q 632 244 665 243 q 576 253 599 246 q 539 272 553 260 q 517 314 521 289 q 510 460 511 358 q 519 590 510 565 q 619 610 531 617 "},"亘":{"ha":1361,"x_min":243,"x_max":1108,"o":"m 764 1033 q 613 1015 704 1025 q 467 997 521 1004 q 381 990 456 996 q 293 981 306 983 q 260 971 265 976 q 269 938 243 957 q 332 911 299 914 q 563 908 451 903 q 900 960 779 922 q 919 965 907 961 q 935 971 931 969 q 949 974 940 972 q 965 977 957 976 q 983 978 972 978 l 1008 978 q 1018 993 1046 979 q 951 1015 999 1004 q 851 1032 904 1026 q 764 1033 797 1038 m 499 306 q 539 292 506 306 q 606 274 579 275 q 753 290 676 269 q 800 338 828 311 q 738 358 782 354 q 611 361 715 361 q 486 368 524 361 q 456 381 468 371 q 440 388 446 388 q 425 378 431 386 q 417 358 419 371 q 415 331 415 344 q 414 302 414 318 q 414 279 414 286 q 414 58 404 171 q 413 28 415 51 q 415 -1 411 4 q 464 -53 426 -31 q 749 -110 551 -106 q 914 -99 850 -112 q 939 -90 919 -97 q 968 -82 958 -82 q 986 -89 979 -82 q 990 -93 989 -92 q 992 -97 990 -94 q 993 -102 993 -99 q 993 -108 993 -106 q 994 -118 993 -111 q 994 -131 994 -125 q 994 -146 994 -136 q 996 -162 994 -158 q 1003 -165 997 -165 q 1018 -157 1010 -165 q 1056 -99 1044 -131 q 1096 75 1085 -15 q 1107 328 1106 150 q 1099 535 1107 439 q 1015 786 1079 731 q 996 800 1000 800 q 972 790 978 796 q 964 751 968 785 q 947 711 960 717 q 767 689 917 699 q 628 675 686 683 q 538 667 613 672 q 457 661 464 661 q 413 646 415 654 q 416 625 408 636 q 433 608 424 614 q 450 599 443 601 q 719 579 576 550 q 814 603 738 583 q 919 626 897 624 q 953 625 946 631 q 965 597 961 619 q 974 461 974 553 q 970 338 975 429 q 965 225 965 246 q 968 176 965 208 q 974 112 971 143 q 978 68 978 81 q 974 17 979 31 q 967 7 969 8 q 951 6 964 6 q 917 6 944 6 q 882 4 889 7 q 711 -15 763 -12 q 492 24 571 -22 q 478 36 482 29 q 476 51 475 43 q 482 76 476 60 q 481 151 486 92 q 476 257 475 210 q 499 306 478 304 "},"亙":{"ha":1361,"x_min":389,"x_max":972,"o":"m 649 875 q 556 864 578 865 q 494 867 533 863 q 421 867 440 871 l 417 865 q 390 844 389 860 q 407 815 390 822 q 430 810 415 811 q 458 808 444 808 q 495 810 472 808 q 531 814 518 813 q 572 819 544 815 q 608 825 599 824 q 619 825 614 828 q 628 824 625 822 q 636 822 632 826 q 642 819 640 818 q 647 814 644 819 q 651 808 650 808 q 656 802 653 808 q 659 794 658 796 q 662 786 660 793 q 665 778 664 779 q 696 659 685 732 q 706 515 707 586 q 713 313 704 429 q 724 100 722 168 q 719 32 725 43 q 692 4 710 8 q 625 3 674 0 q 489 -22 532 8 q 481 -37 481 -28 q 492 -51 481 -47 q 522 -49 497 -53 q 550 -46 546 -46 q 713 -54 588 -44 q 881 -62 838 -64 q 958 -49 935 -60 q 971 -33 972 -42 q 949 -14 971 -21 q 888 -11 942 -12 q 781 -6 793 -8 q 759 18 764 0 q 760 52 754 36 q 778 86 765 68 q 793 110 790 104 q 808 138 796 118 q 831 176 821 158 q 842 194 842 194 q 878 276 871 254 q 896 400 893 333 q 883 531 899 467 q 833 633 868 583 q 754 718 799 683 q 704 785 710 753 q 717 821 699 813 q 775 829 736 829 q 889 836 844 826 q 935 863 936 846 q 908 879 935 875 q 904 879 906 879 q 788 886 881 883 q 649 875 742 888 m 840 531 q 865 417 869 488 q 811 232 858 310 q 782 188 788 194 q 777 186 779 186 q 772 191 775 186 q 769 199 769 196 q 767 207 768 203 l 739 586 q 740 606 739 600 q 760 617 744 622 q 840 531 790 606 "},"亜":{"ha":1361,"x_min":282,"x_max":1079,"o":"m 892 921 q 858 942 890 943 q 786 940 794 940 q 675 944 768 940 q 532 950 582 949 q 415 946 451 951 q 399 936 411 946 q 393 917 392 924 q 417 901 394 910 q 451 889 439 892 q 482 882 464 886 q 501 868 496 878 q 515 811 513 849 q 513 739 517 774 q 501 689 510 704 q 456 648 493 669 q 390 619 418 626 q 365 616 376 615 q 347 624 353 617 q 342 646 340 632 q 336 696 346 674 q 308 719 326 718 q 285 696 288 722 q 288 644 282 669 q 306 449 297 567 q 308 374 308 424 q 308 304 308 324 q 310 270 310 282 q 315 243 311 258 q 325 222 318 228 q 343 215 332 215 q 354 219 350 215 q 359 228 358 224 q 360 244 360 233 q 361 249 361 247 q 367 281 363 278 q 381 283 371 285 q 442 250 410 282 q 471 210 454 239 q 499 159 485 188 q 524 99 513 131 q 536 49 535 67 q 531 22 536 32 q 517 10 525 13 q 489 4 508 7 q 482 3 483 3 q 378 -22 403 -11 q 360 -36 358 -29 q 376 -49 360 -43 q 411 -57 392 -56 q 544 -38 446 -60 q 660 -15 642 -17 q 724 -14 675 -14 q 826 -13 774 -14 q 903 -11 879 -12 q 975 3 939 -8 q 1010 35 1011 15 q 924 53 1008 64 q 836 46 903 50 q 794 44 819 46 q 757 43 769 43 q 726 42 744 43 q 696 39 708 40 q 667 35 683 38 q 636 28 651 32 q 602 22 617 22 q 585 35 588 22 q 575 85 581 46 q 508 271 557 200 q 488 292 497 285 q 436 311 474 300 q 382 329 396 322 q 354 368 361 342 q 343 456 346 401 q 344 546 340 510 q 350 565 347 560 q 361 575 353 569 q 433 596 378 583 q 479 607 469 604 q 524 638 504 617 q 554 692 543 660 q 569 763 565 724 q 565 831 572 803 q 561 846 564 838 q 556 860 558 854 q 553 871 554 865 q 553 879 551 876 q 561 885 556 882 q 633 890 575 888 q 703 886 692 892 q 717 815 711 882 q 736 710 719 768 q 811 586 761 625 q 839 571 825 575 q 890 563 853 567 q 926 558 917 560 q 951 551 936 557 q 974 538 967 546 q 996 435 993 513 q 990 369 997 394 q 987 360 989 364 q 981 353 985 357 q 972 345 978 349 q 957 336 967 342 q 933 326 951 333 q 896 312 915 319 q 858 297 876 304 q 833 286 839 290 q 808 268 819 278 q 783 226 789 247 q 775 156 778 206 q 792 76 771 75 q 815 108 806 76 q 828 175 821 126 q 835 224 832 211 q 840 239 838 235 q 892 269 849 250 q 963 294 936 289 q 992 296 983 299 q 1025 213 1004 292 q 1044 153 1039 163 q 1053 144 1049 144 q 1076 219 1072 146 q 1074 297 1078 256 q 1060 392 1069 339 q 1049 457 1051 444 q 1045 506 1047 468 q 1040 577 1043 543 q 1031 646 1036 611 q 1015 698 1025 681 q 990 708 1004 715 q 978 684 979 703 q 979 646 976 665 q 976 607 982 626 q 936 590 972 586 q 887 608 914 593 q 839 643 860 624 q 808 679 818 663 q 790 738 801 693 q 774 830 778 783 q 783 894 769 876 q 817 901 789 900 q 834 901 821 901 q 856 901 847 900 q 874 903 864 901 q 888 908 883 904 q 892 921 892 913 "},"亡":{"ha":1361,"x_min":401,"x_max":960,"o":"m 468 1058 q 476 996 464 1043 q 479 854 490 944 q 443 631 471 781 q 440 610 442 621 q 436 591 438 599 q 433 573 435 583 q 430 558 431 563 q 428 543 429 553 q 408 393 411 454 q 407 368 407 378 q 418 225 403 288 q 432 183 426 196 q 453 156 438 171 q 676 -31 468 140 q 746 -89 719 -65 q 921 -206 860 -187 q 951 -203 943 -212 q 951 -169 960 -193 q 914 -107 940 -132 q 860 -65 907 -100 q 753 15 813 -29 q 674 75 694 58 q 544 208 586 142 q 497 341 503 276 q 515 501 492 406 q 533 554 525 542 q 569 551 539 563 q 668 496 601 539 q 746 435 713 467 q 785 385 778 406 l 785 381 q 785 367 785 375 q 787 351 786 360 q 788 332 788 342 q 788 315 788 322 q 789 302 789 307 q 788 297 789 297 q 789 257 786 297 q 793 200 790 214 q 839 156 800 154 q 879 211 874 157 q 882 400 885 256 q 889 647 878 553 q 899 719 899 718 q 872 806 896 772 q 831 803 851 838 q 811 746 819 785 q 796 635 803 707 q 790 586 793 594 q 781 549 785 557 q 764 542 776 543 q 751 543 754 542 q 703 569 747 544 q 619 618 660 594 q 576 643 578 642 q 554 685 554 658 q 567 801 553 699 q 579 951 581 904 q 561 1035 576 1008 q 504 1067 546 1063 q 468 1058 471 1069 "},"交":{"ha":1361,"x_min":440,"x_max":922,"o":"m 658 1000 q 658 964 658 990 q 660 944 660 953 q 660 928 660 935 q 658 915 660 921 q 657 904 657 908 q 654 894 657 900 q 651 886 651 889 q 646 877 650 883 q 640 869 642 871 q 633 858 639 867 q 624 847 626 850 q 557 756 603 817 q 458 592 494 671 q 442 533 442 554 q 446 531 443 532 q 452 531 449 531 q 458 533 456 532 q 463 536 460 533 q 469 540 467 539 q 476 546 472 542 q 481 551 479 550 q 487 557 483 553 q 492 563 490 561 q 532 619 510 581 q 579 705 554 658 q 615 768 604 751 q 651 808 639 808 q 664 713 665 808 q 656 607 663 640 q 624 538 649 574 q 606 514 617 529 q 588 490 594 499 q 572 465 582 481 q 558 440 561 450 q 548 411 554 429 q 544 378 542 393 q 546 342 546 364 q 560 283 550 310 q 578 243 571 257 q 610 193 586 229 q 647 125 640 144 q 651 113 650 118 q 651 101 651 107 q 650 92 651 96 q 646 83 649 88 q 641 74 643 78 q 634 64 639 71 q 626 53 629 57 q 603 10 610 28 q 581 -47 597 -8 q 555 -117 565 -86 q 540 -176 544 -149 q 551 -171 543 -175 q 583 -146 569 -161 q 601 -120 596 -131 q 622 -76 607 -110 q 663 -6 649 -19 q 708 -7 685 19 q 744 -62 719 -19 q 831 -153 775 -114 q 839 -158 835 -156 q 865 -150 872 -178 q 846 -110 860 -132 q 789 -33 835 -90 q 732 47 743 24 q 717 129 710 89 q 750 210 721 153 q 780 275 771 250 q 788 334 789 300 q 772 408 788 368 q 758 440 771 415 q 735 489 746 465 q 724 513 724 513 q 707 569 710 543 q 713 660 704 589 q 718 732 718 708 q 728 770 719 769 q 756 742 738 771 q 785 692 761 733 q 856 574 831 610 q 892 533 878 544 q 911 525 903 524 q 919 538 918 526 q 917 563 921 549 q 910 588 914 576 q 901 606 906 600 q 856 683 888 633 q 792 768 843 704 q 721 867 738 838 q 707 901 710 889 q 707 949 704 914 q 686 1056 714 1028 q 675 1058 681 1061 q 658 1000 660 1047 m 692 494 q 723 425 707 472 q 738 344 739 378 q 733 308 738 329 q 723 267 729 288 q 709 227 717 247 q 693 193 701 207 q 679 177 686 181 q 667 180 672 174 q 657 196 661 186 q 649 222 653 206 q 629 266 643 240 q 602 316 615 292 q 585 358 589 340 q 583 394 581 383 q 604 429 586 404 q 665 510 656 504 q 692 494 676 515 "},"亥":{"ha":1361,"x_min":422,"x_max":936,"o":"m 794 1115 q 707 1093 778 1113 q 563 1044 592 1060 q 549 1026 551 1038 q 551 1002 546 1014 q 567 981 556 990 q 639 988 594 956 q 686 1008 667 1007 q 701 1004 696 1008 q 719 979 711 996 q 731 943 726 963 q 739 903 736 924 q 740 865 742 882 q 669 783 739 813 q 661 779 668 782 q 526 760 542 728 q 517 789 524 765 q 501 824 510 813 q 475 835 492 836 q 451 822 461 835 q 431 753 439 803 q 431 667 422 704 q 456 578 438 626 q 488 521 475 531 q 517 515 504 508 q 538 542 529 521 q 549 624 543 563 q 552 658 550 650 q 563 674 554 665 q 596 699 574 686 q 642 720 618 711 q 688 735 665 729 q 742 732 726 742 q 765 689 758 722 q 779 550 772 649 q 782 414 788 482 q 750 315 776 346 q 728 279 738 301 q 611 74 679 157 q 575 19 582 38 q 575 -6 569 3 q 594 -15 581 -15 q 621 -3 607 -14 q 671 67 638 11 q 708 104 683 86 q 741 131 735 124 q 761 165 747 138 q 792 222 779 207 q 806 235 799 232 q 822 231 817 239 q 828 204 826 222 q 815 78 835 147 q 728 -108 792 -7 q 718 -124 721 -119 q 709 -140 715 -128 q 701 -157 703 -151 q 696 -176 700 -162 q 694 -195 692 -189 q 696 -217 696 -201 q 709 -235 699 -229 q 733 -239 719 -240 q 758 -233 746 -237 q 778 -224 769 -229 q 838 -143 803 -204 q 931 172 911 -10 q 933 255 935 229 q 924 324 932 281 q 842 861 874 575 q 829 937 840 882 q 817 1018 818 992 q 817 1039 815 1032 q 824 1047 819 1046 q 849 1051 829 1049 q 868 1060 863 1053 q 867 1100 885 1082 q 794 1115 842 1124 "},"亦":{"ha":1361,"x_min":444,"x_max":925,"o":"m 660 1024 q 653 985 657 1014 q 648 955 650 961 q 638 938 646 949 q 565 856 626 922 q 506 789 519 806 q 464 731 475 751 q 451 703 453 711 q 465 688 447 683 q 525 726 494 694 q 550 761 538 739 q 613 853 593 832 q 651 857 643 886 q 653 814 654 850 q 653 744 651 790 q 649 532 656 600 q 625 429 642 465 q 586 366 617 411 q 550 306 556 321 q 540 267 544 289 q 535 227 536 246 q 533 178 533 208 q 534 130 533 147 q 537 76 535 113 q 540 24 539 39 q 535 -53 540 7 q 538 -129 531 -114 q 539 -133 539 -131 q 551 -144 543 -151 q 579 -81 567 -133 q 586 -18 585 -57 q 583 115 588 13 q 582 267 579 232 q 594 318 585 306 q 636 383 615 349 q 653 407 649 404 q 667 408 664 411 q 675 393 671 404 q 678 382 676 386 q 681 375 679 378 q 685 367 682 372 q 690 360 689 363 q 699 349 692 357 q 710 335 706 340 q 756 268 744 292 q 769 189 767 242 q 768 69 772 153 q 771 -66 764 -1 q 796 -160 778 -131 q 809 -169 803 -172 q 819 -160 815 -167 q 825 -144 824 -154 q 832 -87 831 -119 q 831 -27 833 -54 q 824 40 828 0 q 821 108 821 81 q 810 239 817 197 q 782 315 801 281 q 744 371 775 328 q 704 431 713 414 q 685 492 686 463 l 685 506 l 689 536 q 698 595 697 588 q 694 660 699 603 q 707 832 682 796 q 713 838 710 836 q 720 837 717 839 q 727 833 724 835 q 735 826 731 831 q 742 817 740 821 q 749 808 744 814 q 753 804 751 806 q 785 774 764 790 q 894 700 864 708 q 910 700 904 697 q 897 738 925 707 q 824 806 883 754 q 722 904 749 871 q 692 958 696 936 q 694 990 690 965 q 692 1031 697 1021 q 674 1040 683 1043 q 660 1024 664 1038 m 788 578 q 835 494 800 535 q 863 471 850 478 q 882 479 876 464 q 858 550 885 503 q 813 615 831 597 q 792 622 799 626 q 788 578 776 615 m 458 429 q 471 433 464 429 q 518 487 492 447 q 558 558 544 526 q 568 596 569 582 q 565 606 568 603 q 556 609 561 610 q 546 606 551 608 q 538 600 540 603 q 500 559 524 589 q 467 513 476 529 q 446 447 446 478 q 458 429 447 429 "},"享":{"ha":1361,"x_min":200,"x_max":1163,"o":"m 347 697 q 425 696 378 694 l 471 696 q 479 675 476 692 q 475 381 485 646 q 477 321 475 371 q 479 239 479 271 q 475 188 479 207 q 443 165 468 172 q 393 161 431 163 q 367 161 383 161 q 345 160 351 161 q 328 160 339 160 q 313 158 317 160 q 303 154 310 156 q 296 149 297 153 q 291 140 294 144 q 287 127 288 135 q 285 110 286 119 q 283 89 285 101 q 285 -2 282 25 q 304 -87 288 -29 q 306 -99 304 -92 q 310 -111 308 -107 q 313 -122 311 -115 q 315 -133 314 -129 q 316 -143 315 -137 q 317 -153 317 -149 q 315 -161 317 -157 q 312 -169 314 -165 q 307 -176 310 -174 q 301 -182 307 -178 q 290 -191 294 -186 q 286 -200 285 -196 q 313 -222 288 -218 q 379 -217 326 -225 q 429 -212 410 -211 q 542 -218 449 -212 q 635 -224 588 -221 q 807 -218 668 -225 q 992 -207 946 -211 q 1101 -196 1097 -197 q 1116 -187 1111 -192 q 1119 -175 1121 -183 q 1116 -162 1118 -167 q 1106 -143 1114 -157 q 1101 -133 1103 -137 q 1097 -124 1099 -128 q 1094 -113 1096 -119 q 1093 -103 1093 -107 q 1092 -90 1093 -100 q 1092 -76 1092 -81 q 1092 -56 1092 -71 q 1092 -33 1092 -42 q 1083 133 1090 90 q 1062 198 1076 178 q 1015 217 1047 218 q 972 206 1001 215 q 939 197 947 197 q 915 208 921 196 q 906 246 908 219 q 904 363 903 269 q 888 610 907 483 q 882 624 886 621 l 881 654 q 878 693 881 674 q 875 724 875 713 q 878 731 875 728 q 969 775 908 757 q 1103 818 1074 806 q 1144 840 1131 831 q 1157 855 1153 847 q 1158 869 1161 863 q 1140 874 1154 875 q 1076 858 1122 874 q 985 833 1007 835 q 954 843 960 833 q 933 863 951 849 q 869 906 914 876 q 781 971 807 946 q 754 995 769 982 q 722 1024 739 1008 q 643 1096 657 1086 q 604 1122 611 1122 q 603 1120 603 1122 q 610 1103 603 1118 q 626 1053 624 1069 q 625 1035 628 1042 q 583 989 619 1025 q 521 933 551 957 q 467 892 490 908 q 385 838 444 876 q 344 806 346 811 q 347 792 342 797 q 360 786 351 786 l 367 786 l 393 803 q 494 872 453 842 q 566 928 535 901 q 626 986 597 956 q 647 1007 644 1006 q 665 1010 660 1008 q 681 1006 671 1011 q 694 997 690 1000 q 707 985 699 993 q 733 960 726 964 q 747 953 743 953 q 758 944 747 953 q 853 876 786 919 q 894 849 883 856 q 925 825 924 828 q 925 819 926 824 q 909 795 922 804 q 882 783 896 786 q 840 776 868 779 q 794 767 813 772 q 767 761 775 763 q 738 754 763 760 q 694 745 713 749 q 665 742 675 742 q 573 738 642 743 q 483 729 504 733 q 431 728 481 729 q 372 726 381 726 q 365 727 371 726 q 356 728 360 728 q 346 729 351 729 q 339 729 340 729 l 224 742 q 210 740 213 742 q 203 735 204 739 q 203 726 201 731 q 210 717 204 721 q 254 697 224 706 q 314 689 285 688 q 347 697 333 689 m 849 701 q 853 633 851 688 q 856 565 854 578 q 861 383 860 510 q 853 207 863 240 q 839 192 850 194 q 760 185 818 186 q 672 181 725 185 q 585 178 618 176 q 544 184 556 178 q 532 214 533 190 q 540 279 531 233 q 545 328 546 315 q 538 406 544 342 q 532 590 526 514 q 561 687 536 658 q 650 713 586 715 q 662 711 657 713 q 669 710 667 710 q 732 722 676 710 q 794 734 788 735 q 813 733 800 733 q 828 731 825 732 q 838 728 832 731 q 845 719 843 725 q 849 701 847 713 m 864 140 q 918 149 885 142 q 979 158 965 157 q 1017 147 1006 158 q 1035 106 1029 135 q 1037 52 1039 83 q 1026 -29 1035 21 q 1018 -115 1018 -86 q 1019 -143 1019 -142 q 899 -171 1015 -161 q 575 -174 769 -182 q 533 -173 558 -174 q 488 -172 507 -172 q 450 -170 469 -171 q 419 -168 431 -169 q 367 -139 382 -162 q 340 -64 351 -115 q 319 44 319 38 q 323 81 317 71 q 349 99 329 92 q 463 126 385 113 q 599 143 542 140 q 633 146 610 144 q 674 149 656 147 q 703 150 692 150 q 778 144 717 149 q 864 140 840 140 "},"京":{"ha":1361,"x_min":351,"x_max":1011,"o":"m 751 321 q 794 324 767 321 q 844 331 822 328 q 868 335 867 335 q 919 318 910 338 q 946 186 935 288 q 963 61 957 85 q 994 -24 978 -7 l 1000 -26 q 1008 3 1007 -28 q 1006 143 1011 35 q 985 317 999 263 q 963 358 976 350 q 908 365 949 367 q 868 367 879 364 q 847 382 851 372 q 836 438 840 393 q 831 524 832 482 q 829 589 829 567 q 836 632 831 621 q 867 644 842 643 q 935 628 889 644 q 980 615 974 615 q 988 622 986 615 q 974 686 990 644 q 942 747 961 714 q 860 860 919 785 q 779 969 804 931 q 740 1018 765 993 q 707 1019 714 1043 q 668 944 699 988 q 653 924 663 938 q 640 906 643 910 q 633 891 638 901 q 625 867 629 881 q 606 813 615 832 q 565 744 596 793 q 524 672 533 693 q 510 621 508 640 q 517 610 510 610 q 554 629 526 610 q 571 642 568 639 q 594 636 585 649 q 607 606 604 624 q 597 504 610 578 l 594 486 l 594 474 q 601 431 594 461 q 607 394 608 401 q 603 377 607 382 q 591 372 600 372 q 568 374 582 372 q 521 371 536 376 q 511 369 515 369 q 503 369 507 368 q 492 369 499 369 q 479 369 485 369 q 419 363 457 368 q 400 357 403 358 q 395 342 393 351 q 406 331 397 332 l 478 339 q 498 338 492 339 q 510 336 504 338 q 524 333 517 335 q 567 333 532 332 q 637 322 626 333 q 646 246 647 310 q 672 -22 643 101 q 683 -66 678 -49 q 694 -103 688 -83 q 709 -132 701 -124 q 724 -135 717 -140 q 732 -74 736 -125 q 724 -8 731 -51 q 720 11 722 1 q 718 24 718 21 q 717 32 718 28 q 716 42 717 36 q 715 54 715 49 q 715 75 715 60 q 714 106 714 90 q 713 153 713 142 q 710 178 713 164 q 707 198 708 193 q 701 218 706 203 q 690 317 682 292 q 711 329 694 328 q 751 321 721 329 m 763 906 q 867 764 813 847 q 879 692 906 704 q 833 688 874 689 q 771 685 826 688 q 701 682 715 682 q 610 694 626 685 q 639 792 597 703 q 699 906 674 864 q 725 938 717 938 q 763 906 735 938 m 776 633 q 788 624 783 631 q 792 608 792 618 q 792 587 793 597 q 786 560 790 576 q 782 538 783 546 q 789 465 779 522 q 799 406 799 408 q 793 375 800 381 q 738 370 785 369 q 664 378 692 371 q 653 383 654 381 q 642 457 646 393 q 639 564 638 521 q 638 576 639 568 q 638 588 638 583 q 638 598 638 592 q 639 608 639 604 q 640 617 639 613 q 642 626 640 622 q 645 633 643 629 q 649 638 647 636 q 656 640 651 639 q 722 640 676 643 q 776 633 768 638 m 353 322 q 354 308 351 319 q 363 242 361 281 q 361 149 363 210 q 361 43 358 83 q 381 -35 364 3 q 410 -71 394 -71 q 415 -68 414 -71 q 418 -64 417 -65 q 420 -60 419 -62 q 422 -54 421 -57 q 422 -47 422 -51 q 422 -37 422 -42 q 421 -25 421 -33 q 421 -10 421 -17 q 413 157 419 81 q 397 294 401 275 q 381 329 390 321 q 365 332 374 335 q 353 322 356 329 "},"人":{"ha":1361,"x_min":517,"x_max":838,"o":"m 626 988 q 614 919 621 968 q 544 549 590 743 q 533 506 538 517 q 526 449 518 465 q 552 454 535 432 q 586 513 569 476 q 608 601 599 539 q 610 610 608 604 q 616 649 614 635 q 624 681 618 663 q 638 706 629 700 q 656 707 646 713 q 706 666 674 700 q 764 593 738 632 q 775 567 772 582 q 780 513 782 540 q 765 419 778 485 q 754 349 757 369 q 750 292 751 329 q 753 217 749 256 q 785 -103 767 10 q 813 -167 792 -147 q 819 -169 817 -169 q 831 -151 829 -169 q 831 -107 832 -132 q 815 88 828 -61 q 803 289 804 217 q 803 353 803 329 q 806 396 803 376 q 818 446 810 415 q 836 532 836 510 q 796 638 838 592 q 749 678 785 649 q 687 735 714 707 q 654 790 660 764 q 653 808 653 796 q 665 906 653 825 q 676 1006 676 979 q 672 1029 675 1024 q 648 1025 663 1044 q 626 988 633 1006 "},"仁":{"ha":1361,"x_min":326,"x_max":1035,"o":"m 340 840 q 386 718 353 779 q 404 683 403 689 q 397 660 406 678 q 376 608 390 646 q 346 515 350 540 q 331 397 338 475 q 333 351 326 356 q 355 358 342 344 q 369 382 368 371 q 392 514 381 485 q 402 540 396 521 q 411 565 408 560 q 429 601 417 579 q 450 624 442 624 q 486 596 457 624 q 503 580 486 596 q 522 560 519 564 q 535 543 524 557 q 549 522 547 529 q 556 499 551 514 q 558 471 560 485 q 550 440 556 457 q 538 342 539 410 q 543 128 535 233 q 556 6 553 18 q 563 -15 557 -1 q 574 -29 569 -29 q 582 -14 575 -28 q 585 7 583 -10 q 587 44 586 24 q 587 83 588 64 q 585 113 586 103 q 576 318 572 196 q 599 454 579 399 q 605 485 604 471 q 600 515 606 500 q 590 538 594 529 q 573 562 586 547 q 555 581 560 576 q 535 600 550 586 q 522 613 526 608 q 513 622 517 618 q 503 631 508 626 q 497 638 499 636 q 489 648 494 640 q 481 658 483 656 q 469 673 478 661 q 454 692 460 685 q 441 708 453 693 q 427 727 429 724 q 415 744 425 731 q 403 766 406 758 q 394 787 400 774 q 387 813 389 800 q 385 842 385 826 q 381 872 383 864 q 369 888 378 879 q 349 894 357 900 q 340 840 332 883 m 747 319 l 776 321 q 892 328 842 325 q 990 333 975 331 q 1025 342 1021 339 q 1033 356 1035 347 q 1024 367 1032 364 q 907 372 974 381 q 781 364 869 369 q 738 358 743 361 q 722 336 724 351 q 747 319 735 322 m 936 233 q 699 211 749 219 q 689 206 692 210 q 689 190 683 197 q 704 181 694 183 q 831 184 713 179 q 957 190 950 189 q 1000 206 992 199 q 978 233 1017 222 q 936 233 969 236 "},"今":{"ha":1361,"x_min":243,"x_max":1118,"o":"m 668 957 q 653 928 658 946 q 615 847 642 890 q 549 725 592 808 q 482 586 506 642 q 455 527 475 569 q 428 467 435 485 q 404 411 421 450 q 376 344 388 372 q 357 288 365 315 q 323 197 349 261 q 289 110 297 132 q 273 65 286 99 q 253 8 260 31 q 246 -39 247 -15 q 249 -66 243 -56 q 265 -71 254 -76 q 307 -7 292 -57 q 340 79 319 32 q 410 276 386 183 q 442 368 417 304 q 461 407 453 399 q 485 419 468 415 q 581 435 511 429 q 629 439 611 436 q 720 443 650 440 q 818 449 790 446 q 892 453 878 454 q 928 424 913 453 q 947 375 932 417 q 1074 38 1067 51 q 1107 4 1089 10 q 1116 10 1115 1 q 1114 29 1117 19 q 1107 64 1111 42 q 1050 248 1093 131 q 1000 388 1007 365 q 958 485 992 413 q 892 623 925 557 q 844 718 860 689 q 731 885 832 740 q 699 931 711 913 q 668 957 676 965 m 686 871 q 781 740 706 850 q 857 594 833 661 q 879 542 865 572 q 888 519 886 526 q 887 506 889 513 q 875 493 885 499 l 846 492 q 578 472 790 489 q 497 467 500 465 q 492 470 493 468 q 491 476 490 472 q 493 483 492 481 q 497 493 494 486 q 500 503 499 500 q 546 617 528 579 q 571 667 556 636 q 601 726 586 697 q 625 775 615 754 q 681 875 676 876 q 686 871 681 875 m 646 188 q 568 175 608 183 q 557 173 564 174 q 547 172 550 172 q 539 169 543 171 q 533 164 535 167 q 529 157 531 161 q 554 139 528 144 q 608 136 569 135 q 692 140 661 138 q 757 144 724 143 l 808 147 q 838 163 833 153 q 838 175 840 171 q 775 192 829 186 q 748 191 775 192 q 688 189 721 190 q 646 188 656 188 "},"介":{"ha":1361,"x_min":488,"x_max":875,"o":"m 669 1024 q 662 937 664 1004 q 660 861 660 869 q 647 802 654 821 q 617 744 640 783 q 549 644 581 686 q 534 626 539 632 q 519 605 529 619 q 503 581 508 590 q 493 562 499 572 q 489 544 488 551 q 496 536 490 538 q 542 553 515 528 q 593 614 557 567 q 649 676 635 667 q 661 683 657 683 q 672 675 665 683 q 725 575 697 638 l 731 561 q 730 545 731 553 q 728 531 729 538 q 725 517 728 525 q 722 504 722 508 q 717 490 721 500 q 711 477 713 481 q 705 463 710 474 q 697 449 700 453 q 676 397 683 415 q 665 353 668 379 q 660 310 661 328 q 660 244 660 293 q 672 -56 658 32 q 689 -126 681 -101 q 703 -146 696 -146 q 726 -92 718 -146 q 731 -8 733 -39 q 718 80 728 11 q 707 176 708 149 q 715 286 706 213 q 739 396 724 360 q 768 447 743 406 q 801 513 796 494 q 799 569 810 540 q 742 654 786 604 q 712 707 718 681 q 713 792 706 733 q 718 836 713 799 q 726 901 724 874 q 731 962 729 928 q 726 1017 732 996 q 708 1044 721 1039 q 685 1042 696 1050 q 669 1024 674 1035 m 522 336 q 506 270 507 319 q 510 162 506 221 q 513 82 515 103 q 514 50 511 60 q 532 42 517 40 q 567 82 564 44 q 560 157 569 101 q 553 222 553 201 q 555 274 551 232 q 554 325 558 315 q 547 342 553 338 q 535 345 542 347 q 522 336 529 343 m 871 121 q 847 290 867 250 q 827 303 843 299 q 803 306 811 308 q 796 289 796 303 q 798 240 794 278 q 806 168 801 203 q 811 126 810 133 q 832 80 818 100 q 856 60 846 60 q 871 121 874 61 "},"令":{"ha":1361,"x_min":463,"x_max":899,"o":"m 479 694 q 494 704 486 694 q 540 782 513 722 q 551 806 551 804 q 569 811 554 808 q 711 825 651 825 q 734 821 728 825 q 751 803 740 817 q 754 799 753 800 q 781 756 761 789 q 825 686 810 704 q 875 656 851 653 q 897 682 899 657 q 892 708 897 693 q 825 818 883 731 q 743 944 760 915 q 706 1040 726 974 q 664 1117 686 1110 q 649 1117 657 1119 q 645 1112 647 1117 q 642 1104 643 1107 q 566 990 604 1058 q 517 869 528 921 q 503 832 514 854 q 464 718 463 747 q 479 694 464 694 m 699 868 q 653 859 685 860 q 597 864 622 858 q 580 881 582 869 q 585 908 578 893 q 629 990 597 950 q 643 1003 636 1000 q 656 994 646 1006 q 676 965 665 982 q 697 927 688 947 q 708 891 707 907 q 699 868 708 875 m 647 724 q 654 643 639 704 q 663 599 664 607 q 654 578 661 594 q 649 564 650 568 q 645 552 647 560 q 642 542 643 544 q 642 529 642 540 q 642 513 642 518 q 642 487 642 507 q 642 453 642 467 q 633 343 642 396 q 608 101 610 182 q 650 -49 604 -35 q 776 22 700 -65 q 793 36 786 33 q 803 -25 800 36 q 804 -42 803 -31 q 808 -118 806 -92 q 817 -176 810 -144 q 836 -222 824 -208 q 852 -229 844 -232 q 864 -211 860 -226 q 875 -128 871 -187 q 878 -26 879 -69 q 863 104 875 40 q 854 138 857 128 q 844 156 851 149 q 828 161 838 163 q 810 154 817 161 q 792 126 803 147 q 751 78 779 104 q 704 42 722 51 q 683 36 693 36 q 667 68 665 35 q 692 126 668 100 q 751 175 706 142 q 779 196 769 189 q 844 306 842 247 q 840 353 846 325 q 828 398 833 381 q 809 451 822 415 q 792 497 796 488 q 690 708 744 632 q 665 736 674 732 q 647 724 656 740 m 719 488 q 729 442 731 483 q 747 393 728 425 q 772 340 765 364 q 772 282 779 315 q 689 199 765 253 q 681 193 682 193 q 679 229 678 194 q 679 263 679 243 q 685 438 678 381 q 696 479 689 472 q 719 488 707 493 "},"以":{"ha":1361,"x_min":511,"x_max":849,"o":"m 633 1103 q 625 1074 625 1093 q 651 980 625 1042 q 681 907 676 918 q 697 840 685 889 q 719 746 708 792 q 733 689 729 700 q 760 619 742 656 q 783 567 776 583 q 791 528 789 550 q 785 487 793 506 q 760 439 778 468 q 628 283 714 364 q 559 213 585 244 q 522 144 533 182 q 515 78 513 111 q 529 13 519 47 q 549 -42 539 -21 q 578 -105 558 -64 q 606 -162 597 -146 q 610 -172 607 -165 q 613 -181 613 -179 q 617 -190 614 -183 q 622 -198 621 -196 q 626 -204 624 -200 q 631 -209 629 -208 q 638 -212 633 -210 q 644 -214 642 -215 q 653 -214 647 -212 q 701 -179 667 -210 q 801 -61 769 -117 q 835 78 836 3 q 825 133 833 107 q 791 215 822 143 q 756 303 760 288 q 757 365 747 339 q 803 431 765 386 q 826 459 818 449 q 840 487 833 469 q 846 525 846 504 q 815 646 847 563 q 753 840 788 718 q 717 965 724 943 q 675 1063 700 1017 q 640 1107 653 1107 q 633 1103 638 1107 m 704 294 q 729 254 713 290 q 775 113 751 203 q 774 -3 790 54 q 752 -57 767 -28 q 715 -110 738 -86 q 674 -133 693 -133 q 644 -114 661 -133 q 600 -32 624 -86 q 568 69 576 22 q 567 143 557 119 q 608 209 576 168 q 665 274 639 250 q 704 294 694 299 "},"仲":{"ha":1361,"x_min":419,"x_max":939,"o":"m 685 1042 q 658 996 665 1033 q 663 853 651 954 q 667 781 671 790 q 603 749 656 756 q 554 744 585 746 q 506 742 524 743 q 469 734 488 740 q 440 715 450 728 q 424 585 419 690 q 456 378 429 429 q 476 353 465 360 q 514 344 488 346 q 585 353 532 344 q 629 357 614 357 q 679 342 668 358 q 696 274 690 326 q 700 142 701 232 q 701 15 699 53 q 704 -19 703 -10 q 708 -52 706 -28 q 714 -87 711 -76 q 722 -114 717 -99 q 735 -136 728 -129 q 750 -144 742 -143 q 764 -103 775 -147 q 756 -56 757 -75 q 760 10 756 -36 q 765 116 765 92 q 756 192 765 140 q 743 300 743 274 q 746 335 742 325 q 765 351 750 346 q 826 356 785 358 q 911 372 892 350 q 932 458 931 394 q 931 512 932 463 q 931 567 931 561 q 934 597 932 576 q 938 632 936 617 q 939 656 939 647 q 883 744 936 732 q 797 751 864 750 q 731 759 753 751 q 708 794 710 767 q 710 810 708 800 q 713 832 711 821 q 715 850 715 843 q 716 871 715 856 q 717 897 717 886 q 717 926 717 908 q 715 956 717 943 q 713 985 714 969 q 710 1010 713 1000 q 703 1029 707 1021 q 695 1041 700 1038 q 685 1042 690 1044 m 663 643 q 672 551 664 625 q 679 465 679 476 q 676 425 681 436 q 656 408 671 414 q 553 401 619 393 q 513 410 526 406 q 492 424 500 414 q 478 453 483 433 q 462 550 467 493 q 464 650 457 607 q 475 671 467 663 q 502 684 483 679 q 531 690 521 689 q 571 694 542 692 q 608 697 600 697 q 653 692 644 701 q 663 643 663 683 m 882 533 q 878 456 883 482 q 864 420 874 429 q 829 408 854 411 q 776 415 801 407 q 742 438 750 424 q 719 553 725 468 q 729 681 713 638 q 797 704 740 708 q 835 691 819 701 q 859 667 850 681 q 873 629 868 654 q 879 585 878 604 q 882 533 881 567 "},"任":{"ha":1361,"x_min":363,"x_max":1015,"o":"m 449 1092 q 442 1061 446 1083 q 435 992 435 1031 q 439 893 435 954 q 443 813 443 832 q 445 756 446 763 q 431 724 444 749 q 426 713 428 717 q 422 703 424 708 q 420 693 421 697 q 417 676 419 689 q 414 653 415 664 q 393 535 406 604 q 369 324 363 364 q 374 308 371 315 q 381 294 376 301 q 390 284 385 286 q 404 286 396 282 q 454 432 419 294 q 478 542 469 493 q 482 610 483 567 q 482 654 481 650 q 493 674 485 672 q 538 603 499 674 q 565 501 564 556 q 561 456 565 478 q 539 382 557 435 q 507 176 511 299 q 509 22 507 142 q 515 -131 511 -97 q 536 -231 525 -207 q 539 -235 538 -233 q 563 -204 551 -258 q 583 136 596 -26 q 581 249 578 201 q 601 344 583 296 q 636 453 632 426 q 636 498 640 478 q 617 545 632 518 q 597 583 603 572 q 554 679 589 604 q 501 806 515 763 q 476 947 478 878 q 481 1008 476 965 q 483 1064 485 1051 q 474 1099 483 1093 q 460 1099 468 1101 q 449 1092 451 1096 m 808 311 q 811 258 808 282 q 815 213 813 244 q 819 154 817 181 q 824 118 821 128 q 842 68 829 75 q 860 83 854 61 q 867 139 865 104 q 857 407 869 181 q 851 507 856 431 q 848 588 847 583 q 847 660 849 593 q 847 735 844 728 q 856 814 850 806 q 888 821 858 818 q 956 831 943 826 q 976 846 975 836 q 975 857 978 853 q 965 863 972 861 q 952 865 957 864 q 935 865 947 865 q 856 874 915 865 q 689 883 750 888 q 658 881 672 882 q 656 853 586 869 q 750 835 671 849 q 772 832 760 833 q 790 829 785 831 q 801 827 794 828 q 810 822 808 826 q 814 817 811 818 q 815 808 817 815 q 814 795 814 800 q 813 776 814 790 q 803 638 806 717 q 805 546 801 599 q 808 483 808 493 q 809 390 810 460 q 808 311 808 321 m 643 -12 q 644 -28 636 -21 q 668 -36 651 -35 q 869 -53 778 -51 q 946 -49 913 -53 q 985 -15 1014 -40 q 928 1 969 -1 q 826 2 888 4 q 746 0 764 0 q 643 -12 654 3 "},"企":{"ha":1361,"x_min":443,"x_max":915,"o":"m 554 806 q 550 701 553 789 q 545 528 547 613 q 543 421 543 443 l 543 418 q 547 388 543 388 q 556 407 549 388 q 578 494 571 449 q 590 604 582 521 q 607 710 599 692 q 617 722 613 722 q 644 694 619 722 q 715 601 696 639 q 750 462 744 546 q 749 257 756 378 q 744 85 743 136 q 746 67 744 68 q 757 90 749 67 q 796 285 774 146 q 811 436 811 386 q 760 611 810 528 q 679 726 744 636 q 639 783 640 778 q 621 863 618 814 q 617 960 624 908 q 597 1040 610 1011 q 581 1065 588 1064 q 553 850 550 1065 q 554 806 554 815 m 544 240 q 565 171 547 219 q 566 167 565 169 q 567 164 567 165 q 568 160 568 163 q 578 129 575 140 q 583 103 582 118 q 578 81 585 89 q 558 72 572 74 q 510 79 546 69 q 463 89 475 89 q 447 79 447 88 q 454 69 447 75 q 556 22 471 57 q 582 11 579 13 q 592 -78 604 1 q 589 -93 590 -90 q 581 -94 588 -96 q 532 -75 574 -92 q 475 -57 488 -56 q 463 -62 467 -60 q 489 -103 444 -79 q 569 -133 515 -117 q 597 -142 590 -139 q 611 -156 603 -146 q 628 -160 615 -161 q 724 -169 658 -158 q 795 -183 771 -179 q 840 -185 819 -186 q 892 -182 860 -185 q 910 -176 907 -179 q 914 -158 914 -172 q 850 -39 911 -90 q 768 11 819 -12 q 667 42 717 35 q 646 47 653 43 q 635 63 639 51 q 631 82 632 74 q 631 113 631 90 q 571 257 629 186 q 556 268 563 267 q 546 261 549 271 q 544 240 543 251 m 718 -17 q 799 -60 761 -32 q 847 -114 828 -82 l 854 -126 l 854 -131 q 853 -139 856 -136 q 847 -142 851 -142 q 838 -142 842 -143 q 825 -140 833 -142 q 811 -139 817 -139 q 683 -125 688 -126 q 663 -118 671 -124 q 636 -85 646 -111 q 632 -35 626 -60 q 667 -9 638 -11 q 718 -17 697 -7 "},"伊":{"ha":1361,"x_min":258,"x_max":1107,"o":"m 467 906 q 458 865 468 881 q 396 801 444 844 q 362 769 368 776 q 350 742 356 761 q 331 710 344 725 q 265 621 278 650 q 260 594 258 607 q 270 574 260 581 q 294 572 281 567 q 331 601 311 581 q 396 688 353 625 q 417 715 408 707 q 456 733 443 743 q 472 678 468 724 q 472 651 472 675 q 473 594 472 626 q 474 547 474 561 q 470 476 475 501 q 449 417 465 451 q 403 339 438 392 q 373 290 382 307 q 355 247 364 274 q 342 186 346 219 q 346 39 336 139 q 352 -71 347 28 q 360 -183 357 -169 q 386 -243 367 -235 q 397 -243 393 -243 q 405 -237 400 -243 q 412 -226 410 -231 q 418 -214 414 -222 q 419 -211 418 -211 q 431 -96 435 -176 q 421 -11 429 -72 q 413 106 411 71 q 436 226 413 185 q 478 283 447 246 q 491 301 479 286 q 505 317 503 315 q 515 332 507 319 q 526 349 524 344 q 533 365 528 353 q 539 385 538 376 q 542 406 540 393 q 542 431 543 418 q 535 501 542 450 q 531 535 532 521 q 529 565 529 550 q 529 590 529 581 q 531 621 529 599 q 532 657 532 643 q 531 819 533 713 q 524 972 528 926 q 506 1067 517 1038 q 478 1089 494 1094 q 454 1026 453 1081 q 461 966 456 1017 q 467 906 467 915 m 618 992 q 638 878 619 957 q 656 769 651 819 q 660 615 661 736 q 660 474 658 494 q 667 351 661 428 q 674 221 674 251 q 669 106 675 190 q 665 57 667 76 q 674 -37 664 10 q 700 -106 685 -83 q 707 -112 704 -110 q 731 -61 725 -126 q 739 294 750 138 q 735 451 731 403 q 738 472 736 463 q 742 489 739 481 q 751 501 746 497 q 765 503 757 504 q 785 494 774 501 q 810 470 797 486 q 832 435 822 454 q 847 397 842 415 q 853 351 853 381 q 844 232 854 307 q 840 212 843 225 q 834 185 838 199 q 827 157 831 172 q 822 128 824 142 q 821 104 821 115 q 824 86 821 93 q 833 78 826 79 q 853 85 844 75 q 876 165 864 99 q 899 244 883 210 q 928 306 924 306 q 946 274 936 306 q 960 208 951 256 q 1013 -81 1008 -62 q 1043 -175 1028 -146 q 1087 -223 1068 -225 q 1101 -158 1106 -221 q 1088 -86 1099 -129 q 1074 14 1072 -21 q 1069 97 1075 50 q 1013 326 1054 239 q 983 374 1000 354 q 946 419 951 410 q 935 478 932 444 q 953 553 936 501 q 965 639 967 599 q 961 682 965 664 q 857 838 942 764 q 785 896 844 849 q 724 944 725 943 q 688 992 697 968 q 663 1042 671 1031 q 647 1054 656 1051 q 635 1057 640 1057 q 626 1051 629 1057 q 620 1040 622 1044 q 617 1024 618 1035 q 617 1007 617 1014 q 618 992 617 1000 m 743 815 q 816 763 767 810 q 886 678 865 717 q 890 665 889 672 q 893 546 907 608 q 860 514 883 500 q 771 586 821 533 q 739 644 751 607 q 722 714 729 674 q 743 815 703 825 "},"伐":{"ha":1361,"x_min":231,"x_max":1113,"o":"m 586 -256 q 608 -111 604 -185 q 613 94 608 -92 q 624 333 617 279 q 654 457 632 392 q 682 571 676 524 q 679 632 685 603 q 659 686 672 668 q 617 717 646 704 q 596 752 603 722 q 592 808 589 782 q 606 853 594 839 q 647 865 618 868 q 755 860 718 861 q 811 844 792 858 q 838 796 831 829 q 843 624 839 790 q 856 67 844 536 q 858 -161 860 -157 q 857 -167 858 -165 q 854 -171 856 -169 q 850 -174 853 -172 q 845 -176 847 -175 q 839 -177 843 -176 q 832 -178 835 -178 q 824 -180 829 -179 q 815 -182 818 -181 q 781 -193 786 -186 q 785 -224 768 -208 q 817 -242 801 -240 q 913 -231 836 -243 q 1015 -210 989 -218 l 1025 -207 q 1033 -206 1031 -206 q 1053 -174 1074 -194 q 1036 -167 1046 -167 q 1013 -166 1035 -165 q 969 -167 992 -167 q 942 -165 946 -167 q 924 -151 928 -161 q 922 -97 924 -149 q 917 244 921 -44 q 912 567 914 468 q 907 792 910 667 q 907 807 907 799 q 907 819 907 815 q 907 828 907 824 q 908 834 907 832 q 913 838 910 836 q 963 842 918 842 q 1065 846 1040 842 q 1068 846 1065 846 q 1101 856 1092 850 q 1106 878 1111 861 q 1011 925 1085 932 q 940 920 978 919 q 886 936 903 921 q 874 972 874 949 q 886 1006 874 996 q 926 1019 890 1007 q 963 1031 961 1031 q 978 1043 975 1038 q 871 1074 986 1064 q 754 1057 753 1083 q 783 1024 754 1047 q 806 1004 800 1010 q 821 987 813 999 q 826 963 829 975 q 810 938 822 951 q 806 933 807 935 q 802 931 804 932 q 799 928 800 929 q 794 927 797 928 q 790 926 792 926 q 785 926 789 926 q 778 925 781 925 q 768 925 775 925 q 757 925 761 925 q 684 927 732 925 q 629 935 636 929 q 624 949 625 939 q 621 1014 622 963 q 618 1086 621 1076 q 588 1121 610 1117 q 558 1115 567 1125 q 550 1081 550 1106 q 554 979 549 1036 q 557 946 557 951 q 546 926 556 935 q 517 915 536 918 q 484 912 499 913 q 447 911 469 911 q 361 914 418 911 q 300 917 319 917 q 265 881 231 914 q 317 849 289 857 q 394 844 346 842 q 460 850 425 844 q 533 856 525 858 q 540 813 543 851 q 506 694 533 744 q 485 658 489 665 q 471 631 481 650 q 458 599 461 611 q 449 565 454 586 q 439 518 443 544 q 410 415 429 460 q 393 372 400 393 q 388 331 388 351 q 400 319 389 311 q 451 393 411 328 q 464 411 457 400 q 473 426 471 422 q 478 438 475 431 q 483 450 482 444 q 486 464 485 456 q 489 493 488 482 q 494 517 490 504 q 501 535 499 529 q 510 558 503 540 q 521 586 518 576 q 571 678 554 667 q 585 675 578 682 q 597 655 592 668 q 604 631 601 642 q 608 610 607 619 q 613 570 613 586 q 607 533 613 554 q 597 500 601 513 q 586 469 593 488 q 576 439 579 450 q 571 394 574 432 q 553 56 560 283 q 551 -8 553 46 q 549 -79 549 -62 q 574 -257 546 -179 q 586 -256 581 -256 "},"休":{"ha":1361,"x_min":386,"x_max":975,"o":"m 763 -178 q 778 -165 772 -176 q 782 -100 782 -158 q 783 -37 782 -83 q 784 35 783 10 q 783 94 785 60 q 781 135 783 111 q 779 174 779 160 l 778 189 q 780 195 778 189 q 783 203 782 201 q 785 210 783 206 q 791 215 788 214 q 799 215 794 217 q 824 200 808 215 q 892 118 851 174 q 929 74 917 85 q 960 50 951 53 q 969 51 964 49 q 974 58 974 54 q 958 94 974 67 q 911 156 951 107 q 872 203 876 197 q 859 224 869 208 q 835 257 849 240 q 804 299 810 290 q 819 346 790 324 q 851 385 826 351 q 940 496 892 438 q 965 528 964 524 q 970 555 974 538 q 954 572 967 572 q 947 564 950 572 q 921 535 940 546 q 907 522 914 532 q 869 476 896 507 q 854 460 868 474 q 838 442 840 447 q 813 410 832 428 q 793 390 800 399 q 781 383 788 383 q 771 411 778 383 q 768 460 765 432 q 772 489 769 467 q 778 531 775 511 q 782 558 781 550 q 777 603 782 565 q 771 654 772 640 q 808 867 763 764 q 838 954 817 886 q 865 1028 857 1014 q 875 1057 875 1044 q 865 1083 875 1072 q 854 1093 857 1093 q 840 1078 849 1093 q 826 1053 833 1064 q 790 971 801 1006 q 783 957 789 969 q 774 932 778 944 q 769 914 769 919 q 747 836 769 885 q 734 817 742 821 q 718 818 726 814 q 694 836 710 822 q 646 883 665 860 q 572 990 619 917 q 549 1022 556 1015 q 534 1028 542 1029 q 524 1024 526 1028 q 524 1012 522 1019 q 529 997 526 1004 q 535 981 532 989 q 540 969 539 974 q 572 908 544 942 q 588 888 581 897 q 599 872 596 878 q 610 859 603 867 q 628 842 617 851 q 663 801 647 824 q 696 767 681 776 q 708 753 704 761 q 712 733 711 747 q 711 701 713 719 q 708 663 710 682 q 706 627 707 644 q 706 601 704 610 q 713 533 706 593 q 719 472 719 472 q 719 443 721 460 q 718 418 718 426 q 719 394 718 407 q 723 372 721 382 q 727 351 725 363 q 729 331 729 340 l 731 313 q 719 260 721 285 q 701 185 717 236 q 669 115 686 136 q 654 90 664 107 q 625 56 642 67 q 561 -47 593 -10 q 553 -74 549 -61 q 575 -86 557 -86 q 603 -64 589 -85 q 638 -25 615 -44 q 649 -12 642 -22 q 665 12 656 -1 q 683 39 674 25 q 702 66 692 53 q 719 88 713 79 q 733 25 728 85 q 742 -126 744 -71 q 763 -178 740 -178 m 390 911 q 388 894 389 901 q 388 881 388 886 q 388 867 388 876 q 389 855 389 858 q 391 838 389 851 q 394 817 393 824 q 413 771 397 792 q 435 708 433 743 q 421 622 435 683 q 399 517 401 536 q 397 446 396 496 q 397 400 397 404 q 393 381 397 397 q 389 356 389 365 q 392 328 389 349 q 400 303 396 307 q 417 301 408 293 q 426 319 426 310 q 432 356 428 326 q 436 393 436 385 l 436 408 l 440 443 q 456 557 450 531 q 457 567 456 560 q 459 579 458 574 q 462 592 460 585 q 466 603 464 599 q 471 613 468 608 q 477 621 474 618 q 486 624 481 624 q 496 617 490 624 q 522 574 504 604 q 543 538 539 544 q 567 478 563 508 q 565 425 571 449 q 543 367 558 401 q 536 352 540 361 q 530 339 532 343 q 525 327 528 335 q 521 315 522 319 q 517 305 519 311 q 514 294 515 299 q 511 282 513 289 q 509 268 510 275 q 508 254 508 261 q 507 244 508 247 q 500 210 503 235 q 500 171 497 186 q 498 131 503 157 q 493 97 493 104 q 494 60 492 85 q 494 19 496 35 q 503 -61 490 -31 q 518 -76 508 -76 q 531 -74 526 -76 q 537 -64 535 -71 q 540 -51 539 -57 q 540 -33 540 -46 q 540 -11 540 -19 q 547 79 544 58 q 550 131 550 101 q 558 214 550 163 q 590 367 576 326 q 594 376 592 369 q 600 391 597 383 q 606 408 603 399 q 612 424 610 417 q 616 439 614 432 q 618 450 618 446 q 611 474 618 461 q 590 531 607 482 q 561 593 574 579 q 557 600 557 599 q 554 604 557 601 q 507 682 525 657 q 425 857 449 765 q 408 896 419 875 l 406 901 q 403 906 404 904 q 394 911 399 913 q 390 911 392 911 "},"伝":{"ha":1361,"x_min":411,"x_max":950,"o":"m 826 1094 q 817 1036 825 1090 q 793 951 807 983 q 769 978 775 967 q 736 1026 753 1014 q 715 1026 722 1036 q 714 1000 707 1015 q 738 965 715 997 q 767 926 760 933 q 772 919 768 924 q 777 914 776 915 q 781 910 778 913 q 784 905 783 907 q 786 900 785 903 q 788 894 788 897 q 788 886 788 890 q 788 876 789 879 q 783 840 785 868 q 778 806 781 811 q 772 798 778 804 q 767 790 767 792 q 756 768 767 788 q 730 731 744 751 q 703 692 715 710 q 682 657 692 674 q 651 588 660 617 q 640 508 642 558 q 643 488 640 499 q 649 465 646 478 q 654 446 653 453 q 699 367 663 401 q 717 339 715 350 q 706 304 719 328 q 676 233 686 275 q 654 171 671 210 q 633 119 638 132 q 624 79 624 90 q 644 69 625 68 q 657 71 653 69 q 742 135 700 92 q 782 246 774 168 q 784 261 783 250 q 785 276 785 272 q 787 290 786 281 q 788 303 788 299 q 788 317 788 308 q 786 331 788 325 q 783 342 785 336 q 779 356 782 349 q 779 375 772 374 q 803 361 785 375 q 822 339 810 356 q 850 289 849 303 q 845 271 850 282 q 839 254 840 260 q 825 215 833 232 q 806 184 821 208 q 786 144 790 160 q 793 121 778 119 q 819 140 801 122 q 850 172 836 157 q 868 183 864 186 q 866 167 868 182 q 863 150 864 151 q 858 144 861 146 q 852 141 854 142 q 849 136 850 140 q 851 125 847 132 q 843 106 857 110 q 840 103 839 104 q 842 99 840 101 q 844 94 844 96 q 839 83 844 90 q 808 35 826 68 q 800 21 804 26 q 794 13 796 15 q 792 5 793 11 q 788 -17 790 -1 q 764 -96 772 -82 q 751 -122 756 -112 q 744 -147 747 -131 q 747 -178 740 -164 q 756 -203 753 -203 q 760 -199 757 -203 q 768 -191 764 -196 q 774 -183 772 -186 q 795 -119 786 -167 q 810 -57 804 -72 q 838 9 815 -40 q 867 68 861 58 q 885 104 881 88 q 895 127 888 113 q 906 156 903 142 q 910 185 910 169 q 907 207 910 197 q 913 318 888 276 q 925 432 925 415 q 906 486 924 486 q 892 481 894 486 q 890 453 890 475 q 890 435 890 442 q 876 357 890 400 q 869 339 869 340 l 839 383 q 827 417 826 407 q 843 444 828 426 q 875 622 892 507 q 863 667 872 639 q 853 706 854 694 q 840 734 850 719 q 828 753 829 749 q 819 826 818 786 q 829 897 821 867 q 858 935 835 918 q 932 1001 871 944 l 949 1018 q 942 1027 946 1021 q 935 1038 938 1033 q 932 1042 932 1042 q 850 961 931 1042 q 842 964 843 954 q 846 990 842 974 q 851 1036 849 1018 q 850 1090 856 1079 q 838 1107 843 1103 q 831 1101 836 1107 q 826 1094 826 1096 m 768 693 q 763 667 768 692 q 750 572 753 604 q 742 553 749 556 l 725 551 q 696 549 710 550 q 679 550 682 549 q 699 607 679 553 q 713 638 710 636 q 738 664 724 642 q 754 689 751 686 q 768 693 767 699 m 825 675 q 831 553 844 608 q 822 542 828 542 q 803 547 815 542 q 794 553 796 550 q 792 565 792 556 q 792 583 792 571 q 793 600 793 594 q 807 681 792 643 q 809 685 807 682 q 813 690 811 688 q 817 692 815 692 q 825 675 821 690 m 744 511 q 746 458 747 503 q 743 415 743 418 q 736 411 743 413 q 726 422 733 414 q 716 431 718 429 q 710 439 714 433 q 703 449 706 444 q 699 461 700 454 q 694 472 697 464 q 688 488 690 481 q 683 502 685 494 q 683 515 681 510 q 690 522 685 521 q 744 511 733 532 m 813 507 q 783 472 811 475 q 783 494 781 485 q 792 506 785 503 q 813 507 800 510 m 750 271 q 746 244 749 260 q 739 203 743 215 q 719 164 735 190 q 703 139 706 140 q 696 144 703 139 q 689 150 689 149 q 716 233 690 154 q 743 321 742 311 q 750 321 744 321 q 750 271 754 300 m 565 1085 q 545 1069 550 1079 q 538 1038 540 1060 q 521 901 521 925 q 485 763 518 806 q 450 719 479 754 q 415 676 421 683 q 414 667 414 674 q 413 658 413 656 q 423 661 413 657 q 436 667 433 665 l 528 740 q 539 703 538 729 q 531 642 539 683 q 508 539 529 633 q 506 512 506 532 q 510 486 507 492 q 521 484 514 481 q 531 493 528 488 q 571 768 600 663 q 567 782 568 778 q 564 794 565 786 q 563 803 563 801 q 562 815 563 806 q 561 831 561 825 q 560 853 561 836 q 560 885 560 871 q 560 950 558 944 q 569 1079 568 1006 q 569 1085 569 1085 q 565 1085 569 1086 "},"伯":{"ha":1361,"x_min":213,"x_max":1131,"o":"m 707 1025 q 600 853 628 894 q 488 668 585 829 q 311 371 326 400 q 289 307 299 346 q 269 235 283 282 q 249 172 254 189 q 253 -51 214 46 q 290 -110 258 -64 q 383 -171 321 -151 q 585 -192 475 -197 q 894 -97 765 -183 q 1083 133 1024 -10 q 1093 156 1088 144 q 1128 285 1119 208 q 1126 332 1131 308 q 1076 464 1119 393 q 997 575 1060 492 q 938 658 957 629 q 876 764 919 688 q 843 824 860 794 q 821 864 826 854 q 806 890 815 874 q 778 932 796 906 q 744 1011 772 939 q 741 1023 743 1015 q 738 1033 739 1031 q 733 1038 736 1036 q 725 1040 731 1040 q 719 1041 721 1042 q 716 1039 718 1040 q 713 1037 714 1038 q 710 1032 713 1036 q 707 1025 708 1028 m 749 829 q 794 749 757 819 q 872 606 851 642 q 921 533 893 569 q 957 482 953 490 q 958 458 963 464 q 936 446 954 453 q 806 403 910 435 q 783 396 794 400 q 765 390 771 392 q 750 386 760 389 q 592 346 710 372 q 581 343 583 344 q 468 318 507 328 q 416 308 428 308 q 401 307 404 307 q 392 315 394 308 q 392 329 390 321 q 397 344 394 338 q 400 356 399 351 q 479 489 433 418 q 583 638 506 531 q 674 768 661 744 q 708 818 692 800 q 749 829 733 844 m 1015 396 q 1038 383 1031 394 q 1047 360 1046 372 q 1050 325 1049 349 q 1031 179 1051 260 q 990 89 1018 128 q 879 -19 944 25 q 737 -88 819 -60 q 560 -124 654 -117 q 394 -92 465 -132 q 383 -85 393 -90 q 372 -79 374 -81 q 363 -74 369 -78 q 355 -67 357 -69 q 348 -60 353 -64 q 341 -51 343 -56 q 336 -39 339 -46 q 330 -15 333 -29 q 324 18 326 0 q 319 53 321 36 q 319 88 318 71 q 383 226 328 206 q 526 261 385 226 q 732 312 690 300 q 857 356 774 324 q 954 390 932 385 q 1015 396 988 399 "},"位":{"ha":1361,"x_min":369,"x_max":992,"o":"m 600 1072 q 588 1025 596 1065 q 553 918 571 943 q 506 868 539 899 q 447 806 460 825 q 406 717 425 775 q 378 608 386 660 q 371 546 369 564 q 382 528 371 531 q 404 536 393 525 q 419 578 413 544 q 561 850 450 749 q 574 863 568 856 q 586 870 581 869 q 597 865 592 871 q 603 853 601 858 q 610 839 606 849 q 613 832 611 835 l 615 763 q 615 569 619 626 q 594 456 613 540 q 561 317 575 371 q 528 83 546 265 q 508 -111 510 -99 q 499 -156 503 -146 q 488 -169 496 -167 q 463 -174 481 -172 q 426 -186 439 -176 q 413 -201 419 -192 q 404 -220 406 -210 q 415 -233 403 -231 l 497 -236 q 726 -217 576 -242 q 885 -208 792 -206 q 969 -207 963 -210 q 990 -172 992 -199 l 990 -167 q 938 -138 957 -156 q 907 -90 918 -121 q 824 146 831 122 q 761 307 799 225 q 703 454 715 408 q 682 607 690 494 q 678 644 679 640 q 675 683 678 653 q 671 719 672 714 q 689 815 661 768 l 719 794 q 958 631 957 631 q 960 635 958 631 q 963 647 961 640 q 958 678 965 664 q 931 715 950 694 q 758 864 892 756 q 715 899 728 886 q 690 933 703 911 q 672 985 676 956 q 666 1015 671 994 q 656 1055 661 1035 q 647 1081 650 1075 q 622 1090 638 1094 q 600 1072 607 1086 m 658 376 q 726 231 681 333 q 819 -11 789 90 q 831 -46 824 -24 q 840 -76 838 -68 q 845 -100 843 -85 q 847 -132 847 -115 q 847 -154 849 -150 q 838 -162 846 -158 q 813 -168 835 -164 q 766 -176 790 -172 q 738 -182 742 -181 q 631 -183 699 -190 q 603 -182 622 -183 q 575 -180 583 -181 q 557 -173 567 -179 q 543 -156 547 -167 q 543 -115 542 -149 q 593 236 556 56 q 642 403 615 338 q 658 376 642 403 "},"何":{"ha":1361,"x_min":258,"x_max":1103,"o":"m 1061 957 q 1033 922 1040 957 q 1026 835 1026 886 q 1025 772 1026 783 q 1004 733 1021 742 q 938 715 961 708 q 917 772 915 721 q 910 865 921 846 q 897 880 906 874 q 877 891 888 886 q 857 896 867 896 q 838 888 842 897 q 835 856 833 878 q 843 794 835 836 q 850 732 851 747 q 779 700 847 703 q 688 711 732 699 q 628 743 643 724 q 619 768 618 754 q 628 792 621 782 q 644 808 635 803 q 684 811 650 811 q 725 815 718 811 q 746 854 732 818 q 776 1008 779 939 q 732 1076 775 1067 q 690 1081 724 1079 q 471 1082 563 1088 q 383 1063 413 1078 q 351 1021 347 1043 q 436 994 360 986 q 500 986 485 1000 q 514 936 511 975 q 508 879 517 897 q 485 872 506 874 q 442 869 465 869 q 413 868 419 869 q 373 832 392 861 q 360 786 354 803 q 382 772 364 772 q 422 781 392 774 q 486 794 468 793 q 544 757 536 796 q 525 692 558 697 q 363 693 413 672 q 319 707 329 706 q 271 688 286 711 q 261 662 263 676 q 261 638 260 647 q 267 599 263 628 q 269 532 271 581 q 275 453 268 479 q 467 304 306 324 q 490 303 476 303 l 506 304 l 526 308 q 572 317 560 315 q 611 294 606 317 q 613 196 618 274 q 611 156 611 178 q 597 33 608 76 q 557 -54 586 -11 q 518 -92 549 -65 q 485 -122 488 -119 q 469 -167 463 -149 q 517 -169 479 -190 q 544 -146 533 -160 q 576 -94 556 -132 q 611 -39 600 -50 q 628 -25 621 -29 q 643 -22 636 -21 q 657 -28 650 -22 q 669 -40 664 -33 q 682 -57 675 -46 q 713 -108 689 -68 q 744 -154 728 -136 q 831 -225 803 -218 q 853 -209 849 -231 q 851 -172 858 -187 q 806 -101 844 -156 q 763 -36 774 -56 q 754 -16 758 -28 q 738 28 750 -4 q 702 156 708 111 q 697 310 696 201 q 696 500 700 453 q 690 536 694 524 l 689 546 q 686 556 688 553 q 700 613 674 607 q 742 617 707 614 l 775 618 l 792 621 q 838 628 822 628 q 860 626 854 629 q 869 614 865 624 q 878 543 875 601 q 878 528 878 538 q 878 513 878 518 q 879 499 879 507 q 880 486 879 490 q 882 476 881 482 q 885 466 883 469 q 889 459 886 463 q 894 453 892 456 q 901 451 897 451 q 933 471 924 447 q 935 568 943 492 q 931 622 929 608 q 944 651 932 644 q 986 661 956 658 q 1037 674 1025 665 q 1061 715 1049 683 q 1099 861 1090 785 q 1101 903 1101 885 q 1092 945 1100 932 q 1061 957 1083 958 m 681 1008 q 697 963 696 993 q 680 890 699 924 q 626 871 661 856 q 598 943 593 888 q 631 1014 603 999 q 658 1018 643 1019 q 681 1008 672 1017 m 431 606 q 446 514 442 578 q 446 415 450 450 q 444 407 446 413 q 442 392 444 396 q 432 388 440 389 q 397 399 415 383 q 359 464 378 417 q 341 560 340 511 q 371 626 342 610 q 408 628 392 635 q 431 606 424 621 m 565 621 q 598 587 583 614 q 619 526 613 560 q 627 458 625 493 q 622 401 629 424 q 608 373 617 382 q 581 364 599 364 q 544 371 561 363 q 528 383 532 376 q 521 407 524 390 q 518 511 518 435 q 522 597 518 588 q 540 617 528 608 q 565 621 553 625 "},"余":{"ha":1361,"x_min":214,"x_max":1140,"o":"m 553 1089 q 542 1083 544 1088 q 390 819 467 982 q 267 511 313 656 q 231 373 247 447 q 231 300 215 299 q 244 308 236 300 q 289 400 258 324 q 328 489 319 476 q 360 511 336 503 q 404 522 385 519 q 467 526 424 524 q 524 531 486 528 q 592 538 563 535 q 632 540 622 540 q 642 540 635 540 q 687 534 675 540 q 703 499 699 528 q 707 422 704 490 q 715 315 710 353 q 725 217 725 235 q 725 206 725 213 q 713 140 725 140 q 701 146 708 140 q 688 163 696 150 q 676 181 681 175 l 672 185 q 663 199 669 190 q 650 217 657 207 q 635 238 643 226 q 619 258 626 249 q 607 274 613 267 q 599 283 601 281 q 562 314 583 300 q 528 331 540 328 q 518 330 521 332 q 515 319 515 328 q 531 285 517 310 q 607 160 556 236 q 665 99 622 136 q 681 85 668 96 q 697 69 693 74 q 710 56 701 65 q 723 40 718 47 q 729 24 728 32 q 735 -31 733 13 q 738 -91 735 -62 q 746 -153 740 -119 q 764 -205 751 -186 q 793 -219 776 -224 q 806 -211 801 -218 q 811 -195 810 -204 q 813 -175 813 -186 q 811 -153 813 -164 q 801 -68 811 -131 q 789 13 792 -12 q 786 83 783 53 q 806 131 789 113 q 842 165 815 142 q 936 289 892 208 q 967 378 963 336 q 939 396 969 413 q 928 388 933 392 q 921 383 924 385 q 914 375 918 381 q 908 367 910 369 q 901 357 907 365 q 894 344 896 349 q 832 257 871 307 q 792 221 804 221 q 782 231 786 221 q 776 275 778 239 q 750 450 772 347 q 739 506 739 496 q 765 546 738 536 q 835 553 778 551 l 886 554 l 904 557 q 969 557 949 564 q 1014 532 983 553 q 1094 486 1046 508 q 1125 475 1115 476 q 1138 489 1139 475 q 1093 563 1135 519 q 1025 625 1067 590 q 956 685 993 651 q 879 758 919 719 q 803 833 839 796 q 735 906 767 871 q 685 968 703 942 q 647 1021 658 1007 q 553 1089 589 1096 m 592 989 q 646 926 614 979 q 697 857 664 897 q 807 743 729 819 q 899 650 890 660 q 904 611 925 622 q 817 603 894 607 q 697 594 779 600 q 547 585 614 589 q 436 582 481 581 q 423 581 431 582 q 408 579 415 581 q 394 576 401 578 q 383 576 388 575 q 373 579 378 576 q 367 588 368 582 q 368 603 367 593 q 419 707 375 633 q 438 740 435 732 q 453 782 442 749 q 497 883 479 865 q 513 892 501 888 q 528 903 525 897 q 539 935 531 908 q 560 981 550 971 q 592 989 574 997 "},"作":{"ha":1361,"x_min":350,"x_max":1017,"o":"m 860 -112 q 853 -96 858 -104 q 751 -50 836 -72 q 593 33 672 -29 q 579 107 544 72 q 628 143 590 119 q 767 257 675 172 q 850 332 833 318 q 925 385 882 361 q 992 436 972 413 q 1007 457 1003 450 q 949 454 1017 482 q 633 224 840 408 q 579 179 596 190 q 521 153 540 151 q 501 162 507 154 q 492 178 494 169 q 488 207 490 188 q 471 294 485 239 q 451 379 456 356 q 451 451 444 425 q 456 467 454 461 q 459 478 458 474 q 459 490 460 483 q 458 501 458 496 q 456 517 458 506 q 453 539 454 529 q 439 641 451 554 q 423 781 426 728 q 424 879 419 835 q 424 885 424 882 q 406 1051 440 1043 q 385 1047 392 1056 q 372 1018 379 1039 q 353 810 350 940 q 358 590 357 600 q 385 394 364 521 q 394 331 388 371 q 402 276 400 292 q 410 233 404 261 q 423 187 417 206 q 440 142 429 168 q 465 86 451 117 q 513 14 488 43 q 582 -55 544 -22 q 644 -100 619 -87 q 751 -135 676 -115 q 786 -142 772 -139 q 820 -145 800 -144 q 850 -137 840 -146 q 860 -112 860 -129 m 582 793 q 575 657 585 735 q 565 519 563 569 q 586 435 569 451 q 665 440 610 413 q 731 479 689 451 q 772 508 763 500 q 804 539 782 515 q 853 583 835 571 q 907 628 892 610 q 897 656 928 651 q 854 651 871 658 q 813 624 838 643 q 746 560 800 614 q 664 504 696 513 q 628 508 639 499 q 622 542 617 517 q 631 597 629 578 q 633 624 631 603 q 638 671 635 644 q 645 725 642 697 q 651 775 649 753 q 656 806 654 797 q 645 879 658 842 q 617 924 632 917 q 594 919 603 929 q 584 888 586 908 q 581 842 582 868 q 582 793 581 817 "},"使":{"ha":1361,"x_min":425,"x_max":931,"o":"m 685 1100 q 676 1043 681 1090 q 657 932 672 993 q 640 842 642 875 q 633 814 640 815 q 626 818 632 815 q 593 856 619 824 q 524 950 554 906 q 461 1033 481 1013 q 442 1044 449 1044 q 439 1014 426 1044 q 456 974 449 989 q 476 942 464 960 q 519 889 489 925 q 537 867 524 883 q 564 833 550 850 q 592 799 578 817 q 615 771 606 782 q 624 758 624 760 q 625 751 625 757 q 621 742 625 744 q 601 739 617 740 q 594 739 597 739 q 582 738 589 739 q 569 736 575 736 q 556 735 563 736 q 542 734 549 735 q 531 733 536 733 q 516 736 521 733 q 510 743 511 739 q 510 760 510 747 q 510 765 510 764 l 508 782 q 506 794 508 786 q 503 806 504 801 q 499 815 501 810 q 492 822 496 819 q 483 824 488 824 q 478 822 479 824 q 479 736 475 819 q 489 601 482 640 q 499 551 494 564 q 503 538 500 543 q 511 531 506 533 q 523 528 517 529 q 540 528 529 528 q 577 527 553 528 q 608 525 601 526 q 631 522 626 525 q 639 506 636 519 q 642 424 642 493 q 644 243 642 349 l 647 172 q 663 139 656 140 q 674 144 671 136 q 678 160 678 151 q 683 175 679 169 q 696 176 686 181 q 717 153 696 175 q 762 106 739 131 q 788 74 785 81 q 786 39 794 60 q 782 27 783 32 q 778 14 781 22 q 774 -3 776 6 q 760 -68 763 -40 q 766 -69 763 -71 q 772 -67 769 -68 q 776 -63 774 -67 q 779 -58 778 -60 q 783 -50 781 -56 q 789 -42 786 -44 q 826 10 814 -3 q 851 -45 836 -4 q 867 -97 865 -86 q 907 -217 878 -160 q 914 -228 913 -226 q 926 -235 925 -236 q 928 -203 931 -224 q 918 -151 925 -183 q 911 -114 911 -118 q 869 21 904 -51 q 849 97 850 61 q 851 135 849 115 q 850 220 857 168 q 832 306 843 272 q 823 322 829 313 q 814 332 817 331 q 801 333 804 336 q 799 317 799 329 q 803 273 800 306 q 808 212 806 240 q 810 178 810 183 l 810 175 q 810 163 810 167 q 796 136 807 129 q 758 169 786 142 q 711 229 728 199 q 697 247 704 240 q 680 274 682 263 q 681 319 678 286 q 678 475 686 400 q 677 517 672 503 q 706 526 682 531 q 753 519 733 522 l 849 524 q 867 543 865 528 q 860 607 868 550 q 840 722 850 665 q 803 818 826 796 q 793 804 799 814 q 799 761 794 792 q 803 710 803 722 q 801 697 801 697 q 783 702 800 696 q 763 710 767 708 q 694 733 738 726 q 668 751 672 738 q 668 806 664 765 q 701 960 674 882 q 713 1031 713 992 q 704 1106 714 1071 q 700 1118 700 1117 q 685 1100 692 1114 m 558 708 q 587 710 564 708 q 619 708 610 711 q 633 694 629 706 q 633 648 635 692 q 632 599 632 604 q 635 575 635 583 q 631 560 635 567 q 621 553 628 554 q 600 551 614 551 q 591 549 594 550 q 587 548 588 549 q 585 549 586 547 q 569 551 582 549 q 552 554 556 553 q 542 559 549 556 q 532 569 535 563 q 529 583 529 575 q 524 664 526 613 q 525 707 521 703 q 558 708 526 707 m 739 683 q 782 668 764 675 q 811 654 804 661 q 821 626 818 647 q 823 613 821 624 q 826 591 825 601 q 828 578 828 581 q 824 566 828 571 q 815 558 821 561 q 803 553 808 556 q 786 551 797 551 q 768 550 775 550 q 747 551 761 550 q 726 551 732 551 q 713 551 721 551 q 702 551 706 551 q 694 551 699 551 q 687 552 689 551 q 682 554 685 553 q 678 558 679 556 q 675 563 676 560 q 673 578 674 565 q 672 608 672 592 q 671 643 671 625 q 671 672 671 661 q 671 686 671 683 q 685 700 674 700 q 739 683 693 700 "},"侍":{"ha":1361,"x_min":236,"x_max":1131,"o":"m 781 1022 q 778 829 763 915 q 769 783 783 793 q 715 756 747 767 q 683 750 690 746 q 678 782 676 754 q 678 833 681 815 q 663 856 675 851 q 640 842 647 860 q 627 778 633 826 q 617 679 621 729 q 615 604 614 629 q 639 456 617 547 q 706 268 674 319 q 740 233 724 238 q 754 235 750 231 q 783 285 761 240 q 806 363 796 313 q 836 601 821 444 q 838 644 838 628 q 837 671 838 654 q 835 699 836 688 q 835 723 835 711 q 836 742 835 735 q 844 767 839 758 q 856 778 850 775 q 886 788 863 781 q 909 796 894 792 q 927 802 924 800 q 939 808 931 804 q 951 815 947 811 q 962 824 956 818 q 976 840 968 831 q 1069 938 1028 904 q 1075 942 1072 939 q 1122 1004 1129 983 q 1103 1017 1115 1018 q 1079 1006 1092 1015 q 1043 974 1067 997 q 997 935 1033 964 q 946 896 961 906 q 924 881 942 893 q 894 860 907 869 q 876 850 881 851 q 854 841 861 842 q 844 847 847 840 q 842 874 842 854 q 842 922 842 882 q 843 985 843 961 q 843 1024 843 1008 q 840 1046 840 1040 q 836 1061 839 1051 q 828 1074 833 1071 q 814 1078 822 1078 q 794 1068 801 1078 q 785 1050 788 1058 q 781 1022 783 1042 m 769 617 q 758 511 760 572 q 751 415 754 436 q 732 376 744 379 q 708 399 719 374 q 686 464 696 422 q 672 551 676 506 q 669 629 667 596 q 682 683 672 667 q 724 707 692 699 q 749 710 739 708 q 765 703 760 711 q 774 688 771 694 q 776 668 776 682 q 774 644 775 654 q 769 617 772 633 m 436 992 q 433 938 431 976 q 435 899 433 918 q 432 819 436 874 q 424 744 428 764 q 403 683 417 701 q 354 649 389 665 q 301 613 315 629 q 281 576 285 596 q 286 553 276 560 q 310 554 296 546 q 339 579 319 560 q 429 638 374 615 q 461 652 451 646 q 474 671 471 658 q 475 719 476 678 q 483 818 475 763 q 494 904 494 886 q 484 962 493 931 q 461 1004 475 993 q 451 1006 456 1008 q 442 999 446 1003 q 436 992 439 996 m 371 318 q 384 304 379 318 q 393 256 389 290 q 410 19 401 183 q 417 -101 414 -60 q 433 -183 422 -164 q 454 -203 442 -199 q 483 -183 475 -208 q 489 -124 490 -158 q 471 -6 486 -93 q 460 68 461 47 q 457 222 453 106 q 460 365 461 339 q 444 453 457 429 q 413 465 433 469 q 394 455 401 463 q 381 428 388 447 q 372 410 376 418 q 361 392 368 401 q 350 378 354 383 q 335 361 346 372 q 318 343 325 350 q 282 299 292 311 q 267 279 272 288 q 256 253 263 271 q 251 242 254 250 q 248 233 249 235 q 244 226 247 232 q 242 217 242 219 q 240 210 242 215 q 239 201 239 206 q 238 192 239 197 q 238 181 238 188 q 283 198 256 164 q 335 275 310 232 q 371 318 361 318 "},"侑":{"ha":1361,"x_min":490,"x_max":872,"o":"m 593 1071 q 593 1049 592 1069 q 632 888 597 982 q 659 804 644 849 q 686 724 674 760 q 719 615 714 644 q 719 582 722 594 q 640 596 707 528 q 551 694 583 656 q 542 707 549 699 q 531 723 536 715 q 521 733 525 731 q 501 733 511 742 q 497 713 492 724 q 554 640 508 694 q 574 615 574 618 q 588 590 574 610 q 605 568 594 581 q 622 548 615 556 q 638 528 629 540 q 650 507 647 517 q 655 482 653 497 q 653 453 657 467 q 578 354 650 442 q 550 321 561 335 q 542 306 542 313 q 560 289 542 289 q 582 310 565 290 q 657 400 611 343 q 678 426 676 425 q 711 418 696 432 q 739 363 728 403 q 764 199 751 319 q 796 4 768 153 q 818 -169 815 -107 q 826 -222 821 -211 q 844 -232 832 -232 q 858 -224 853 -232 q 858 -126 872 -200 q 846 -15 856 -111 q 842 19 844 -3 q 793 346 819 240 q 764 433 775 415 q 747 455 760 440 q 728 481 733 469 q 729 510 724 493 q 749 553 732 519 q 762 605 760 576 q 760 657 764 633 q 744 718 756 681 q 687 879 731 769 q 614 1043 643 989 q 593 1071 597 1076 "},"依":{"ha":1361,"x_min":281,"x_max":1081,"o":"m 693 1057 q 676 1001 685 1044 q 653 933 664 949 q 603 893 646 924 q 439 789 569 868 q 364 743 378 751 q 322 710 328 719 q 408 717 314 690 q 633 856 560 761 q 692 908 671 901 q 721 899 707 913 q 761 847 738 883 q 879 713 800 785 q 978 642 938 657 q 1058 618 1029 622 q 1072 617 1067 617 q 1078 621 1076 618 q 1079 629 1081 624 q 1056 664 1078 643 q 1000 707 1036 683 q 981 721 988 715 q 800 886 861 821 q 739 964 753 936 q 735 988 735 974 q 719 1067 738 1060 q 693 1057 704 1074 m 676 781 q 640 742 661 775 q 603 661 621 708 q 581 586 585 614 q 583 550 579 568 q 607 493 588 529 q 624 454 622 465 q 619 403 625 443 q 617 353 615 368 q 653 167 633 213 q 663 149 658 153 q 681 146 667 144 q 700 182 701 146 q 688 264 700 207 q 675 328 676 314 q 681 383 674 342 q 685 426 686 415 q 681 450 685 439 q 657 490 676 461 q 638 522 643 511 q 634 546 633 532 q 646 574 635 560 q 656 581 653 581 q 667 575 658 581 q 744 535 714 542 q 765 536 758 532 q 774 553 775 542 q 765 574 774 565 q 714 608 756 582 q 678 636 686 625 q 671 650 671 643 q 685 696 669 658 q 704 750 700 733 q 700 782 710 775 q 692 782 697 782 q 683 782 688 782 q 676 781 678 782 m 424 490 q 415 401 425 465 l 413 374 l 413 346 q 449 109 414 217 q 543 -65 483 1 q 651 -149 581 -107 q 776 -204 722 -190 q 856 -192 842 -221 q 852 -162 864 -175 q 826 -144 840 -150 q 790 -132 811 -137 q 661 -89 706 -110 q 542 6 583 -53 q 485 161 501 64 q 472 278 478 201 q 468 394 467 354 q 472 456 468 396 q 475 526 476 515 q 449 590 474 579 q 424 590 438 594 q 358 554 406 586 q 293 506 310 522 q 282 486 282 493 q 290 475 281 479 q 311 474 300 471 q 354 500 321 476 q 401 525 388 524 q 413 524 408 525 q 420 517 418 522 q 423 506 422 511 q 424 490 424 501 m 879 529 q 878 504 872 519 q 883 465 883 485 q 876 293 886 404 q 866 200 875 281 q 849 45 857 119 q 840 -37 842 -29 q 846 -78 840 -57 q 860 -101 851 -99 q 870 -101 865 -104 q 878 -88 875 -99 q 884 -70 882 -78 q 889 -46 886 -62 q 890 -37 890 -40 q 919 143 903 29 q 940 317 935 257 q 938 372 942 349 q 932 419 931 394 q 950 439 933 443 q 981 413 957 436 q 1013 385 1004 390 q 1036 383 1026 378 q 1050 399 1046 388 q 1053 425 1054 410 q 1042 443 1053 432 q 910 526 993 486 q 889 535 892 535 q 879 529 886 535 "},"侮":{"ha":1361,"x_min":308,"x_max":1051,"o":"m 932 1051 q 950 947 933 1024 q 965 861 967 883 q 931 811 963 839 q 868 726 904 788 q 829 658 849 696 q 790 572 810 619 q 768 499 771 525 q 779 464 767 471 q 808 474 792 457 q 842 543 821 486 q 878 627 864 600 q 924 706 892 654 q 992 738 976 792 q 985 624 1007 688 q 948 548 981 613 q 911 472 915 483 q 897 376 894 424 q 929 111 903 296 q 958 -54 953 -47 q 965 -61 961 -61 q 972 -56 969 -61 q 988 51 990 -28 q 969 210 986 99 q 951 346 953 321 q 960 435 949 396 q 999 519 968 465 q 1028 575 1018 556 q 1041 613 1036 594 q 1048 651 1046 632 q 1050 692 1050 669 q 1048 738 1050 715 q 1043 789 1046 760 q 961 1083 1018 981 q 949 1099 953 1099 q 944 1097 947 1099 q 933 1084 935 1093 q 932 1051 932 1075 m 718 -43 q 715 61 715 33 q 724 131 715 89 q 725 185 731 172 q 703 199 717 199 q 676 186 690 199 q 639 142 665 176 q 633 135 636 139 q 547 61 567 49 q 546 125 529 72 q 579 181 553 143 q 601 214 593 201 q 620 244 610 226 q 635 277 631 263 q 642 311 639 292 q 645 351 646 331 q 639 396 644 372 q 631 419 638 406 q 622 440 625 432 q 619 460 618 449 q 629 482 619 472 q 683 515 642 496 q 729 544 719 531 q 739 571 739 557 q 724 615 738 582 q 706 665 707 651 q 714 732 706 679 q 719 786 719 771 q 688 806 718 821 q 640 761 674 799 l 633 753 q 600 735 607 722 q 579 835 590 753 q 576 863 578 853 q 574 899 575 874 q 570 943 572 924 q 564 983 568 963 q 551 1013 560 1003 q 529 1018 542 1022 q 510 964 507 1013 q 525 875 511 936 q 532 600 574 660 q 482 571 513 572 q 456 576 475 571 q 445 576 450 578 q 438 569 440 574 q 436 560 436 565 q 442 536 436 558 q 444 510 449 514 q 406 519 428 492 q 383 554 400 526 q 357 589 367 582 q 339 599 347 599 q 324 593 329 599 q 310 576 313 586 q 315 553 308 567 q 326 532 321 540 q 342 510 332 524 q 346 504 344 506 q 383 444 383 454 q 383 437 385 442 q 380 428 382 432 q 374 418 378 425 q 368 407 369 411 q 340 340 340 354 q 342 335 340 338 q 347 331 344 332 q 352 332 349 331 q 358 335 356 333 q 364 342 360 338 q 371 349 368 346 q 379 358 374 353 q 410 392 401 385 q 428 399 419 399 q 458 385 432 399 q 503 368 490 368 q 514 372 510 368 q 518 378 517 375 q 519 384 519 381 q 517 390 518 388 q 514 397 517 393 q 510 404 511 401 q 504 413 508 407 q 497 421 500 418 q 478 457 479 447 q 481 465 476 463 q 497 472 485 468 q 521 476 508 475 q 544 478 533 478 q 565 476 556 478 q 575 468 574 474 q 581 448 578 464 q 586 413 583 432 q 592 374 589 393 q 596 340 594 354 q 596 322 597 325 q 563 254 593 293 q 507 182 554 242 q 478 115 483 147 q 479 74 474 90 q 500 35 485 57 q 517 4 514 15 q 499 -42 521 -7 q 476 -81 482 -69 q 469 -107 469 -96 q 485 -126 471 -125 q 510 -117 499 -128 q 557 -49 529 -97 q 615 38 585 -3 q 660 85 651 88 q 668 1 669 82 q 669 -110 665 -75 q 688 -208 678 -181 q 701 -226 694 -228 q 718 -43 725 -226 m 668 668 q 651 660 665 654 q 647 675 639 665 q 659 676 651 679 q 668 668 667 672 m 660 563 q 628 559 643 550 q 606 582 614 568 q 602 612 599 597 q 619 626 606 626 q 659 603 642 628 q 660 563 676 579 m 532 535 q 533 551 526 542 q 544 561 539 561 q 551 536 556 560 q 532 535 547 515 "},"侯":{"ha":1361,"x_min":454,"x_max":914,"o":"m 474 275 q 507 331 490 276 q 518 421 515 360 q 524 706 519 440 q 522 777 524 715 q 521 846 521 839 q 535 899 524 883 q 585 935 547 915 q 625 954 599 942 q 685 981 651 967 q 733 1004 718 996 q 751 1013 740 1007 q 772 1022 765 1018 q 822 1074 842 1054 q 797 1083 813 1082 q 767 1079 781 1083 q 742 1068 753 1075 q 678 1031 686 1035 q 547 968 575 983 q 472 907 483 933 q 468 853 467 897 q 463 504 472 703 q 460 470 463 503 q 457 410 458 438 q 456 349 456 382 q 460 295 456 315 q 474 275 465 275 m 675 746 q 636 690 671 735 q 597 640 608 656 q 572 590 576 610 q 576 564 567 574 q 599 558 586 554 q 644 606 618 565 q 676 647 669 643 q 682 644 679 649 q 688 628 685 639 q 692 608 690 618 q 696 586 693 599 q 701 511 699 565 q 718 386 706 418 q 734 319 735 347 q 714 243 733 292 q 697 206 710 233 q 658 99 665 133 q 653 42 651 69 q 656 19 654 28 q 663 0 658 11 q 681 -39 667 -11 q 696 -82 696 -72 q 694 -89 696 -86 q 656 -128 692 -94 q 590 -190 603 -175 q 574 -214 578 -204 q 581 -235 567 -229 q 611 -236 594 -242 q 671 -189 628 -231 q 726 -143 706 -154 q 764 -135 746 -133 q 810 -149 771 -136 q 860 -164 849 -162 q 901 -162 892 -168 q 896 -142 914 -157 q 853 -114 886 -132 q 829 -97 838 -106 q 819 -87 824 -92 q 814 -78 815 -83 q 811 -69 813 -72 q 811 -59 810 -65 q 813 -50 813 -53 q 818 -40 814 -47 q 823 -31 822 -33 q 829 -20 824 -29 q 836 -10 835 -11 q 860 43 854 24 q 864 82 865 58 q 857 123 864 104 q 843 152 850 142 q 822 182 836 163 q 815 192 818 189 q 788 247 793 221 q 776 336 782 274 q 763 467 771 421 q 749 581 749 550 q 750 601 749 593 q 755 612 751 610 q 762 614 758 614 q 772 609 765 614 q 783 600 779 604 q 797 588 788 596 q 804 582 801 585 q 810 577 807 579 q 819 569 813 575 q 828 559 825 563 q 839 551 832 556 q 851 543 846 546 q 862 539 856 540 q 875 538 868 538 q 894 547 888 538 q 896 569 900 557 q 821 644 885 600 q 772 686 783 671 q 749 737 769 689 q 728 785 728 785 q 699 810 714 811 q 682 800 686 810 q 678 772 678 790 q 675 746 678 754 m 796 124 q 792 42 806 85 q 749 -3 778 -1 q 739 -1 742 -3 q 718 40 719 7 q 726 104 717 74 q 744 147 735 135 q 776 154 760 163 q 796 124 792 146 "},"侵":{"ha":1361,"x_min":307,"x_max":1054,"o":"m 507 961 q 506 926 506 933 q 515 912 506 917 q 531 917 524 907 q 533 931 532 919 q 536 996 538 983 q 531 1033 536 1019 q 511 1040 525 1047 q 505 1031 506 1038 q 506 1013 504 1025 q 508 994 508 1000 q 508 975 508 989 q 507 961 507 961 m 772 1033 q 751 1047 767 1051 q 743 1019 735 1043 q 771 953 751 1000 q 814 839 807 871 q 817 811 817 832 q 811 790 817 790 q 779 828 807 790 q 736 872 753 863 q 723 874 729 878 q 717 863 717 871 q 724 851 717 857 q 760 810 735 843 q 792 772 786 778 q 797 765 797 768 q 800 760 797 763 q 822 679 821 729 q 803 622 825 636 q 792 626 800 619 q 713 683 738 671 q 697 683 704 688 q 690 669 689 678 q 703 651 690 660 q 764 608 731 635 q 777 597 774 601 q 783 590 781 593 q 789 578 785 586 q 813 465 810 524 q 767 315 815 371 q 717 269 761 308 q 669 226 674 231 q 640 165 644 199 q 639 157 639 160 q 682 168 640 133 q 696 178 692 176 q 733 224 704 183 q 772 276 763 265 q 790 288 785 290 q 796 264 796 285 q 785 181 797 229 q 779 162 785 181 q 767 123 774 143 q 756 83 761 103 q 749 56 750 63 q 751 44 749 49 q 741 25 750 42 q 725 -7 732 8 q 715 -28 718 -22 q 720 -43 713 -36 q 736 -44 728 -50 q 749 -22 739 -42 q 767 13 758 -3 q 778 34 775 28 q 788 55 782 40 q 803 96 793 69 q 851 775 881 328 q 849 818 850 804 q 821 918 847 856 q 806 953 818 925 q 784 1005 794 981 q 772 1033 774 1029 m 332 917 q 329 886 328 914 q 324 813 329 856 q 318 721 317 751 q 357 617 319 656 q 361 610 361 613 q 374 589 361 606 q 418 546 385 574 q 457 510 447 522 q 465 485 464 501 q 463 431 465 478 q 463 374 461 383 q 461 365 463 368 q 460 357 460 361 q 456 335 461 343 q 440 335 450 326 q 426 353 429 346 q 343 454 388 411 q 322 465 329 467 q 308 450 308 464 q 322 429 308 443 q 383 358 354 400 q 406 325 404 329 q 428 293 408 308 q 450 258 449 276 q 451 249 450 253 q 454 233 453 246 q 451 160 454 225 q 447 88 447 94 q 456 51 449 57 q 467 49 460 49 q 479 57 478 50 q 478 82 481 64 q 482 171 476 106 q 483 238 485 211 q 490 284 483 265 q 507 312 497 303 q 539 338 517 321 q 547 343 544 340 q 642 424 585 369 q 665 447 661 443 q 668 458 668 451 q 650 475 667 476 q 639 472 643 475 q 616 453 631 467 q 588 425 601 439 q 571 410 574 411 q 551 397 561 401 q 533 386 540 393 q 503 368 511 369 q 492 374 494 368 q 490 392 490 375 q 492 427 490 408 q 494 467 493 446 q 493 494 494 488 l 493 506 q 538 563 508 535 q 547 573 543 568 q 554 581 551 578 q 631 690 611 626 q 650 869 650 754 q 653 972 650 936 q 654 988 654 985 q 642 1000 654 999 q 626 993 631 1001 q 621 888 621 982 q 615 771 619 801 q 532 600 603 651 q 521 599 531 600 q 512 599 515 597 q 507 608 508 601 q 506 619 506 614 q 507 633 506 624 q 504 676 508 669 q 472 614 486 700 q 464 574 467 576 q 424 601 456 565 q 396 632 401 628 q 386 635 390 636 q 378 640 382 635 q 353 683 361 657 q 349 744 347 717 q 355 818 350 772 q 360 881 360 864 q 360 897 360 892 q 358 909 360 901 q 353 919 357 917 q 342 922 349 922 q 334 919 336 921 q 332 917 332 917 m 426 736 q 427 750 426 742 q 428 763 428 758 q 427 774 428 768 q 423 782 426 779 q 414 785 419 785 q 397 765 400 785 q 396 722 393 744 q 404 692 399 700 q 421 687 410 683 q 432 700 432 690 q 429 716 432 706 q 426 736 426 726 m 583 511 q 582 496 583 510 q 579 468 581 482 q 579 451 578 454 q 593 444 583 440 q 604 458 603 447 q 606 476 604 464 q 609 499 608 489 q 609 518 610 508 q 604 534 608 528 q 592 539 600 540 q 583 538 586 539 q 580 532 581 536 q 579 526 579 528 q 581 518 579 524 q 583 511 583 513 m 965 428 q 996 364 978 410 l 1006 336 l 1007 319 q 954 171 1007 239 q 932 145 944 158 q 918 133 919 132 q 903 156 917 135 q 875 196 882 189 q 864 200 871 200 q 853 194 857 200 q 851 182 850 189 q 861 167 851 179 q 881 138 871 153 q 887 128 883 133 q 892 122 890 122 q 893 118 893 121 q 893 113 893 115 q 892 107 893 111 q 853 57 886 93 q 822 22 828 31 q 815 7 815 14 q 817 0 815 3 q 823 -4 819 -3 q 830 -5 826 -6 q 836 -3 833 -4 q 843 1 839 -3 q 850 6 847 4 q 857 12 853 8 q 861 15 861 15 q 890 35 883 33 q 903 10 903 35 q 899 -39 904 -15 q 897 -49 899 -46 q 888 -144 888 -125 q 893 -164 889 -160 q 911 -158 903 -175 q 924 -121 919 -140 q 931 -29 928 -96 q 938 63 936 54 q 953 100 940 79 q 992 151 961 114 q 1040 224 1029 197 q 1053 285 1054 254 q 1048 319 1051 306 q 1037 348 1044 332 q 1026 372 1029 364 q 997 436 1008 418 q 988 450 992 447 q 973 455 979 457 q 964 444 967 453 q 965 428 961 435 "},"保":{"ha":1361,"x_min":419,"x_max":944,"o":"m 554 960 q 563 896 556 924 q 574 862 568 872 q 592 846 581 851 q 626 838 603 840 q 672 826 658 832 q 692 799 686 819 q 692 760 697 781 q 678 733 688 739 q 649 740 671 731 q 610 743 621 751 q 603 731 603 739 q 621 711 603 722 q 663 691 639 700 q 691 678 686 682 q 700 663 696 674 q 724 576 707 644 q 750 467 729 549 q 764 408 764 415 q 749 397 764 399 q 683 429 721 397 q 670 443 675 438 q 665 458 665 449 q 664 472 664 467 q 667 492 664 476 q 671 518 669 508 q 661 588 678 568 q 647 599 657 592 q 632 610 636 606 q 590 650 622 621 q 540 699 554 682 q 534 707 539 701 q 528 715 529 713 q 523 722 526 717 q 519 728 519 726 q 515 734 518 729 q 513 742 513 739 q 510 751 513 744 q 509 761 508 757 q 508 773 510 765 q 508 788 507 781 q 511 951 514 917 q 508 978 510 968 q 503 1002 507 989 q 493 1022 500 1015 q 475 1028 486 1028 q 456 1017 461 1028 q 450 992 450 1006 q 454 956 450 978 q 469 885 457 936 q 469 810 478 851 q 442 706 465 786 q 419 596 419 635 q 433 535 421 560 q 456 509 442 519 q 507 481 471 499 q 525 472 513 478 q 559 456 549 461 q 581 440 569 450 q 596 417 593 429 q 599 388 599 406 q 593 343 599 369 q 572 262 590 332 q 551 181 554 192 q 544 35 546 147 q 556 -119 543 -83 q 579 -168 567 -149 q 593 -181 588 -179 q 599 -181 596 -182 q 603 -175 601 -179 q 605 -168 604 -171 q 607 -160 606 -165 q 607 -60 611 -128 q 622 313 593 168 q 635 362 626 336 q 649 393 644 388 q 669 393 654 397 q 726 365 682 390 q 786 340 767 343 q 825 340 803 338 q 929 396 899 351 q 940 446 944 417 q 915 531 935 485 q 876 601 896 578 q 860 617 867 614 q 838 608 842 625 q 840 576 833 592 q 857 540 843 572 q 882 479 881 490 q 878 456 886 463 q 852 468 867 447 q 829 490 838 489 q 819 486 822 490 q 815 475 815 482 q 826 438 815 467 q 843 392 843 399 q 825 382 843 379 q 810 394 815 383 q 783 481 799 419 q 751 639 753 601 q 753 664 750 660 q 775 668 757 668 q 819 665 779 668 q 881 667 860 661 q 900 690 901 672 q 892 704 900 700 q 876 708 885 708 q 850 706 868 708 q 842 706 844 706 q 742 728 776 697 q 725 819 708 760 q 733 834 728 829 q 742 841 738 839 q 763 847 747 843 q 813 942 811 861 q 776 1025 814 1001 q 632 1063 714 1064 q 567 1038 582 1061 q 554 960 551 1015 m 756 949 q 754 908 763 928 q 731 883 746 889 q 680 873 711 876 q 631 872 649 869 q 604 921 606 878 q 613 979 603 953 q 624 1001 618 996 q 647 1011 631 1007 q 715 998 683 1018 q 756 949 747 978 m 514 672 q 567 621 529 654 q 608 579 599 592 q 623 547 617 568 q 624 505 629 525 q 599 485 619 485 q 517 524 563 483 q 483 565 496 543 q 469 613 469 588 q 488 658 469 639 q 510 676 504 676 q 514 672 511 676 "},"倉":{"ha":1361,"x_min":440,"x_max":915,"o":"m 624 990 q 590 915 617 957 q 532 837 585 908 q 475 758 479 765 q 450 701 457 728 q 457 665 442 664 q 513 714 472 665 q 561 761 542 750 q 615 775 581 771 q 676 792 633 778 q 740 804 722 807 q 759 791 751 803 q 772 765 767 779 q 782 744 778 750 q 828 709 797 726 q 882 686 860 692 q 907 685 899 683 q 914 697 915 688 q 908 715 913 706 q 893 739 903 725 q 808 825 871 769 q 750 883 768 863 q 710 944 732 904 q 676 1000 685 988 q 656 1021 665 1013 q 635 1032 639 1032 q 626 1024 628 1032 q 624 1006 624 1015 q 624 990 625 997 m 661 921 q 678 908 669 915 q 699 887 686 900 q 715 864 713 874 q 714 844 718 854 q 664 833 711 842 q 608 828 617 825 q 604 839 604 829 q 643 917 604 868 q 653 926 650 926 q 661 921 654 926 m 728 679 q 731 633 725 665 q 735 598 736 607 q 715 586 733 589 q 624 574 685 579 q 585 572 589 569 q 575 588 581 578 q 564 603 569 599 q 550 604 558 607 q 536 525 531 597 q 557 344 540 451 q 599 185 574 231 q 620 158 608 165 q 656 147 632 150 q 717 149 664 147 q 788 147 779 151 q 807 104 796 143 q 828 50 821 61 q 840 42 833 40 q 853 72 850 42 q 854 135 856 110 q 838 257 851 161 q 811 476 819 389 q 765 668 803 574 q 747 700 754 694 q 735 697 740 706 q 728 679 729 688 m 740 535 q 749 511 744 531 q 761 400 763 456 q 754 356 761 363 q 692 341 740 343 q 621 350 644 339 q 595 402 601 358 q 599 488 589 446 q 631 533 610 529 q 690 540 654 538 q 740 535 725 542 m 760 294 q 778 244 771 274 q 776 197 785 215 q 736 180 769 182 q 672 185 703 178 q 636 200 642 193 q 625 240 629 208 q 626 288 621 272 q 629 293 626 290 q 636 298 632 296 q 644 301 640 300 q 655 304 649 303 q 666 306 661 306 q 678 307 671 307 q 691 307 686 307 q 704 308 696 307 q 717 308 713 308 q 747 308 742 310 q 760 294 753 307 m 585 -35 q 592 -69 586 -53 q 612 -112 599 -90 q 641 -152 625 -133 q 669 -179 657 -171 q 780 -190 715 -203 q 872 -144 844 -176 q 892 -94 878 -137 q 910 -28 906 -51 q 910 6 914 -3 q 904 8 907 7 q 897 4 901 10 q 889 -5 892 -1 q 881 -17 886 -8 q 874 -29 876 -25 q 867 -40 871 -33 q 856 -59 858 -56 q 844 -64 853 -62 q 696 -57 793 -72 q 686 -56 692 -57 q 678 -55 681 -56 q 671 -53 675 -54 q 665 -51 667 -53 q 660 -48 663 -50 q 656 -43 658 -46 q 651 -36 654 -40 q 607 32 622 22 q 588 17 593 40 q 585 -35 582 -7 m 808 -108 q 806 -125 817 -117 q 747 -146 783 -144 q 722 -143 729 -146 q 692 -119 710 -136 q 681 -90 675 -103 q 808 -108 797 -97 "},"允":{"ha":1361,"x_min":479,"x_max":881,"o":"m 482 1019 q 522 965 488 1001 q 531 954 528 958 q 540 940 533 950 q 553 919 546 931 q 640 742 626 811 q 644 699 644 719 q 629 625 646 685 q 614 561 617 579 q 647 435 600 482 q 646 386 668 414 q 613 218 588 319 q 639 133 617 199 q 664 59 657 86 q 670 -3 671 32 q 654 -69 669 -39 q 651 -87 649 -78 q 664 -97 653 -97 q 674 -94 669 -97 q 679 -86 678 -90 q 686 -72 681 -82 q 700 2 700 -36 q 693 65 700 40 q 668 140 686 90 q 664 154 665 150 q 638 241 644 208 q 640 310 632 274 q 678 378 649 346 q 699 375 683 378 q 765 307 704 374 q 847 190 825 244 q 857 175 853 178 q 872 175 864 171 q 879 189 879 179 q 850 249 878 204 q 760 356 825 290 q 731 388 740 376 q 728 389 729 388 q 718 401 718 399 q 715 411 718 406 q 712 428 711 422 q 721 444 713 435 q 760 517 749 475 q 717 707 792 621 q 707 719 707 717 q 699 736 707 721 q 661 813 689 754 q 628 883 639 861 q 597 934 617 906 q 554 979 576 963 q 515 1028 533 997 q 506 1039 510 1036 q 488 1035 494 1043 q 482 1019 481 1028 m 726 640 q 737 538 747 589 q 692 454 726 486 l 686 454 q 669 460 676 454 q 643 518 644 483 q 658 608 642 553 q 676 678 674 663 q 688 693 679 694 q 726 640 704 692 "},"元":{"ha":1361,"x_min":407,"x_max":957,"o":"m 642 1028 q 555 1023 633 1026 q 467 1019 476 1019 q 419 1007 435 1015 q 407 993 407 1000 q 446 972 407 976 q 613 979 490 968 q 676 985 668 985 q 736 971 679 983 q 830 959 793 958 q 868 982 867 960 q 863 994 868 990 q 768 1020 846 1008 q 642 1028 690 1032 m 450 832 q 431 828 436 829 q 419 823 425 826 q 413 814 413 819 q 421 800 414 808 q 483 774 436 778 q 513 774 492 772 q 551 776 535 775 q 579 776 567 778 q 612 755 599 772 q 628 715 625 738 q 621 669 631 693 q 588 617 615 657 q 540 529 567 589 q 508 440 514 469 q 510 360 497 390 q 556 296 522 329 q 647 136 629 222 q 651 110 650 122 q 654 87 653 97 q 656 64 656 76 q 656 43 656 51 q 655 20 656 35 q 653 -3 654 6 q 651 -29 653 -11 q 650 -58 650 -47 q 647 -157 643 -143 q 669 -168 653 -181 q 700 -125 690 -153 q 715 33 718 -64 q 678 201 711 142 q 624 281 663 229 q 569 358 581 339 q 551 424 550 401 q 571 489 551 446 q 633 582 599 544 q 649 598 643 593 q 663 608 654 603 q 683 614 672 613 q 701 609 693 614 q 715 599 710 604 q 729 583 719 594 q 771 521 738 572 q 811 456 804 469 q 821 439 814 451 q 830 422 828 426 q 838 409 832 418 q 847 396 843 400 q 856 385 850 392 q 868 376 863 379 q 882 368 874 372 q 897 366 892 364 q 905 375 903 368 q 906 391 907 382 q 901 410 906 400 q 869 478 892 439 q 817 564 847 517 q 775 633 788 611 q 746 675 761 658 q 738 682 743 676 q 719 789 631 792 q 761 786 729 789 q 819 781 793 783 q 876 780 846 779 q 927 787 907 781 q 953 807 947 793 q 953 815 956 811 q 949 822 951 819 q 940 827 946 825 q 928 831 933 829 q 915 833 924 832 q 825 842 888 839 q 693 846 763 846 q 556 842 624 846 q 450 832 488 839 "},"兄":{"ha":1361,"x_min":451,"x_max":907,"o":"m 746 -131 q 746 -90 744 -108 q 767 160 757 96 q 792 252 772 194 q 814 340 813 310 q 803 419 815 379 q 768 503 797 439 q 742 589 746 554 q 747 624 739 608 q 765 645 756 639 q 797 661 775 651 q 828 676 819 671 q 903 867 897 715 q 900 1090 906 926 q 883 1121 899 1121 q 867 1096 872 1121 q 858 1001 863 1075 q 856 939 857 950 q 851 916 853 922 q 846 904 850 910 q 833 896 842 899 q 788 897 821 893 q 744 900 757 901 q 721 897 733 900 q 647 878 701 893 q 589 861 593 863 q 521 879 531 850 q 517 949 518 892 q 501 1056 515 1004 q 490 1085 497 1074 q 467 1076 474 1110 q 460 931 453 1018 q 500 756 468 831 q 585 649 532 681 q 631 629 607 635 q 649 626 638 628 q 667 622 661 624 q 681 617 674 621 q 690 609 688 614 q 693 595 693 604 q 689 574 693 586 q 667 513 675 531 q 604 413 650 478 q 569 362 579 376 q 547 322 560 347 q 526 269 533 296 q 519 244 519 249 q 549 267 519 243 q 588 301 578 292 q 626 344 613 322 q 681 435 681 433 q 739 444 722 490 q 746 342 754 404 q 721 235 742 311 q 694 71 699 156 q 707 -143 692 -12 q 708 -158 707 -150 q 709 -169 708 -165 q 710 -180 710 -174 q 712 -190 711 -186 q 714 -197 713 -193 q 716 -203 715 -201 q 719 -208 717 -206 q 723 -210 721 -210 q 728 -211 725 -211 q 746 -135 749 -211 q 746 -131 746 -132 m 857 815 q 843 742 860 778 q 818 715 835 725 q 742 688 785 699 q 597 686 644 663 q 565 722 586 692 q 534 780 543 751 q 547 818 525 808 q 601 822 558 822 q 644 825 639 824 q 677 831 653 826 q 725 839 701 835 q 768 847 749 843 q 789 850 788 850 q 840 849 825 854 q 857 815 854 843 "},"兆":{"ha":1361,"x_min":381,"x_max":978,"o":"m 663 983 q 689 901 688 942 q 686 846 689 885 q 678 779 683 800 q 642 675 668 746 q 635 661 639 669 q 631 649 632 653 q 628 639 631 646 q 625 629 625 632 q 623 620 625 626 q 622 610 621 614 q 622 599 622 607 q 621 583 621 590 q 658 483 624 533 q 699 447 676 458 q 758 429 721 435 q 813 428 783 422 q 831 454 843 433 q 826 460 828 458 q 822 464 824 463 q 815 465 819 465 q 806 465 810 465 q 793 465 803 465 q 775 463 783 464 q 746 465 754 463 q 725 478 738 468 q 687 526 701 499 q 668 591 672 554 q 676 669 664 628 q 700 733 681 681 q 722 794 719 786 q 731 819 725 804 q 738 842 736 835 q 741 867 739 850 q 738 897 743 885 q 728 933 732 919 q 718 958 725 946 q 705 978 711 969 q 686 1004 699 988 q 673 1022 683 1007 q 658 1040 663 1036 q 642 1050 653 1044 q 617 1056 631 1056 q 663 983 663 983 m 515 893 q 517 874 514 889 q 526 732 524 826 q 528 685 528 685 q 527 677 526 683 q 531 664 528 671 q 540 657 535 657 q 557 669 551 658 q 561 699 558 675 q 563 800 565 743 q 554 889 558 875 q 535 910 547 910 q 523 903 529 910 q 515 893 517 897 m 826 788 q 825 735 822 779 q 826 670 825 713 q 828 614 826 628 l 828 596 q 850 574 838 579 q 867 569 864 567 q 868 613 867 571 q 869 655 869 654 q 881 651 869 656 q 917 636 896 647 q 943 625 939 625 q 956 628 956 625 q 926 663 951 647 q 918 667 924 664 q 906 673 913 669 q 892 681 899 676 q 879 688 885 685 q 872 693 874 690 q 867 738 868 697 l 865 775 q 851 800 857 794 q 826 788 838 813 m 489 701 q 467 685 483 699 q 434 654 451 671 q 402 621 417 638 q 385 599 388 604 q 399 574 381 585 q 403 573 401 574 q 408 575 404 572 q 414 579 413 578 q 421 586 415 581 q 429 594 426 592 q 500 679 469 631 q 506 690 506 688 q 503 704 506 704 q 495 703 501 704 q 489 701 489 701 m 817 354 q 762 321 790 344 q 715 274 733 297 q 687 224 700 253 q 665 159 674 196 q 657 89 657 122 q 675 -43 657 42 q 686 -111 685 -86 q 686 -128 686 -119 q 686 -147 686 -137 q 688 -160 686 -157 q 699 -178 697 -178 q 707 -169 701 -178 q 714 -160 713 -161 q 723 -107 722 -139 q 719 -47 724 -75 q 708 17 714 -19 q 700 75 701 54 q 699 131 697 107 q 707 174 701 154 q 726 218 713 193 q 742 256 736 239 l 769 281 q 836 338 831 333 q 844 347 844 343 q 834 357 843 356 q 817 354 825 358 m 957 250 q 943 242 944 243 q 939 203 940 238 q 932 183 939 188 q 908 181 929 182 q 840 165 900 181 q 799 153 800 154 q 796 136 796 150 q 800 126 796 128 q 860 119 821 118 q 892 126 874 121 q 915 129 908 132 q 921 108 921 126 q 928 69 921 82 q 935 59 931 65 q 942 54 940 53 q 966 117 956 74 q 976 199 976 161 q 968 257 976 236 l 957 250 m 428 161 q 410 82 414 110 q 403 -3 406 54 q 405 -31 403 -25 q 417 -44 407 -37 q 432 -43 428 -51 q 437 -14 436 -35 q 438 7 438 7 q 445 19 440 17 q 478 29 450 22 q 517 40 493 33 q 550 51 540 47 q 588 67 583 61 q 556 83 596 82 q 503 81 515 85 q 496 80 501 81 q 484 78 490 79 q 470 76 478 76 q 458 74 463 75 q 453 74 454 74 q 454 97 451 75 q 460 144 457 119 q 461 172 463 168 q 447 193 460 183 q 442 196 444 196 q 428 161 438 196 "},"先":{"ha":1361,"x_min":501,"x_max":860,"o":"m 825 1031 q 799 960 818 1018 q 772 885 776 894 q 754 858 763 860 q 735 913 742 858 q 733 919 733 917 q 720 977 728 965 q 700 989 713 989 q 682 899 669 988 q 689 796 693 813 q 655 761 685 782 q 614 750 625 740 q 608 785 610 754 q 604 817 607 806 q 593 838 601 829 q 571 844 585 846 q 546 786 544 842 q 583 607 549 731 q 593 572 592 575 q 581 553 593 560 q 536 542 571 547 q 506 526 511 539 q 507 507 501 517 q 510 502 508 504 q 513 498 511 500 q 519 494 515 496 q 524 492 522 493 q 531 491 526 492 q 538 490 535 490 q 546 488 540 489 q 555 488 551 488 q 565 487 558 488 q 575 486 572 486 q 622 479 618 483 q 628 450 629 472 q 607 338 628 428 q 592 268 593 279 q 603 126 561 119 q 643 231 621 129 q 653 299 646 243 q 663 363 660 356 q 681 388 668 385 q 713 374 704 393 q 724 322 722 356 q 717 233 725 290 q 707 156 708 171 q 715 3 696 49 q 731 -85 726 -19 q 753 -167 736 -150 q 777 -170 764 -178 q 792 -147 790 -162 q 786 -29 792 -132 q 782 104 781 74 l 785 150 q 792 249 789 194 q 794 324 796 304 q 785 375 792 361 q 757 406 781 382 q 713 460 721 442 q 707 482 707 471 q 717 506 707 501 q 767 513 731 513 q 828 519 803 513 q 853 544 853 525 q 828 574 853 571 q 775 570 804 578 q 724 565 746 563 q 707 589 703 567 q 721 626 710 597 q 725 636 722 629 q 728 644 728 643 q 731 651 729 646 q 734 659 733 657 q 736 667 735 661 q 738 675 738 672 q 738 683 738 678 q 739 692 739 688 q 738 703 739 697 q 738 718 738 710 q 740 764 735 753 q 768 793 744 775 q 796 817 792 813 q 825 899 811 833 q 839 949 828 913 q 853 996 850 985 q 856 1035 860 1025 q 840 1043 849 1046 q 825 1031 832 1040 m 682 679 q 651 621 672 642 q 644 615 647 615 q 629 624 636 614 q 626 674 615 647 q 654 710 636 701 q 674 713 667 715 q 683 700 681 710 q 682 679 685 690 "},"光":{"ha":1361,"x_min":458,"x_max":907,"o":"m 875 1056 q 856 1024 864 1050 q 838 915 847 996 q 833 887 835 892 q 822 865 832 882 q 763 796 786 810 q 754 794 758 794 q 749 794 750 793 q 714 896 739 804 q 704 941 710 910 q 693 997 699 972 q 683 1028 688 1021 q 674 1036 678 1036 q 668 1032 671 1036 q 640 951 656 1018 q 608 860 628 899 q 607 851 607 856 q 603 843 606 847 q 599 836 601 839 q 592 832 596 833 q 583 831 588 831 q 572 836 578 832 q 501 925 543 854 q 476 961 483 957 q 467 963 471 964 q 461 950 463 961 q 459 931 460 939 q 458 910 458 922 q 475 772 460 844 q 487 732 476 764 q 499 686 497 700 q 509 653 500 664 q 539 633 518 642 q 588 618 550 628 q 619 610 613 611 q 636 601 625 608 q 649 582 647 593 q 650 550 651 571 q 639 479 649 528 q 627 374 631 440 q 625 271 624 308 q 626 236 625 243 q 669 167 638 186 q 744 60 735 126 q 718 -7 758 -22 q 617 83 678 7 q 582 113 594 111 q 572 107 576 113 q 567 92 568 101 q 565 71 565 83 q 564 44 564 58 q 597 -150 568 -71 q 618 -181 608 -178 q 633 -173 629 -183 q 636 -144 636 -162 q 625 -85 635 -124 q 607 1 608 -14 q 611 22 607 18 q 653 -12 619 28 q 692 -47 665 -29 q 738 -72 719 -65 q 758 -72 749 -76 q 772 -56 767 -68 q 780 -30 776 -44 q 784 1 783 -15 q 785 32 785 18 q 785 57 785 46 q 777 94 782 82 q 756 129 772 106 q 740 156 743 144 q 718 322 719 211 q 718 368 718 335 q 717 413 718 401 q 716 445 717 424 q 713 481 715 467 q 707 508 711 494 q 701 526 706 514 q 692 548 696 538 q 686 569 689 558 q 686 589 683 581 q 699 600 689 597 q 722 604 704 601 q 746 610 740 607 q 837 692 811 638 q 874 849 863 746 q 888 923 875 868 q 900 988 900 978 q 897 1044 906 1028 q 875 1056 888 1061 m 664 907 q 676 890 669 904 q 693 836 686 874 q 706 785 703 792 q 728 744 714 754 q 751 740 742 735 q 778 767 751 740 q 806 794 806 794 q 813 797 810 797 q 814 747 831 801 q 790 688 801 706 q 735 652 775 663 q 653 646 696 642 q 579 664 611 650 q 545 687 557 674 q 528 711 533 700 q 514 753 524 722 q 508 795 513 758 q 506 832 503 832 q 536 807 511 832 q 565 771 561 782 q 569 755 567 767 q 572 734 571 743 q 576 725 574 725 q 601 749 586 721 q 625 804 615 776 q 636 842 635 832 q 639 850 636 846 q 654 886 644 861 q 660 903 658 899 q 664 907 661 908 m 688 306 q 679 201 700 222 q 663 225 671 208 q 660 257 656 242 q 663 303 660 261 q 667 349 665 344 q 671 364 669 363 q 688 306 678 364 "},"克":{"ha":1361,"x_min":500,"x_max":861,"o":"m 658 1021 q 649 919 658 983 q 635 781 635 814 q 646 711 633 735 q 652 703 649 706 q 659 700 656 700 q 665 704 663 700 q 671 715 668 708 q 679 769 676 731 q 684 861 681 786 q 689 965 688 936 q 689 990 690 989 l 692 1075 q 686 1098 694 1093 q 672 1099 678 1103 q 658 1021 661 1092 m 519 749 q 515 706 515 744 q 513 671 514 683 q 501 553 503 625 q 515 435 500 482 q 544 374 536 383 q 551 363 547 369 q 560 350 554 356 q 601 328 571 339 q 642 308 631 317 q 657 283 651 301 q 663 251 663 264 q 665 208 664 238 q 667 135 665 189 q 668 82 668 82 q 664 39 667 78 q 660 -7 661 0 q 647 -86 649 -49 l 640 -106 q 604 -194 631 -132 l 593 -224 l 593 -229 q 602 -242 593 -239 q 618 -239 611 -246 q 645 -179 625 -232 q 674 -101 665 -126 q 677 -93 675 -97 q 681 -85 679 -89 q 715 -43 686 -62 q 751 -15 744 -24 q 799 40 760 -3 q 818 83 815 60 q 804 133 821 107 q 703 204 775 175 q 697 208 699 206 q 696 218 696 210 q 696 229 696 225 q 689 293 692 264 q 700 308 694 304 q 724 319 706 313 q 743 326 738 324 q 751 333 744 328 q 760 340 757 339 q 811 374 796 357 q 847 417 835 397 q 856 460 854 428 q 859 526 858 483 q 860 620 860 569 q 857 700 860 671 q 850 738 854 732 q 836 739 844 744 q 828 717 831 733 q 822 685 825 701 q 813 664 819 669 q 757 644 804 658 q 728 635 735 638 q 713 627 722 633 q 699 611 704 621 q 646 569 693 601 q 596 532 614 547 q 563 517 575 521 q 547 531 551 513 q 541 569 542 550 q 543 622 540 588 q 542 644 543 628 q 541 662 542 661 q 542 683 540 663 q 545 722 544 703 q 539 750 546 740 q 519 749 529 760 m 794 404 l 794 400 l 789 394 q 726 363 767 371 q 646 360 686 354 q 579 386 606 367 q 571 392 574 390 q 562 402 568 392 q 551 424 556 413 q 546 442 546 436 q 558 464 544 453 q 589 485 571 475 q 613 500 607 494 q 665 540 619 507 q 715 576 710 572 q 743 584 733 578 q 775 615 753 590 q 803 636 794 636 q 821 617 817 638 q 821 566 825 597 q 811 503 817 535 q 800 442 806 471 q 794 404 794 414 m 757 117 q 771 63 786 89 q 752 38 768 57 q 731 14 736 18 q 711 6 725 10 q 697 17 697 1 q 701 68 696 33 q 703 96 703 92 q 700 103 703 97 q 697 111 697 108 q 710 131 699 126 q 735 130 722 135 q 757 117 747 125 "},"兎":{"ha":1361,"x_min":365,"x_max":994,"o":"m 669 961 q 678 957 674 961 q 697 931 682 953 q 750 863 731 885 q 758 851 756 856 q 760 838 760 846 q 760 815 760 829 q 736 693 754 733 q 694 690 717 651 q 677 721 693 696 q 644 772 661 746 q 622 801 626 797 q 610 806 618 807 q 595 794 596 806 q 601 774 594 783 q 660 685 606 768 q 667 674 664 678 q 699 622 669 667 q 731 569 728 578 q 733 559 735 563 q 725 558 732 556 q 675 575 713 561 q 628 594 638 589 q 599 617 615 601 q 536 688 578 636 q 490 740 504 726 q 468 756 475 756 q 469 717 456 756 q 513 639 489 667 q 544 612 517 633 q 575 586 572 590 q 586 554 593 568 q 581 510 581 539 q 578 479 581 486 q 576 469 576 474 q 577 461 576 465 q 576 446 578 457 q 575 233 571 375 q 576 131 578 178 q 574 88 575 90 q 565 97 574 88 q 513 167 536 131 q 424 307 482 208 q 396 353 399 351 q 383 357 390 358 q 370 351 375 357 q 368 336 365 344 q 444 206 374 319 q 536 79 493 131 q 551 60 544 69 q 560 46 557 50 q 572 34 564 42 q 596 14 581 26 q 633 -15 621 -7 q 811 -68 713 -72 l 822 -68 q 832 -121 828 -78 q 842 -181 836 -164 q 882 -210 856 -225 q 899 -198 892 -204 q 908 -186 906 -192 q 907 -176 910 -181 q 879 -167 903 -171 q 860 -140 861 -164 q 882 -68 860 -119 q 906 -14 901 -26 q 911 17 910 0 q 910 58 913 35 q 904 97 907 81 q 896 142 901 113 q 888 183 890 172 q 842 393 858 347 q 828 440 828 426 q 849 464 829 454 q 932 433 886 440 q 947 429 947 431 q 959 415 947 418 q 979 419 971 411 q 985 431 983 425 q 987 449 986 438 q 988 465 988 460 q 991 506 989 476 q 993 542 993 535 q 990 567 990 551 q 981 625 988 597 q 846 814 957 706 q 797 863 814 844 q 760 905 779 882 q 718 963 742 928 q 696 989 703 983 q 685 1035 683 993 q 681 1088 688 1078 q 665 1093 675 1094 q 651 1085 656 1092 q 628 985 632 1060 q 628 958 626 968 q 640 950 631 949 q 656 956 643 950 q 669 961 669 961 m 814 788 q 950 569 893 751 q 957 531 958 542 q 953 467 954 511 q 939 460 950 460 q 897 469 925 458 q 865 486 868 479 q 857 493 864 489 q 797 562 821 515 q 771 668 774 608 q 778 738 769 701 q 800 788 786 774 q 814 788 804 792 m 646 550 q 772 508 726 529 q 778 506 775 508 q 783 501 781 504 q 786 494 785 497 q 789 484 788 490 q 792 474 790 478 q 794 461 793 469 q 797 447 796 453 q 801 430 799 440 q 804 413 803 419 q 822 302 808 385 q 846 168 835 219 q 864 57 863 88 q 850 -19 867 1 q 782 -35 833 -39 q 658 7 714 -29 q 633 26 638 21 q 626 74 631 31 q 622 258 622 126 q 617 444 621 390 q 616 478 614 464 q 618 510 618 493 q 619 538 617 531 q 628 551 625 550 q 646 550 631 553 "},"児":{"ha":1361,"x_min":467,"x_max":893,"o":"m 483 1040 q 474 928 467 1007 q 526 707 486 799 q 550 674 536 688 q 613 642 568 657 q 633 635 626 638 q 650 628 640 632 q 665 618 660 624 q 674 606 669 613 q 682 588 679 599 q 685 565 685 578 q 684 542 685 553 q 682 525 683 532 q 676 508 681 518 q 670 494 672 499 q 662 477 668 489 q 653 460 656 465 q 628 406 643 440 q 601 350 614 372 q 551 247 560 271 q 540 169 535 201 q 542 161 542 161 q 549 158 542 158 q 561 167 554 158 q 606 265 581 189 q 649 371 621 307 q 700 467 678 435 q 722 485 714 488 q 757 403 746 478 q 758 390 757 397 q 761 358 761 365 q 757 332 761 351 q 749 304 753 317 q 741 258 744 283 q 733 218 738 233 q 715 119 725 189 q 701 29 706 50 q 678 -142 676 -97 q 681 -161 679 -156 q 689 -175 683 -174 q 724 -118 703 -179 q 735 -59 729 -100 q 747 40 742 -18 q 768 211 761 174 q 772 247 768 213 q 783 313 776 282 q 796 358 789 343 q 783 472 818 407 q 753 521 775 486 q 718 583 724 567 q 713 611 713 599 q 716 635 711 628 q 733 644 721 642 q 807 689 774 654 q 889 979 892 781 q 883 1038 889 1015 q 863 1053 878 1061 q 849 1019 853 1049 q 842 951 844 989 q 838 901 840 913 q 831 886 835 886 q 810 917 824 888 q 775 974 790 957 q 749 990 758 992 q 746 935 729 988 q 759 903 753 914 q 789 867 765 893 q 803 850 799 856 q 814 833 807 844 q 823 814 821 822 q 824 794 825 806 q 818 769 824 782 q 784 726 808 747 q 732 692 760 706 q 676 674 704 679 q 594 705 631 665 q 551 797 557 744 q 551 819 551 813 q 556 836 550 826 q 565 850 561 846 q 578 865 568 854 q 602 892 596 885 q 613 907 608 900 q 625 933 617 914 q 638 967 635 956 q 625 982 644 990 q 585 938 613 976 q 556 899 565 908 q 536 888 544 886 q 524 939 531 889 q 508 1028 513 1013 q 493 1053 501 1053 q 483 1040 483 1042 "},"兔":{"ha":1361,"x_min":356,"x_max":1013,"o":"m 568 74 q 546 99 567 74 q 426 278 501 154 q 386 343 389 340 q 367 347 378 353 q 357 331 356 342 q 360 322 357 326 q 438 194 367 308 q 543 49 497 99 q 567 22 547 44 q 593 -6 588 -1 q 616 -27 599 -11 q 644 -49 633 -43 q 674 -62 656 -54 q 710 -72 692 -69 q 722 -75 717 -74 q 828 -86 765 -92 q 834 -136 831 -94 q 847 -208 838 -178 q 876 -236 857 -237 q 901 -225 889 -236 q 914 -206 914 -214 q 893 -192 913 -200 q 870 -177 875 -186 q 869 -144 865 -168 q 897 -61 874 -121 q 915 -12 913 -25 q 917 11 917 -4 q 901 92 917 32 q 876 241 893 132 q 847 389 858 350 q 835 438 835 428 q 846 456 833 454 q 867 450 858 456 q 900 436 881 442 l 949 425 q 950 425 949 425 q 951 421 951 422 q 997 453 983 372 q 1001 589 1013 532 q 951 708 992 643 q 910 765 929 744 q 844 826 890 786 q 826 840 833 835 q 813 853 819 846 q 802 863 806 860 q 793 872 799 865 q 785 880 788 878 q 778 890 783 882 q 771 899 772 897 q 762 910 769 900 q 751 925 754 921 q 741 938 747 931 q 731 951 735 946 q 725 963 728 957 q 700 1000 718 981 q 688 1013 690 1010 q 682 1023 686 1015 q 678 1038 678 1031 q 683 1053 679 1044 q 686 1086 690 1072 q 665 1101 679 1111 q 636 1053 649 1090 q 622 988 624 1015 q 633 957 622 963 q 658 958 638 956 q 682 960 678 961 q 696 944 696 956 q 704 929 696 939 q 717 913 708 925 q 736 888 726 900 q 750 871 746 875 q 761 851 758 861 q 751 742 768 819 q 722 665 735 665 q 706 683 714 665 q 692 703 699 701 q 688 704 688 703 q 656 753 686 706 q 620 806 625 801 q 608 811 615 811 q 592 797 594 811 q 604 771 590 790 q 631 729 613 757 q 644 708 636 719 q 657 688 653 696 q 665 672 661 681 q 688 639 672 657 q 725 583 708 613 q 728 556 742 553 q 640 586 697 561 q 597 615 619 596 q 540 681 578 633 q 486 742 503 726 q 457 757 464 763 q 464 722 451 753 q 496 655 481 679 q 540 607 511 631 q 569 578 565 586 q 576 554 575 568 q 574 521 576 544 q 564 403 567 471 q 571 169 560 244 q 568 74 586 75 m 819 790 q 886 731 854 774 q 950 599 929 675 q 953 454 971 522 q 879 475 901 461 q 874 481 874 479 q 836 519 875 486 q 793 563 806 546 q 776 596 781 581 q 778 701 769 621 q 806 792 788 782 q 819 790 810 794 m 621 536 q 626 544 624 542 q 633 548 629 547 q 641 549 638 549 q 651 546 644 549 q 660 542 657 543 q 670 536 663 540 q 681 531 678 532 q 738 510 704 517 q 778 493 769 503 q 792 447 786 483 q 802 398 794 435 q 818 325 810 361 q 828 285 826 289 q 837 226 832 260 q 850 154 842 192 q 854 133 851 149 q 865 86 861 103 q 871 42 868 69 q 871 0 874 15 q 859 -30 868 -15 q 833 -50 850 -44 q 778 -56 810 -58 q 729 -42 746 -53 q 688 -22 721 -35 q 635 4 647 -8 q 619 33 621 17 q 622 49 619 36 q 628 75 625 63 q 631 90 632 88 q 624 118 631 99 q 615 161 615 139 q 618 224 614 185 q 624 314 625 292 q 619 362 622 328 q 613 422 615 396 q 611 456 611 447 q 621 536 611 511 "},"入":{"ha":1361,"x_min":482,"x_max":881,"o":"m 563 825 q 539 374 568 640 q 513 103 517 183 q 499 26 511 68 q 492 1 494 11 q 485 -26 489 -8 q 483 -55 482 -43 q 486 -79 483 -67 q 497 -98 489 -92 q 521 -103 506 -104 q 539 -96 533 -103 q 569 -7 549 -81 q 583 52 581 33 q 589 126 586 71 q 600 249 589 153 q 613 339 607 313 q 629 375 619 365 q 638 380 633 379 q 647 378 642 381 q 655 371 651 375 q 663 360 658 367 q 670 349 668 353 q 676 338 672 344 q 678 335 676 336 q 749 164 707 281 q 819 19 793 42 q 868 3 849 -6 q 878 23 876 7 q 874 63 879 39 q 863 112 869 88 q 846 163 856 136 q 831 204 836 190 q 821 229 825 218 q 763 354 813 249 q 713 463 714 460 q 664 622 676 550 q 657 719 660 654 q 628 908 653 863 q 594 933 614 933 q 580 930 586 933 q 570 919 574 926 q 565 904 567 911 q 562 883 563 897 q 561 861 561 869 q 561 835 561 853 q 563 825 563 828 "},"八":{"ha":1361,"x_min":8,"x_max":1361,"o":"m 1192 1108 q 1142 1072 1157 1089 q 1083 988 1119 1047 q 926 624 969 797 q 914 436 903 528 q 1149 -32 943 203 q 1168 -51 1160 -44 q 1203 -69 1176 -57 q 1238 -90 1217 -76 q 1280 -118 1258 -103 q 1308 -139 1301 -133 q 1349 -158 1339 -158 q 1325 -117 1360 -160 q 1215 8 1311 -99 q 1029 292 1076 165 q 994 554 986 408 q 1156 989 1010 781 q 1210 1081 1200 1053 q 1213 1094 1213 1088 q 1210 1104 1213 1101 q 1204 1108 1207 1107 q 1194 1108 1201 1108 q 1192 1108 1192 1108 m 215 939 q 208 869 206 904 q 247 746 211 822 q 297 568 281 675 q 304 363 313 461 q 210 151 296 275 q 142 65 176 103 q 97 31 124 44 q 57 -1 71 15 q 10 -85 18 -43 q 8 -100 8 -92 q 36 -111 10 -128 q 144 -19 64 -93 q 235 83 185 18 q 319 206 285 147 q 375 386 369 285 q 372 498 379 440 q 355 590 364 556 q 326 689 346 625 q 300 778 307 753 q 249 929 268 892 q 238 944 243 939 q 225 950 232 951 q 215 939 218 949 "},"公":{"ha":1361,"x_min":338,"x_max":1024,"o":"m 833 1121 q 799 1074 817 1114 q 754 921 774 1021 q 751 696 738 833 q 835 336 774 474 q 878 253 849 306 q 915 197 908 201 q 981 175 929 188 q 1010 171 999 169 q 1022 185 1022 172 q 1011 215 1021 196 q 975 268 997 239 q 960 293 967 279 q 879 526 911 393 q 842 788 847 658 q 858 978 838 896 q 876 1074 875 1049 q 868 1113 876 1101 q 860 1119 865 1117 q 847 1122 854 1122 q 833 1121 840 1122 m 390 1008 q 407 879 386 969 q 422 775 419 828 q 413 654 424 722 q 396 551 403 586 q 369 431 389 515 q 339 249 342 301 q 346 185 338 207 q 424 240 365 126 q 476 401 456 306 q 501 597 496 496 q 503 804 507 697 q 461 1017 494 953 q 432 1047 447 1042 q 402 1040 413 1053 q 390 1008 392 1028 m 500 22 q 554 -181 514 -131 q 592 -206 569 -199 q 700 -207 639 -218 q 786 -174 761 -196 q 818 -112 806 -158 q 836 19 835 -56 q 821 113 838 69 q 775 151 804 156 q 760 147 765 150 q 752 140 754 144 q 749 128 750 135 q 749 115 749 121 q 751 100 750 110 q 751 85 751 90 q 750 67 753 71 q 739 57 747 63 q 681 40 718 46 q 617 36 644 33 q 576 52 586 39 q 567 101 567 65 q 565 111 565 104 q 560 151 565 139 q 538 163 556 164 q 509 153 519 163 q 497 121 499 143 q 495 83 494 99 q 499 38 496 67 q 500 22 499 28 m 749 -37 q 735 -104 768 -62 q 638 -146 692 -158 q 588 -106 601 -136 q 608 -47 574 -76 q 679 -23 635 -29 q 749 -37 724 -17 "},"六":{"ha":1361,"x_min":226,"x_max":1139,"o":"m 682 1106 q 672 1069 678 1094 q 658 1019 665 1044 q 647 982 651 993 q 479 754 601 869 q 357 649 433 711 q 326 626 343 639 q 291 602 308 614 q 264 583 274 590 q 233 554 242 567 q 233 536 226 542 q 253 531 239 531 q 289 540 263 531 q 300 544 293 542 q 310 549 307 547 q 319 551 314 550 q 326 551 324 551 q 331 548 328 550 q 335 542 333 546 q 338 531 336 538 q 321 300 344 472 q 309 219 317 268 q 295 124 301 171 q 282 17 289 78 q 278 -12 282 13 q 274 -57 275 -37 q 272 -100 272 -76 q 276 -137 271 -124 q 290 -150 281 -150 q 300 -143 296 -150 q 350 -6 321 -117 q 381 138 378 99 q 389 371 388 213 q 396 539 390 508 q 432 606 403 585 q 466 627 440 611 q 497 649 492 643 q 514 672 506 656 q 518 682 515 678 q 522 690 521 686 q 526 697 524 693 q 531 701 529 700 q 535 706 532 703 q 540 711 539 710 q 545 716 540 713 q 551 721 550 719 q 559 726 553 722 q 568 733 565 731 q 622 778 615 768 q 644 820 626 783 q 663 857 663 857 q 679 881 674 875 q 693 883 688 882 q 704 869 699 883 q 713 844 710 854 q 719 813 715 833 q 743 765 722 794 q 777 722 767 736 q 808 690 788 708 q 856 656 829 671 q 931 583 926 615 q 926 551 932 576 q 921 499 919 514 q 938 339 921 447 q 983 109 954 229 q 1044 -87 1013 -11 q 1108 -200 1085 -187 q 1113 -200 1111 -200 q 1129 -178 1124 -201 q 1125 -69 1138 -128 q 1092 32 1121 -49 q 1057 142 1067 99 q 1000 435 1010 338 q 996 519 994 494 q 1001 535 997 532 q 1015 538 1004 539 q 1051 520 1024 536 q 1088 501 1079 504 q 1100 501 1094 500 q 1110 506 1106 503 q 1116 513 1114 508 q 1119 522 1118 518 q 1118 528 1119 526 q 1115 533 1117 531 q 1108 538 1113 535 q 1097 543 1104 540 q 1063 565 1085 549 q 756 883 832 728 q 724 994 725 944 q 730 1035 724 996 q 733 1102 736 1074 q 713 1131 731 1131 q 682 1106 694 1131 "},"共":{"ha":1361,"x_min":349,"x_max":1008,"o":"m 794 1081 q 844 931 799 1021 q 892 785 889 842 q 863 675 893 728 q 846 654 854 658 q 840 653 842 653 q 832 658 838 653 q 819 669 826 663 q 801 692 813 676 q 768 726 781 715 q 731 740 743 749 q 793 618 697 714 q 815 593 811 600 q 826 565 825 581 q 806 483 826 540 q 772 336 771 386 q 782 308 774 314 q 794 306 789 303 q 832 382 808 313 q 857 446 849 432 q 891 436 874 468 q 917 364 908 404 q 929 258 924 332 q 961 -10 942 85 q 978 -70 969 -49 q 1000 -76 988 -92 q 1004 -21 1008 -67 q 999 81 1003 -7 q 989 257 993 211 q 985 283 988 271 q 983 303 983 294 q 979 322 982 313 q 976 338 976 332 q 971 353 975 343 q 965 366 967 363 q 959 381 964 369 q 953 394 954 392 q 944 411 951 397 q 935 429 938 425 q 903 513 908 479 q 901 560 899 533 q 926 663 904 594 q 947 731 942 710 q 952 784 951 751 q 943 857 953 817 q 881 1010 929 918 q 836 1082 856 1056 q 815 1107 825 1099 q 800 1115 806 1117 q 794 1081 793 1115 m 471 1039 q 382 842 408 931 q 357 626 349 733 q 385 515 361 578 q 407 418 408 451 q 390 331 406 388 q 369 210 369 257 q 396 -143 363 -42 q 418 -192 406 -175 q 438 -201 431 -208 q 447 -39 460 -182 q 438 179 435 103 q 463 317 443 301 q 467 317 465 318 q 482 301 469 315 q 589 221 557 219 q 601 235 601 222 q 556 319 600 257 q 518 378 528 357 q 501 433 504 407 q 504 484 497 458 q 520 528 511 510 q 546 576 529 547 q 581 674 586 649 q 568 688 578 682 q 532 675 550 694 q 486 603 517 660 q 450 551 458 553 q 429 601 442 551 q 417 691 418 647 q 427 780 417 735 q 446 851 438 825 q 474 928 454 878 q 499 1013 494 986 q 493 1060 504 1051 q 488 1061 490 1061 q 483 1060 485 1061 q 479 1056 481 1058 q 476 1051 478 1053 q 474 1045 475 1049 q 471 1039 472 1042 "},"兵":{"ha":1361,"x_min":385,"x_max":972,"o":"m 596 -65 q 610 -56 606 -65 q 619 -10 611 -53 q 654 113 631 51 q 678 138 664 136 q 683 135 681 138 q 697 120 690 131 q 710 99 704 110 q 721 82 717 88 q 746 76 726 76 q 746 99 749 92 q 711 160 740 124 q 695 210 694 182 q 714 256 696 238 q 752 292 721 261 q 789 329 783 324 q 794 328 790 329 q 793 298 794 307 q 790 281 792 289 q 779 250 788 272 q 754 168 758 192 q 751 157 754 161 q 758 133 740 140 q 786 143 778 126 q 825 256 788 147 q 828 265 828 264 q 829 267 829 268 q 839 249 831 265 q 847 233 839 247 q 858 210 854 219 q 861 197 863 201 q 847 174 858 190 q 835 153 836 157 q 832 140 832 146 q 833 132 832 139 q 835 124 835 125 q 839 124 835 122 q 849 127 843 125 q 860 132 854 129 q 869 137 865 135 q 874 139 874 139 q 888 119 883 139 q 895 72 893 100 q 900 36 897 43 q 904 -79 914 -14 q 903 -129 899 -115 q 926 -192 915 -182 q 932 -196 929 -196 q 946 -160 940 -196 q 946 -154 946 -156 q 949 -37 954 -110 q 917 171 946 -1 q 916 203 914 192 q 929 235 918 215 q 957 310 946 264 q 969 389 968 357 q 949 501 972 503 q 926 492 943 501 l 928 451 q 931 406 929 413 q 931 383 933 394 q 925 343 928 371 q 919 305 922 319 q 910 280 915 290 q 894 254 904 269 q 854 290 867 275 q 842 324 840 307 q 853 372 844 347 q 874 524 876 443 q 875 549 874 540 q 877 625 879 603 q 861 706 875 647 q 822 822 839 790 q 804 870 808 849 q 799 939 800 892 q 792 999 796 983 q 758 1033 782 1035 q 744 1026 750 1033 q 742 1022 743 1025 q 686 982 722 1001 q 607 926 631 951 q 583 907 597 917 q 554 888 568 897 q 531 868 540 878 q 465 817 510 844 q 418 783 431 793 q 392 736 386 757 q 417 738 394 731 q 563 831 489 761 q 606 866 588 854 q 644 890 624 878 q 690 921 665 903 q 704 933 694 925 q 740 955 729 956 q 754 918 751 954 q 801 736 760 825 q 825 660 819 700 q 828 633 826 646 q 829 603 829 619 q 831 575 829 586 q 828 521 832 540 q 828 490 824 501 q 826 435 833 469 q 807 364 819 407 l 803 346 q 799 350 800 349 l 792 350 q 771 346 776 350 q 708 306 758 339 l 685 289 q 683 294 683 293 q 696 363 682 306 q 720 428 701 386 q 754 489 739 469 q 763 499 761 496 q 760 516 767 507 q 743 525 754 525 q 732 522 736 525 q 668 410 704 506 q 660 382 665 403 q 654 354 656 361 q 639 275 639 313 q 642 252 640 265 q 644 233 643 239 q 640 213 644 226 q 631 181 633 194 q 624 149 629 167 q 606 69 615 125 q 585 -50 583 -43 q 586 -58 585 -54 q 590 -63 588 -61 q 596 -65 593 -65 "},"其":{"ha":1361,"x_min":88,"x_max":1260,"o":"m 956 926 q 882 915 904 922 q 862 890 860 907 q 885 867 864 872 q 935 861 896 863 q 965 857 953 860 q 998 847 986 851 q 1022 830 1010 842 q 1038 800 1033 818 q 1040 746 1039 794 q 1049 632 1042 708 q 1056 549 1056 556 q 1050 507 1056 514 q 1015 501 1046 503 q 985 499 989 500 q 953 486 981 497 q 814 421 869 450 q 685 356 703 361 q 644 364 668 350 q 626 378 644 364 q 586 406 607 392 q 557 424 565 421 q 479 444 540 431 q 468 447 476 444 q 458 449 460 449 q 449 451 456 450 q 439 454 442 453 q 431 457 436 456 q 424 460 426 458 q 417 465 421 463 q 412 471 414 468 q 408 477 410 474 q 406 485 407 481 q 397 722 393 546 q 408 771 399 765 q 415 771 413 771 q 424 771 418 771 q 432 771 431 771 q 456 783 446 771 q 458 807 465 794 q 368 853 442 838 q 193 861 307 865 l 156 858 q 119 822 88 851 q 161 799 133 810 q 210 788 189 789 q 253 793 222 788 q 316 792 299 801 q 339 747 333 783 q 342 668 342 731 q 346 571 343 606 q 344 453 349 538 q 344 390 343 426 q 361 176 349 263 q 383 78 369 117 q 424 8 397 40 q 517 -53 464 -39 q 669 -71 571 -68 q 835 -60 775 -74 q 969 -8 896 -47 q 1101 106 1063 43 q 1140 281 1140 168 q 1122 454 1140 331 q 1101 608 1104 578 q 1098 651 1101 622 q 1093 699 1094 681 q 1090 742 1092 717 q 1092 785 1089 768 q 1102 819 1096 803 q 1122 844 1108 835 q 1156 856 1136 853 q 1191 852 1163 856 q 1222 849 1219 849 q 1246 856 1240 850 q 1242 885 1260 871 q 1088 922 1204 915 q 956 926 999 929 m 1046 463 q 1057 447 1050 461 q 1086 346 1076 411 q 1089 294 1090 314 q 1068 225 1085 268 q 1036 160 1051 182 q 1025 147 1031 150 q 1014 148 1019 143 q 1004 159 1008 153 q 990 179 1000 165 q 977 199 981 196 q 963 210 974 203 q 867 265 881 256 q 822 283 857 271 q 785 297 788 294 q 775 318 775 304 q 803 351 775 336 q 893 383 825 364 q 946 403 936 396 q 956 411 949 406 q 970 423 963 417 q 985 435 978 429 q 998 446 993 442 q 1003 450 1003 450 q 1046 463 1029 467 m 479 379 q 544 332 526 354 q 553 308 557 317 q 547 301 551 306 q 535 292 543 297 q 518 282 528 288 q 498 272 508 276 q 477 263 488 267 q 456 256 467 258 q 438 252 446 253 q 426 253 431 251 q 411 294 415 260 q 410 361 407 328 q 420 402 414 394 q 479 379 426 410 m 657 282 q 712 267 681 281 q 788 229 743 254 q 844 199 833 204 q 850 196 846 197 q 880 181 869 186 q 910 165 890 175 q 940 145 929 154 q 963 124 950 136 q 979 102 976 113 q 981 79 982 92 q 969 54 981 67 q 935 31 957 42 q 774 -8 882 1 q 602 -4 688 -15 q 478 29 517 7 q 444 85 458 42 q 431 154 429 129 q 434 166 432 163 q 447 176 436 169 q 481 197 458 185 q 531 224 504 210 q 574 250 557 239 q 607 271 600 267 q 626 278 614 275 q 657 282 639 282 "},"具":{"ha":1361,"x_min":322,"x_max":1042,"o":"m 517 961 q 514 911 518 926 q 504 810 503 865 q 531 690 507 738 q 554 660 540 671 q 596 639 568 649 q 607 635 599 638 q 619 631 615 632 q 669 593 664 615 q 660 551 675 572 q 598 485 653 542 q 538 421 543 428 q 515 381 515 393 q 522 371 517 374 q 533 368 526 368 q 549 371 540 368 q 599 403 564 378 q 638 428 631 426 q 642 403 650 429 q 633 354 635 379 q 631 207 626 228 q 639 179 635 188 q 664 194 649 161 q 687 261 676 219 q 697 336 697 303 q 708 506 697 396 q 725 572 713 551 q 728 580 728 576 q 729 585 729 583 q 727 591 729 588 q 724 595 725 594 q 719 600 724 596 q 713 606 714 604 q 740 621 725 618 q 772 603 760 625 q 785 551 783 582 q 781 453 786 529 q 778 317 776 378 q 794 228 781 256 q 815 211 804 210 q 834 254 832 211 q 831 349 836 297 q 826 406 826 400 q 833 418 829 418 q 860 388 840 418 q 872 363 865 378 q 884 331 879 347 q 893 300 889 315 q 897 275 897 285 q 898 249 900 256 q 885 232 896 243 q 831 176 836 188 q 831 171 829 172 q 863 171 838 161 q 876 176 865 171 q 898 187 888 182 q 908 192 908 192 q 925 157 915 190 q 933 119 926 150 q 946 60 939 89 q 960 18 953 32 q 986 0 974 -7 q 999 38 999 7 q 985 119 999 61 q 967 204 969 182 q 981 261 964 235 q 996 284 986 271 q 1010 305 1006 297 q 1024 326 1015 313 q 1033 351 1032 340 q 1038 379 1035 361 q 1036 413 1040 397 q 1003 551 1024 499 q 989 571 999 560 q 974 585 979 582 q 957 580 961 592 q 956 551 953 568 q 976 471 958 529 q 992 417 990 431 q 981 350 996 381 q 944 322 967 319 q 915 376 918 325 q 908 408 915 392 q 890 440 903 419 q 866 478 878 460 q 843 520 854 496 q 826 565 832 544 q 821 606 819 585 q 835 643 822 628 q 878 703 875 697 q 888 743 886 719 q 883 942 893 835 q 840 1068 872 1050 q 815 1072 831 1074 q 766 1044 800 1069 q 721 1001 732 1019 q 702 960 719 999 q 682 917 685 921 q 672 910 676 911 q 632 956 668 910 q 583 1013 597 1000 q 542 1029 565 1029 q 528 1024 533 1028 q 521 1017 524 1021 q 517 1003 518 1013 q 516 989 515 994 q 517 971 517 983 q 517 961 517 964 m 829 950 q 824 925 831 933 q 801 914 818 917 q 739 908 750 904 q 742 938 726 914 q 796 985 763 965 q 819 981 810 993 q 829 950 829 968 m 600 919 q 600 914 600 917 q 576 906 596 894 q 563 935 554 917 q 585 944 571 951 q 600 919 599 936 m 825 871 q 833 864 831 869 q 834 852 835 858 q 829 842 833 846 q 807 831 821 835 q 675 819 776 822 q 631 817 640 819 q 615 808 626 815 q 594 798 604 801 q 578 797 585 794 q 571 813 574 799 q 567 840 568 826 q 567 853 567 853 q 653 865 571 865 q 723 869 669 865 q 783 872 776 872 q 825 871 821 874 m 831 735 q 811 701 826 714 q 743 678 790 685 q 650 677 696 671 q 589 703 604 683 q 590 730 583 719 q 628 749 596 740 q 688 763 661 758 q 747 772 714 768 q 785 779 775 775 q 822 774 807 788 q 831 735 836 761 m 461 581 q 444 529 458 574 q 401 225 407 403 q 397 167 400 186 q 367 64 392 131 q 358 38 364 54 q 349 16 351 21 q 344 -1 347 11 q 340 -17 340 -12 q 337 -33 339 -22 q 333 -52 335 -43 q 332 -75 332 -61 q 331 -79 332 -76 q 322 -171 322 -167 q 342 -194 324 -204 q 363 -169 351 -189 q 378 -132 374 -150 q 388 -64 382 -117 q 403 32 394 -11 q 425 83 411 75 q 428 85 426 85 q 431 83 429 85 q 434 81 432 82 q 438 78 436 81 q 442 73 440 75 q 449 67 444 71 q 456 60 453 63 q 501 21 488 26 q 519 22 513 15 q 521 42 525 28 q 489 94 515 61 q 461 156 468 119 q 478 199 458 176 q 551 253 494 218 q 618 301 603 285 q 631 332 631 317 q 625 350 631 343 q 499 289 603 381 l 499 288 q 454 253 472 265 q 433 250 436 240 q 439 292 429 261 q 485 476 467 383 q 489 553 494 532 l 486 560 q 461 581 471 597 "},"内":{"ha":1361,"x_min":267,"x_max":1090,"o":"m 467 881 q 392 876 440 878 q 317 869 339 874 q 295 863 300 867 q 287 849 290 860 q 282 825 283 838 q 281 794 281 813 q 279 764 281 775 q 279 240 267 572 l 283 150 q 314 6 304 36 q 339 -44 331 -44 q 349 -37 343 -44 q 365 1 358 -26 q 375 128 371 31 q 379 174 376 165 q 408 210 383 183 q 560 369 476 278 q 629 436 604 418 q 669 456 651 451 q 682 457 678 456 q 693 456 686 458 q 703 452 700 453 q 712 447 706 451 q 721 441 718 443 q 731 434 724 439 q 740 426 738 429 q 932 288 865 333 q 957 268 951 274 q 973 244 967 260 q 981 218 979 229 q 988 181 983 207 q 993 93 989 163 q 1006 -81 997 -6 q 1018 -142 1010 -119 q 1031 -158 1025 -158 q 1047 -141 1036 -158 q 1067 -106 1058 -124 q 1078 -81 1076 -87 q 1088 22 1085 -60 q 1083 169 1089 74 q 1053 528 1063 453 q 1025 701 1038 647 q 1018 738 1022 717 q 1012 771 1014 758 q 1006 799 1010 783 q 994 831 1001 815 q 985 849 989 844 q 959 855 982 850 q 908 864 936 860 q 879 869 881 868 q 467 881 731 900 m 381 815 q 542 815 400 811 q 703 818 683 818 q 796 821 765 818 q 935 775 918 832 q 942 735 938 768 q 947 692 942 726 q 953 642 951 658 q 960 585 956 625 q 966 526 965 544 q 969 470 967 508 q 968 419 971 432 q 961 368 965 379 q 956 361 958 363 q 947 362 953 360 q 937 366 940 364 q 925 374 933 368 q 878 410 908 383 q 778 486 835 447 q 725 526 735 517 q 703 563 708 544 q 701 617 699 582 q 701 664 703 639 q 694 711 699 689 q 685 744 690 733 q 664 772 674 767 q 660 774 663 774 q 644 724 649 772 q 644 717 644 719 q 619 565 636 624 q 602 519 613 540 q 575 478 592 499 q 548 447 558 458 q 512 411 538 435 q 476 378 486 388 q 399 307 408 311 q 360 347 369 292 l 358 367 q 354 408 356 388 q 354 429 353 429 q 355 449 356 432 q 352 497 354 465 q 349 557 350 528 q 345 614 347 586 q 343 650 343 642 q 343 763 339 732 q 347 785 346 779 q 351 801 347 792 q 363 813 356 810 q 381 815 369 815 "},"冊":{"ha":1361,"x_min":299,"x_max":1060,"o":"m 943 -62 q 938 3 943 -39 q 933 49 932 38 q 954 72 935 61 q 994 86 963 78 q 1022 95 1013 92 q 1041 105 1031 99 q 1056 121 1051 111 q 1060 143 1060 131 q 1032 194 1058 169 q 978 235 1019 207 l 969 240 q 958 249 963 246 q 911 314 917 278 q 906 411 906 342 q 907 463 907 444 q 908 496 907 481 q 910 529 908 511 q 913 561 911 547 q 917 612 914 575 q 924 681 921 649 q 928 737 925 699 q 933 787 932 775 q 937 827 935 799 q 939 869 939 856 q 940 907 939 883 q 940 953 940 931 q 939 1003 940 975 q 937 1038 938 1025 q 933 1069 936 1051 q 924 1094 931 1088 q 910 1096 918 1101 q 886 1064 897 1090 q 874 1013 875 1038 q 878 864 872 1004 q 880 792 879 822 q 874 738 881 761 q 851 697 868 714 q 869 671 865 685 q 867 588 875 649 q 864 511 863 547 q 869 382 871 419 q 869 378 869 381 q 869 351 869 360 q 865 332 868 343 q 857 322 863 321 q 842 322 851 322 q 809 333 828 325 q 774 351 790 342 q 754 364 758 360 q 738 446 735 383 q 751 576 739 483 q 758 629 758 621 q 758 702 763 658 q 739 746 754 746 q 715 715 732 746 q 707 695 710 704 q 703 674 704 686 q 703 652 703 661 q 703 624 703 643 q 704 590 704 604 q 703 443 707 479 q 681 382 697 392 q 613 381 663 374 q 572 392 581 385 q 558 424 563 400 q 556 458 557 442 q 556 484 556 475 q 560 516 557 493 q 564 550 563 539 q 567 760 571 621 q 565 850 564 838 q 569 914 565 878 q 575 985 572 950 q 576 1053 578 1019 q 572 1094 575 1082 q 556 1081 568 1115 q 521 871 525 988 q 520 733 519 858 q 521 582 521 607 q 519 529 519 572 q 517 452 519 486 q 513 406 515 418 q 489 385 507 388 q 443 388 479 382 q 409 387 419 390 q 393 368 399 383 q 413 346 388 351 q 465 343 428 343 q 496 343 494 344 q 506 314 501 339 q 514 260 511 289 q 514 214 517 231 q 503 190 513 194 q 465 192 494 186 q 381 217 419 200 q 363 231 367 222 q 360 261 360 240 q 369 335 360 286 q 382 478 378 376 q 392 610 386 581 q 401 768 413 739 q 394 776 399 774 q 369 765 379 782 q 354 717 358 747 q 349 658 350 686 q 349 606 347 631 q 344 549 350 568 q 326 467 333 511 q 314 138 313 365 q 314 85 314 93 q 307 22 314 83 q 303 -74 300 -39 q 324 -110 306 -110 q 338 -96 332 -110 q 351 7 347 -72 q 372 149 358 111 q 378 159 375 157 q 390 161 381 161 q 418 158 403 161 q 447 149 433 154 q 472 138 461 143 q 492 126 483 132 q 515 56 515 110 q 510 -21 515 36 q 529 -210 494 -146 q 549 -231 539 -228 q 560 -230 556 -232 q 566 -223 564 -228 q 569 -212 568 -218 q 571 -196 571 -206 q 570 -178 571 -186 q 568 -158 569 -169 q 563 -44 563 -122 q 571 67 564 35 q 574 80 572 76 q 578 89 575 83 q 585 97 581 94 q 596 100 589 99 q 653 88 618 100 q 696 67 688 76 q 706 17 704 57 q 714 -56 707 -24 q 744 -87 721 -89 q 756 -86 753 -87 q 764 -69 763 -82 q 763 -42 765 -56 q 758 -10 761 -28 q 754 18 756 8 q 763 50 754 42 q 794 60 771 58 q 855 54 826 61 q 888 29 883 47 q 890 2 889 22 q 893 -39 892 -18 q 897 -81 894 -60 q 907 -115 900 -101 q 924 -126 914 -128 q 943 -62 946 -126 m 682 319 q 692 297 689 315 q 696 156 700 239 q 694 136 696 138 q 674 139 692 135 q 572 172 592 154 q 561 197 565 179 q 556 237 557 215 q 556 280 554 258 q 561 313 557 301 q 569 331 564 326 q 589 339 574 336 q 639 337 613 343 q 682 319 665 331 m 796 293 q 835 268 815 288 q 869 222 856 249 q 885 167 882 196 q 872 113 888 138 q 836 94 863 96 q 786 101 810 93 q 756 118 763 110 q 739 181 740 138 q 747 258 738 225 q 796 293 758 301 m 967 154 q 966 136 972 144 q 951 128 960 128 q 924 137 938 126 q 917 161 911 147 q 944 170 926 176 q 967 154 961 164 "},"冬":{"ha":1361,"x_min":197,"x_max":1182,"o":"m 524 1006 q 508 975 517 996 q 440 779 489 928 q 388 618 408 682 q 278 289 285 315 q 232 217 274 275 q 202 83 197 165 q 244 -46 207 0 q 342 -142 290 -103 q 410 -178 383 -175 q 438 -175 425 -181 q 487 -143 457 -169 q 533 -96 517 -117 q 561 -16 556 -67 q 556 82 567 35 q 474 253 538 167 q 433 296 451 283 q 412 333 414 308 q 419 392 410 358 q 435 447 421 401 q 471 593 454 510 q 536 842 503 739 q 553 886 549 878 q 597 911 567 907 q 665 901 626 915 q 790 814 728 879 q 893 675 853 749 q 933 594 910 644 q 960 528 956 543 q 947 463 971 494 q 899 411 935 446 q 839 319 861 375 q 810 247 818 269 q 790 181 801 225 q 776 103 778 138 q 828 -61 772 4 q 956 -119 888 -131 q 1103 6 1042 -106 q 1151 308 1181 147 q 1119 433 1147 338 q 1097 508 1101 493 q 1078 565 1089 542 q 1057 604 1068 588 q 1022 650 1046 621 q 950 750 996 683 q 846 886 885 844 q 722 982 783 953 q 644 1004 697 993 q 557 1017 590 1015 q 540 1017 546 1017 q 531 1015 533 1017 q 524 1006 529 1013 m 1006 404 q 1029 344 1021 383 q 1044 235 1036 315 l 1049 204 l 1047 183 q 1043 122 1047 136 q 1010 56 1038 93 q 950 4 981 15 q 893 20 915 -10 q 864 92 871 50 q 861 175 857 135 q 932 350 865 235 q 981 407 953 385 q 995 415 992 415 q 1006 404 999 414 m 365 229 q 417 170 386 214 q 461 93 449 126 q 467 46 468 72 q 429 -82 464 -47 q 411 -97 418 -94 q 379 -75 401 -100 q 286 71 315 -6 q 278 106 281 86 q 289 193 269 151 q 306 219 296 208 q 333 236 317 231 q 365 229 349 242 "},"凡":{"ha":1361,"x_min":429,"x_max":932,"o":"m 847 1104 q 838 1093 840 1101 q 838 1029 832 1078 q 841 995 840 1006 q 842 976 842 985 q 843 959 843 967 q 842 944 843 951 q 840 918 842 936 q 838 879 839 900 q 836 768 833 807 q 841 703 836 747 q 846 643 846 660 q 844 604 847 619 q 841 590 843 594 q 835 582 839 585 q 822 578 831 579 q 763 569 801 571 q 701 564 756 568 q 629 560 647 560 q 565 560 611 560 q 542 564 551 561 q 528 577 533 567 q 522 593 524 588 q 519 619 521 599 q 518 646 518 639 q 513 741 514 676 q 513 867 513 806 q 514 935 514 928 q 510 1003 513 985 q 503 1022 508 1010 q 491 1043 497 1033 q 479 1057 485 1053 q 465 1060 471 1064 q 444 1008 461 1056 q 440 993 444 1006 q 434 976 435 981 q 431 959 433 971 q 433 944 429 947 q 447 903 444 921 q 453 696 456 844 q 461 475 451 547 q 466 260 471 433 q 463 42 461 86 q 483 -111 465 -60 q 497 -132 490 -132 q 514 -111 504 -132 q 531 82 538 -58 q 526 151 528 122 q 525 275 521 242 q 533 304 528 297 q 564 310 539 308 q 657 324 592 311 q 799 344 756 343 q 829 344 819 346 q 844 335 839 342 q 851 310 850 328 q 856 156 853 300 q 844 -139 860 -17 q 842 -203 839 -190 q 856 -203 844 -217 q 881 -162 867 -190 q 904 -105 894 -135 q 918 -54 914 -75 q 924 113 926 -7 q 929 260 921 206 q 926 294 932 279 q 908 422 917 331 q 903 719 900 517 q 899 967 906 883 q 894 1013 897 990 q 884 1060 890 1036 q 869 1096 878 1083 q 847 1104 860 1108 m 803 526 q 826 522 821 525 q 847 471 842 513 q 846 414 851 429 q 841 403 844 407 q 833 397 838 400 q 823 394 828 394 q 808 392 818 393 q 803 392 806 392 q 675 379 771 386 q 528 371 546 369 q 519 373 519 371 q 518 393 518 375 q 525 492 515 474 q 538 503 528 499 q 567 510 549 508 q 597 513 585 513 q 632 515 610 514 q 644 515 640 515 q 703 519 667 517 q 768 524 740 522 q 803 526 796 526 "},"出":{"ha":1361,"x_min":313,"x_max":1049,"o":"m 771 1003 l 771 1025 q 767 1035 769 1028 q 762 1045 764 1042 q 757 1055 760 1049 q 752 1065 754 1061 q 748 1074 750 1068 q 743 1082 746 1079 q 738 1088 740 1085 q 733 1092 736 1090 q 729 1093 731 1093 q 721 1079 724 1092 q 725 754 700 996 q 726 739 725 743 q 722 640 732 676 q 676 567 711 604 q 624 517 667 556 q 572 467 582 478 q 556 451 558 453 q 518 481 532 435 q 506 579 510 511 q 479 747 497 729 q 458 742 468 758 q 444 710 447 725 q 453 588 439 669 q 479 453 461 538 q 492 375 490 400 q 501 332 494 344 q 558 221 515 304 q 600 169 571 197 q 633 118 631 139 q 642 71 638 78 q 666 66 650 60 q 693 85 682 72 q 704 110 699 92 q 722 231 714 143 q 731 301 728 283 q 752 394 733 318 q 772 488 771 471 q 774 525 775 508 q 774 564 772 557 q 785 593 775 571 q 840 676 797 621 q 885 740 874 719 q 897 763 894 757 q 901 781 900 769 q 901 817 903 793 l 900 846 q 926 1026 925 1013 q 911 1090 928 1075 q 876 1085 888 1113 q 863 940 865 1060 q 849 808 861 856 q 822 760 843 790 q 788 722 800 731 q 781 720 783 721 q 778 723 779 719 q 776 729 776 726 q 774 738 775 732 q 774 740 774 740 q 771 785 772 750 q 771 893 769 818 q 771 1003 772 968 m 710 450 q 685 314 701 364 q 665 256 679 294 q 647 215 650 218 q 629 224 643 211 q 594 272 614 239 q 564 331 574 304 q 556 361 556 351 q 565 386 556 371 q 597 421 576 400 q 637 460 618 442 q 663 485 656 479 q 700 508 689 507 q 710 488 708 510 q 710 450 713 465 m 1007 571 q 986 422 989 510 q 978 235 979 249 q 949 128 969 164 q 858 26 929 94 q 793 -49 821 -8 q 747 -108 761 -96 q 703 -134 725 -132 q 653 -117 682 -136 q 560 -50 581 -62 q 476 8 496 -8 q 442 43 456 24 q 407 125 418 76 q 396 247 400 161 q 376 396 392 333 q 363 474 364 453 q 365 503 363 479 q 364 541 368 528 q 344 554 360 554 q 314 458 315 554 q 317 365 314 446 q 321 268 319 283 q 349 115 328 171 q 463 -54 379 35 q 524 -115 497 -92 q 578 -157 550 -137 q 647 -197 607 -176 q 689 -217 676 -212 q 719 -216 701 -221 q 761 -192 738 -211 q 818 -135 782 -175 q 850 -89 839 -112 q 892 -25 867 -53 q 946 26 908 -8 q 962 41 950 31 q 976 54 974 51 q 988 65 979 57 q 998 76 996 72 q 1006 88 1000 79 q 1014 101 1013 96 q 1019 116 1015 107 q 1024 134 1022 125 q 1026 154 1025 143 q 1033 317 1031 204 q 1043 489 1035 421 q 1047 546 1047 528 q 1042 578 1046 568 q 1028 588 1039 588 q 1014 583 1017 586 q 1007 571 1011 581 "},"函":{"ha":1361,"x_min":388,"x_max":974,"o":"m 900 -94 l 901 -57 q 926 365 906 33 q 950 810 946 696 q 957 876 951 840 q 961 895 958 882 q 965 916 964 908 q 967 937 965 924 q 970 959 969 950 q 972 979 971 968 q 972 999 972 990 q 969 1015 971 1007 q 963 1031 967 1024 q 956 1042 960 1038 q 846 1032 925 1068 q 704 994 760 1035 q 693 988 696 989 q 624 947 651 975 q 571 867 596 918 q 559 841 560 843 q 552 824 558 839 q 545 802 546 810 q 542 779 544 794 q 539 742 540 764 q 525 643 533 669 q 482 592 517 617 q 432 549 450 569 q 389 465 393 508 q 391 440 389 456 q 393 419 393 425 q 436 351 394 369 q 472 342 463 340 l 524 324 q 568 247 557 314 q 574 187 571 225 q 579 107 576 149 q 585 43 582 65 q 589 7 586 35 q 594 -35 592 -21 q 599 -76 596 -50 q 606 -117 603 -101 q 615 -150 610 -132 q 627 -179 621 -168 q 642 -196 633 -190 q 674 -203 649 -200 q 760 -207 715 -210 q 840 -196 804 -204 q 893 -161 875 -187 q 900 -94 911 -135 m 938 999 q 924 874 940 969 q 917 810 918 843 q 892 357 913 683 q 868 -86 872 31 q 875 -112 867 -106 q 876 -114 875 -114 q 785 -165 871 -156 q 708 -165 753 -168 q 654 -153 663 -161 q 647 -134 647 -149 q 648 -99 646 -119 q 649 -68 650 -78 q 625 114 647 -18 q 604 247 608 214 q 594 371 593 329 q 596 415 594 410 q 604 415 597 417 q 615 411 611 414 q 649 371 625 404 q 672 336 672 338 q 694 318 682 325 q 718 282 714 306 q 721 240 719 278 q 724 196 722 203 l 719 114 q 719 96 717 100 q 729 87 722 89 q 742 89 736 85 q 750 99 749 93 q 756 158 754 114 q 760 213 758 203 q 768 275 765 257 q 781 316 771 293 q 810 353 792 339 q 810 355 810 353 q 819 365 811 357 q 853 404 840 385 q 856 407 854 406 q 868 450 878 439 q 843 440 856 465 q 817 401 832 421 q 796 381 801 383 q 776 378 779 374 q 769 411 772 383 q 768 432 769 422 q 765 457 767 442 q 756 533 765 474 q 746 601 747 592 q 775 640 761 611 l 781 647 q 805 689 797 664 q 810 742 813 714 q 793 800 807 771 q 788 821 788 811 q 799 869 788 839 l 815 892 q 853 946 843 928 q 868 1006 867 972 q 910 1019 886 1014 q 931 1019 925 1022 q 938 999 936 1015 m 836 999 q 838 996 838 999 q 813 938 839 974 q 774 888 779 892 q 769 886 772 886 q 765 885 768 886 q 763 885 763 885 q 743 920 761 886 q 721 967 725 954 q 836 999 763 996 m 743 865 q 740 833 749 847 q 728 809 728 811 q 724 799 728 807 q 711 769 719 792 q 699 740 703 747 q 708 617 678 701 q 714 594 713 606 q 724 530 715 585 q 733 461 732 475 l 735 440 q 729 410 729 424 q 724 358 728 367 q 710 347 718 346 q 674 389 701 347 q 653 421 660 411 q 630 440 646 431 q 593 450 614 449 q 589 492 592 454 q 576 658 579 606 q 596 849 572 797 q 693 957 636 938 q 699 958 697 958 q 703 953 700 958 q 714 928 706 944 q 733 894 722 913 q 746 869 743 875 q 744 867 746 868 q 743 865 743 865 m 768 776 q 776 733 775 754 q 772 692 778 711 q 750 664 765 674 q 742 668 746 665 q 735 676 738 671 q 732 685 733 681 q 730 697 731 689 q 728 708 729 704 q 728 722 728 713 q 728 734 728 731 q 738 763 728 738 q 750 790 743 778 q 762 788 760 789 q 768 776 764 786 m 544 350 q 517 358 536 350 q 469 381 483 372 q 435 408 443 396 q 421 465 417 433 q 494 563 428 515 q 513 574 510 574 q 523 577 515 574 q 532 581 531 581 q 544 566 542 581 q 543 540 546 551 q 547 465 542 515 q 553 406 551 414 q 544 350 554 372 "},"刀":{"ha":1361,"x_min":489,"x_max":869,"o":"m 839 1071 q 771 1004 825 1061 q 738 964 753 983 q 722 947 732 956 q 706 928 713 938 q 675 818 678 888 q 685 661 672 771 q 694 565 692 601 q 683 447 700 483 q 637 369 678 435 q 589 292 596 303 q 562 247 581 278 q 528 192 543 217 q 506 147 514 167 q 507 113 489 111 q 536 133 517 113 q 607 222 564 163 q 636 281 614 233 q 647 304 640 288 q 658 328 654 321 q 667 347 661 336 q 680 365 674 358 q 694 375 686 371 q 703 365 700 372 q 706 351 706 358 q 706 331 706 344 q 706 308 706 317 q 711 271 706 304 q 724 160 722 194 q 718 72 726 110 q 538 -193 697 -26 q 507 -231 517 -215 q 501 -246 500 -242 q 507 -253 501 -250 q 599 -201 528 -262 q 682 -111 647 -160 q 767 57 749 -18 q 772 222 779 114 q 743 457 765 307 q 722 626 728 558 q 721 777 715 694 q 750 918 726 860 q 753 929 754 926 q 758 939 753 932 q 842 1029 781 969 q 861 1050 858 1047 q 858 1069 868 1060 q 839 1071 849 1079 "},"分":{"ha":1361,"x_min":365,"x_max":996,"o":"m 413 1046 q 397 999 386 1039 q 418 956 401 982 q 481 703 489 843 q 439 515 476 613 q 390 414 415 453 q 367 351 365 374 q 375 333 367 338 q 394 334 383 329 q 413 347 404 339 q 501 542 458 400 q 527 697 525 621 q 515 841 529 774 q 468 983 500 908 q 454 1017 460 1006 q 437 1038 449 1028 q 413 1046 425 1049 m 904 1033 q 867 946 886 1007 q 834 823 847 885 q 818 719 821 761 q 824 615 814 678 q 845 524 831 572 q 882 431 860 475 q 928 363 904 386 q 975 343 949 343 q 986 346 982 343 q 994 354 992 349 q 994 367 996 360 q 988 382 992 375 q 978 399 985 389 q 968 414 972 408 q 958 428 964 419 q 950 438 951 436 q 892 549 911 494 q 876 681 872 603 q 900 832 879 754 q 956 1010 907 863 q 955 1044 960 1029 q 935 1058 950 1060 q 904 1033 922 1058 m 694 932 q 636 832 660 896 q 614 758 619 788 q 614 688 608 729 q 638 592 618 660 q 654 514 654 532 q 651 483 656 497 q 642 462 647 469 q 624 439 636 454 q 619 433 621 435 q 588 381 606 415 q 521 261 536 285 q 505 238 511 249 q 492 210 499 226 q 488 185 485 194 q 508 176 492 176 q 533 182 522 178 q 553 197 544 186 q 566 215 561 207 q 579 240 571 224 q 601 299 586 257 q 643 390 626 367 q 678 429 667 422 q 690 357 693 431 q 621 96 682 224 q 546 -31 590 31 q 499 -99 513 -76 q 478 -154 481 -132 q 491 -199 472 -186 q 529 -187 510 -211 q 608 -57 567 -146 q 679 118 635 3 q 733 408 740 274 q 724 475 731 444 q 692 562 719 488 q 661 650 665 636 q 656 749 650 715 q 686 831 661 782 q 736 894 700 860 q 757 963 804 964 q 694 932 722 963 "},"初":{"ha":1361,"x_min":269,"x_max":1117,"o":"m 558 908 q 435 761 521 875 q 417 740 425 749 q 399 724 410 732 q 368 700 389 715 q 344 682 349 686 q 302 632 324 665 q 272 574 281 599 q 271 557 269 565 q 274 542 271 546 q 285 538 276 539 q 403 606 335 531 q 453 667 407 610 q 506 731 500 725 q 539 754 524 749 q 560 763 553 758 q 574 781 567 768 q 587 804 582 793 q 603 822 592 815 q 628 824 614 828 q 660 808 640 819 q 697 782 679 797 q 728 753 715 767 q 751 721 733 746 q 803 658 788 674 q 836 636 821 642 q 882 645 861 628 q 899 688 903 663 q 885 710 897 699 q 842 743 874 721 q 786 792 810 765 q 682 893 714 868 q 558 908 607 951 m 999 856 q 991 796 990 832 q 997 729 992 760 q 1008 657 1001 699 q 1017 593 1014 615 q 1013 547 1019 563 q 976 509 1008 535 q 925 475 943 483 q 889 478 910 469 q 822 525 871 486 q 775 561 788 553 q 729 572 747 578 q 715 556 719 568 q 710 533 711 544 q 710 500 710 522 q 710 488 710 492 q 700 346 710 432 q 692 281 696 315 q 682 151 681 192 q 683 135 682 142 q 686 121 685 128 q 690 109 688 114 q 697 101 693 104 q 706 99 700 99 q 719 104 713 100 q 761 175 742 117 q 775 221 772 207 q 781 276 778 235 q 788 380 785 357 q 797 415 792 403 q 813 433 804 429 q 831 432 821 436 q 857 415 840 428 q 900 399 882 397 q 964 424 915 399 q 1000 432 988 435 q 1019 401 1014 429 q 1022 347 1025 374 q 975 211 1014 269 q 926 171 957 188 q 844 100 849 129 q 861 75 843 81 q 954 107 890 68 q 1086 471 1115 207 q 1080 605 1083 494 q 1075 724 1076 715 q 1043 836 1068 792 q 1035 850 1040 843 q 1024 864 1031 857 q 1010 869 1017 871 q 999 856 1003 868 m 454 508 q 313 450 360 485 q 289 408 282 428 q 297 397 292 401 q 308 390 303 392 q 324 390 314 389 q 342 392 335 390 q 361 396 349 393 q 424 392 410 406 q 440 301 443 372 q 443 233 438 257 q 483 131 453 194 q 539 42 513 68 q 622 -17 561 17 q 694 -60 685 -53 q 722 -82 706 -67 q 749 -108 738 -97 q 778 -126 760 -118 q 819 -133 797 -135 q 851 -125 842 -132 q 867 -87 869 -110 q 821 -43 863 -60 q 749 -21 803 -35 q 671 18 703 -8 q 578 141 622 58 q 519 307 535 224 q 515 372 514 339 q 518 451 519 436 q 454 508 510 521 "}}}
